<?xml version="1.0" encoding="UTF-8" standalone="no"?>
<!-- Created with Inkscape (http://www.inkscape.org/) -->

<svg
   xmlns:dc="http://purl.org/dc/elements/1.1/"
   xmlns:cc="http://creativecommons.org/ns#"
   xmlns:rdf="http://www.w3.org/1999/02/22-rdf-syntax-ns#"
   xmlns:svg="http://www.w3.org/2000/svg"
   xmlns="http://www.w3.org/2000/svg"
   xmlns:sodipodi="http://sodipodi.sourceforge.net/DTD/sodipodi-0.dtd"
   xmlns:inkscape="http://www.inkscape.org/namespaces/inkscape"
   width="155.42975mm"
   height="97.141739mm"
   viewBox="0 0 155.42975 97.141739"
   version="1.1"
   id="svg3990"
   inkscape:version="0.92.4 (5da689c313, 2019-01-14)"
   sodipodi:docname="face.svg">
  <defs
     id="defs3984" />
  <sodipodi:namedview
     id="base"
     pagecolor="#ffffff"
     bordercolor="#666666"
     borderopacity="1.0"
     inkscape:pageopacity="0.0"
     inkscape:pageshadow="2"
     inkscape:zoom="11.2"
     inkscape:cx="261.44958"
     inkscape:cy="143.5735"
     inkscape:document-units="mm"
     inkscape:current-layer="layer1"
     showgrid="false"
     inkscape:window-width="3838"
     inkscape:window-height="2134"
     inkscape:window-x="0"
     inkscape:window-y="24"
     inkscape:window-maximized="0"
     fit-margin-top="0"
     fit-margin-left="0"
     fit-margin-right="0"
     fit-margin-bottom="0" />
  <metadata
     id="metadata3987">
    <rdf:RDF>
      <cc:Work
         rdf:about="">
        <dc:format>image/svg+xml</dc:format>
        <dc:type
           rdf:resource="http://purl.org/dc/dcmitype/StillImage" />
        <dc:title />
      </cc:Work>
    </rdf:RDF>
  </metadata>
  <g
     inkscape:label="Layer 1"
     inkscape:groupmode="layer"
     id="layer1"
     transform="translate(-21.539084,-92.51357)">
    <path
       inkscape:connector-curvature="0"
       id="path3913"
       d="m 21.539089,172.59497 c 0,-9.65698 0.04607,-17.06028 0.10616,-17.06028 0.05839,0 0.345254,0.0845 0.637483,0.18784 0.292229,0.10331 1.460231,0.39979 2.595558,0.65883 1.135331,0.25904 2.218055,0.52968 2.406061,0.60142 0.188001,0.0717 0.453346,0.13044 0.589653,0.13044 0.136303,0 0.355277,0.1366 0.486609,0.30356 0.131333,0.16696 0.307053,0.30357 0.390496,0.30357 0.08344,0 0.527169,0.32465 0.986068,0.72145 0.646859,0.55933 0.942323,0.93076 1.314764,1.65277 0.471405,0.91387 0.480625,0.95662 0.492576,2.28382 0.01129,1.25118 -0.02267,1.46169 -0.453011,2.80962 -0.255854,0.80141 -0.493397,1.55788 -0.527872,1.68104 -0.03447,0.12316 -0.336305,0.80552 -0.670737,1.51636 -0.78161,1.66132 -0.941892,2.46297 -0.666873,3.33542 0.258479,0.82 0.767572,1.3098 1.832411,1.763 0.870079,0.3703 2.046305,1.20307 2.258033,1.59869 0.101768,0.19016 0.02162,0.32328 -0.481313,0.79946 -0.331876,0.31422 -0.788421,0.69703 -1.014541,0.85068 -0.433983,0.29489 -1.083981,1.21239 -1.302006,1.8378 -0.108968,0.31259 -0.07988,0.49119 0.180916,1.11081 0.190103,0.45167 0.310756,0.96844 0.310756,1.331 0,0.73328 0.199479,1.35738 0.514792,1.61058 0.131782,0.10582 0.341009,0.48036 0.464952,0.83231 0.123939,0.35194 0.555426,1.12183 0.958859,1.71085 1.011332,1.47658 1.302602,2.2204 1.532086,3.91248 l 0.07822,0.57677 h -6.510053 -6.510052 z m 24.464107,16.2836 c -0.107004,-0.99919 0.0956,-2.30884 0.706373,-4.56603 0.333799,-1.23359 0.346383,-4.61355 0.02088,-5.60883 -0.432905,-1.3237 -1.409772,-3.18334 -2.003973,-3.81493 -0.641792,-0.68217 -0.88045,-1.29968 -0.89078,-2.30482 -0.0056,-0.53998 0.04951,-0.6834 0.435447,-1.13429 0.24299,-0.28387 0.63875,-0.89093 0.879459,-1.349 l 0.43766,-0.83287 -0.246749,-0.46136 c -0.135711,-0.25375 -0.517229,-0.76902 -0.84782,-1.14504 -0.885893,-1.00765 -1.130522,-1.552 -1.194557,-2.65816 -0.05079,-0.87742 -0.02116,-1.02543 0.44353,-2.2139 0.703266,-1.79873 0.881473,-2.53015 0.954172,-3.91622 0.04688,-0.8938 0.0117,-1.42348 -0.133076,-2.00352 -0.175298,-0.70233 -0.273096,-0.85832 -0.894938,-1.42741 -1.088199,-0.99588 -3.222266,-1.95077 -4.826597,-2.15967 -1.412104,-0.18386 -2.546109,-0.63735 -3.663473,-1.46501 -0.589666,-0.43679 -1.413631,-1.14802 -1.831034,-1.5805 l -0.758911,-0.78633 v -1.12817 c 0,-1.28426 0.247148,-2.1787 0.875824,-3.16971 0.211833,-0.33392 0.748916,-1.31746 1.193519,-2.18566 1.484972,-2.89974 2.202782,-4.24832 2.359057,-4.43203 0.08522,-0.10017 0.399445,-0.64659 0.698287,-1.21425 0.631695,-1.19994 1.76917,-2.87712 2.330328,-3.43603 0.606923,-0.60447 0.88084,-1.06162 1.107699,-1.84866 0.115073,-0.39923 0.359146,-1.0264 0.542383,-1.39372 0.183242,-0.36731 0.472754,-1.0857 0.643367,-1.59642 0.336681,-1.00784 0.565715,-1.49178 1.210577,-2.55791 0.242325,-0.40063 0.482548,-1.01623 0.568598,-1.45711 0.08195,-0.41987 0.253375,-1.06203 0.380954,-1.42703 0.145917,-0.41746 0.233926,-1.00301 0.237253,-1.57853 0.01042,-1.79892 0.194169,-3.31943 0.455434,-3.7684 0.227511,-0.39097 0.325222,-1.02455 0.284134,-1.84242 -0.009,-0.17854 -0.157739,-0.49269 -0.330605,-0.69813 -0.313606,-0.3727 -0.314028,-0.37625 -0.192242,-1.6182 0.06713,-0.68458 0.128772,-1.7911 0.136991,-2.45894 0.0082,-0.66784 0.06614,-1.54211 0.128717,-1.94281 0.06257,-0.40071 0.221865,-1.65746 0.353982,-2.79279 0.499859,-4.2956 0.848596,-6.26278 1.532913,-8.64697 0.157413,-0.54843 0.396094,-1.5593 0.530405,-2.24637 0.204454,-1.0459 0.502722,-2.25213 0.811826,-3.28309 0.06005,-0.20028 0.677369,-0.2125 10.740975,-0.2125 5.872496,0 10.677261,0.0375 10.677261,0.0833 0,0.0458 -0.209534,0.33266 -0.465636,0.63748 -0.256102,0.30483 -0.782831,1.01869 -1.170508,1.58635 -0.387673,0.56766 -0.959382,1.30533 -1.270464,1.63925 -0.795846,0.85427 -1.725516,2.31296 -2.863372,4.49274 -0.383478,0.73462 -0.891102,1.63284 -1.128057,1.99603 -0.448812,0.68792 -1.104629,2.2168 -1.111866,2.59205 -0.0023,0.11922 -0.08236,0.33779 -0.177919,0.48571 -0.438449,0.67869 -1.026601,2.98914 -1.351235,5.30809 -0.36351,2.59668 -0.420464,3.21612 -0.351656,3.8249 0.04309,0.38122 -0.02887,1.14933 -0.193407,2.06424 -0.338044,1.87985 -0.517597,4.10163 -0.485742,6.01057 0.01542,0.92408 -0.04585,1.92156 -0.156684,2.54993 -0.207047,1.17404 -0.712692,2.98312 -0.976238,3.49277 -0.09753,0.1886 -0.265171,0.69565 -0.372542,1.12679 -0.250117,1.00432 -0.369802,1.27816 -0.791119,1.81012 -0.189332,0.23905 -0.406806,0.667 -0.483278,0.95099 -0.179731,0.66747 -2.07692,4.48077 -2.666605,5.35982 -0.249796,0.37237 -0.756929,1.25077 -1.12696,1.952 -0.370032,0.70123 -0.980557,1.72999 -1.35672,2.28612 -0.707993,1.04671 -1.06706,1.99305 -1.280408,3.37456 -0.145582,0.94273 -0.0057,1.58558 0.540671,2.48504 0.65986,1.08625 1.421677,1.53917 3.029441,1.8011 0.921042,0.15005 3.231095,0.81531 3.977808,1.14554 0.838733,0.37092 1.265411,0.91716 1.435619,1.83791 0.188809,1.02138 0.04158,1.7395 -0.642366,3.13342 -0.723688,1.47489 -0.938991,2.13109 -0.85156,2.59542 0.111414,0.59169 0.616675,1.24664 1.297912,1.68242 0.360605,0.23068 0.690544,0.47588 0.733193,0.54489 0.04263,0.069 -0.0967,0.40864 -0.309659,0.75476 -0.537895,0.87419 -0.723212,1.46348 -0.723212,2.29975 0,0.49167 0.08153,0.87934 0.258558,1.22935 0.357456,0.70676 1.295544,2.25186 1.653538,2.72352 0.533993,0.70352 0.748755,1.65681 0.632673,2.80832 -0.05604,0.55585 -0.18047,1.13057 -0.276525,1.27716 -0.09605,0.14659 -0.300957,0.70202 -0.455351,1.23427 -0.250659,0.86412 -0.277975,1.18875 -0.255143,3.03197 0.02533,2.04586 0.195358,3.22657 0.568249,3.94633 0.270003,0.52117 1.780708,1.87703 2.691823,2.41592 1.258211,0.74419 2.005782,0.84943 6.596176,0.92853 2.575861,0.0444 4.082637,0.12113 4.614167,0.23503 0.434094,0.093 1.226401,0.20108 1.760666,0.24014 3.0799,0.22516 5.932887,0.95334 8.014084,2.04546 0.968093,0.50802 0.973127,0.51319 1.474583,1.51316 0.276744,0.55188 0.59219,1.13927 0.700994,1.30533 l 0.197826,0.30192 H 66.418287 46.086373 Z m 87.305284,0.32134 c -0.041,-0.25044 -0.25489,-1.16568 -0.47532,-2.03387 -0.22044,-0.8682 -0.49486,-2.17696 -0.60981,-2.90837 -0.11496,-0.7314 -0.31857,-1.66031 -0.45245,-2.06423 -0.1745,-0.52642 -0.27271,-1.28461 -0.34679,-2.67721 -0.0708,-1.33003 -0.18369,-2.23005 -0.35806,-2.8535 -0.31589,-1.12945 -0.24628,-2.02569 0.24522,-3.15707 0.42341,-0.97461 0.64,-1.81184 0.97378,-3.76419 0.14272,-0.8348 0.35878,-1.84567 0.48013,-2.24637 0.12135,-0.4007 0.44744,-1.53896 0.72465,-2.52946 0.64676,-2.31092 1.70719,-4.72812 4.67008,-10.64521 1.28749,-2.57119 2.38195,-4.81149 2.43216,-4.97844 0.25475,-0.84722 1.92672,-4.0116 2.43033,-4.59971 0.71183,-0.83121 0.8441,-1.09405 1.40979,-2.80139 0.94273,-2.8453 1.17871,-3.41541 1.78537,-4.31341 0.38924,-0.57618 0.71623,-1.24442 0.87881,-1.796 0.1424,-0.48313 0.31536,-1.04235 0.38437,-1.2427 0.069,-0.20035 0.19874,-0.61016 0.28831,-0.91069 0.0896,-0.30053 0.24426,-0.7923 0.34373,-1.09283 0.0995,-0.30053 0.24022,-0.84694 0.31274,-1.21425 0.0725,-0.36731 0.18553,-0.88641 0.25114,-1.15355 0.25361,-1.03259 0.35443,-1.99832 0.35678,-3.41748 0.002,-1.10309 0.0614,-1.66912 0.23659,-2.24637 0.29363,-0.96772 0.36195,-3.08573 0.14044,-4.35375 -0.0875,-0.50088 -0.35554,-1.45711 -0.59562,-2.12495 -0.33984,-0.94532 -0.43179,-1.37562 -0.41511,-1.94281 0.0118,-0.4007 0.032,-1.08671 0.045,-1.52446 0.0191,-0.6447 -0.0399,-0.93308 -0.31038,-1.51783 -0.24549,-0.53069 -0.36163,-1.03195 -0.43848,-1.89246 -0.10106,-1.13155 -0.50156,-2.38985 -1.44173,-4.52974 -0.11899,-0.27082 -0.37505,-0.87448 -0.56903,-1.34146 -0.37346,-0.89906 -1.33423,-2.55424 -1.81273,-3.12291 -0.15734,-0.18698 -0.46555,-0.70849 -0.68491,-1.15892 -0.21936,-0.45043 -0.56981,-1.06485 -0.77875,-1.36538 -0.20895,-0.30052 -0.53496,-0.8365 -0.72445,-1.19104 -0.33272,-0.6225 -2.24323,-2.58362 -3.41805,-3.50859 -0.28008,-0.22051 -0.76764,-0.74229 -1.08347,-1.1595 -0.31584,-0.4172 -0.71507,-0.87954 -0.88717,-1.0274 l -0.31292,-0.26884 13.05919,-0.005 13.0592,-0.005 0.5101,0.98126 c 0.28057,0.5397 0.51011,1.05717 0.51011,1.14995 0,0.0928 0.13162,0.45717 0.2925,0.80976 0.16088,0.35259 0.37365,0.94161 0.47284,1.30892 0.0992,0.36731 0.35583,1.1323 0.57031,1.69996 0.69665,1.84379 1.44139,4.36582 1.57112,5.32047 0.0697,0.51312 0.20715,1.55357 0.30539,2.31211 0.0982,0.75854 0.28635,1.82405 0.41803,2.3678 0.17821,0.73588 0.24327,1.45428 0.25449,2.81001 0.008,1.00176 0.0221,2.09459 0.0307,2.42851 0.0609,2.37333 -0.17428,5.31029 -0.57867,7.22483 -0.0917,0.43409 -0.20334,1.2264 -0.24811,1.76067 -0.0447,0.53427 -0.15955,1.18997 -0.25507,1.45711 -0.0955,0.26713 -0.28189,1.19603 -0.41415,2.06423 -0.25438,1.67001 -0.43694,2.40739 -0.92335,3.72976 -0.16499,0.44854 -0.37646,1.2536 -0.46994,1.78902 -0.16085,0.92141 -0.32027,1.30114 -1.14947,2.73815 -0.19269,0.33392 -0.38457,0.8086 -0.4264,1.05485 -0.0419,0.24624 -0.26877,0.76533 -0.50431,1.15354 -0.76289,1.25738 -1.69601,3.35741 -2.16396,4.87013 -0.0887,0.28684 -0.302,0.70595 -0.47393,0.93134 -0.51201,0.67129 -1.02447,1.68424 -1.16158,2.29607 -0.0707,0.31537 -0.34624,0.91818 -0.61237,1.33956 -0.26613,0.42139 -0.48387,0.81089 -0.48387,0.86556 0,0.0547 -0.23801,0.45858 -0.52889,0.89757 -0.48153,0.72669 -2.14247,3.70692 -2.14247,3.84424 0,0.0318 -0.22356,0.45221 -0.49679,0.93434 -0.27323,0.48213 -0.81814,1.57616 -1.21092,2.43116 -0.39276,0.855 -1.0708,2.18475 -1.50673,2.95499 -0.43593,0.77025 -0.7926,1.42134 -0.7926,1.44687 0,0.0255 -0.48697,1.04789 -1.08215,2.27192 -0.59518,1.22403 -1.28202,2.74208 -1.52631,3.37343 -0.24429,0.63135 -0.73658,1.85826 -1.09398,2.72645 -0.7984,1.93949 -1.26952,3.35628 -1.69581,5.09988 -0.1796,0.73462 -0.42734,1.66352 -0.5505,2.06423 -0.12316,0.4007 -0.39332,1.43889 -0.60034,2.30708 -0.20703,0.8682 -0.5138,2.07031 -0.68169,2.67136 -0.49187,1.7608 -0.71716,3.67011 -0.97072,8.22658 l -0.0794,1.42675 h -4.41455 -4.41455 z m 20.89103,-0.0483 c 0.0468,-0.27702 0.16392,-0.69234 0.26027,-0.92293 0.0963,-0.23058 0.28013,-1.14443 0.4084,-2.03077 0.13075,-0.90342 0.40184,-2.11186 0.61692,-2.75019 0.28742,-0.853 0.39777,-1.42805 0.4399,-2.2922 0.0483,-0.99175 0.11329,-1.27276 0.46314,-2.00352 0.25406,-0.53066 0.45077,-1.1785 0.52362,-1.72446 0.0675,-0.5058 0.24677,-1.12013 0.42523,-1.45711 0.16971,-0.32044 0.37024,-0.82851 0.44563,-1.12903 0.0754,-0.30053 0.21633,-0.67006 0.31316,-0.82118 0.0969,-0.15112 0.38949,-0.90339 0.65031,-1.67171 0.32758,-0.96498 0.60216,-1.54642 0.88797,-1.88032 0.27539,-0.32173 0.56481,-0.91994 0.8655,-1.78892 0.24847,-0.71805 0.75042,-1.85196 1.11545,-2.5198 0.36502,-0.66784 1.21393,-2.30708 1.88647,-3.64277 2.45618,-4.87809 3.2073,-6.32684 3.46938,-6.69176 0.26195,-0.36473 0.65872,-1.14161 2.96988,-5.81506 0.6275,-1.2689 1.39194,-2.77154 1.69876,-3.33921 0.30682,-0.56766 0.739,-1.44192 0.96038,-1.94281 0.22138,-0.50088 0.5639,-1.15658 0.76114,-1.4571 0.19725,-0.30053 0.73162,-1.3114 1.18748,-2.24637 0.45586,-0.93498 1.17211,-2.40471 1.59169,-3.26606 l 0.76285,-1.56611 0.0329,16.38002 0.0329,16.38002 -0.26303,0.4857 c -0.14467,0.26713 -0.3766,0.61152 -0.51542,0.7653 -0.21532,0.23856 -0.2261,0.29622 -0.0734,0.39278 0.0984,0.0622 0.27629,0.11401 0.39526,0.11503 0.11896,9.1e-4 0.2508,0.0917 0.29294,0.20155 0.11624,0.30293 -0.29122,0.53659 -0.80311,0.46056 -0.43346,-0.0644 -0.43563,-0.0624 -0.7701,0.70006 -0.18447,0.42055 -0.33504,0.9832 -0.3346,1.25034 0.001,0.64625 -0.17667,1.25227 -0.67567,2.30356 -0.2276,0.4795 -0.44859,1.1409 -0.49107,1.46979 -0.07,0.54133 -0.50845,1.58563 -1.14338,2.72291 -0.1433,0.25666 -0.23734,0.65582 -0.23745,1.00779 -1.1e-4,0.32054 -0.0756,0.73035 -0.16772,0.91069 -0.0921,0.18034 -0.28305,0.78777 -0.42424,1.34983 -0.14121,0.56207 -0.33801,1.146 -0.43737,1.29764 -0.23454,0.35795 -0.42504,1.20459 -0.54363,2.41602 -0.0733,0.74905 -0.19982,1.1868 -0.5526,1.91245 l -0.45748,0.94105 h -7.82618 -7.82617 z m -61.244303,-7.11523 c -0.06195,-0.11716 -0.175771,-0.92336 -0.25295,-1.79155 -0.07717,-0.86819 -0.216161,-1.85174 -0.308851,-2.18566 -0.09269,-0.33392 -0.232559,-1.0989 -0.310811,-1.69996 -0.183242,-1.4075 -0.39312,-1.8713 -1.386078,-3.06292 -1.207103,-1.44862 -1.540957,-1.65602 -3.958776,-2.45928 -1.072021,-0.35615 -3.179704,-0.60151 -5.168752,-0.6017 -1.010025,-1.1e-4 -2.102855,-0.0606 -2.428517,-0.13443 -0.325653,-0.0738 -1.201784,-0.18088 -1.946955,-0.2379 -1.437574,-0.10999 -1.816532,-0.2392 -2.52447,-0.86077 -0.596317,-0.52358 -0.909859,-1.08296 -1.171431,-2.08994 -0.272064,-1.04735 -0.290375,-1.79715 -0.06159,-2.5222 0.386943,-1.22628 0.589836,-2.4482 0.529074,-3.1864 -0.06582,-0.79974 -0.514003,-1.78073 -1.530664,-3.35032 -0.277066,-0.42775 -0.50375,-0.85394 -0.50375,-0.94707 0,-0.2987 0.342477,-0.84363 0.661631,-1.05275 0.512388,-0.33573 0.411451,-0.72557 -0.476976,-1.84215 -0.472639,-0.59402 -0.457316,-1.10219 0.06314,-2.09317 0.504824,-0.9612 0.603615,-1.85515 0.294473,-2.66463 -0.417209,-1.09245 -1.406738,-1.70779 -3.349072,-2.08262 -2.094975,-0.40429 -2.508169,-0.60164 -2.560404,-1.22294 -0.01992,-0.23699 0.0041,-0.56749 0.05357,-0.73445 0.04939,-0.16696 0.199795,-0.77828 0.334234,-1.35848 0.134444,-0.5802 0.400152,-1.31786 0.590461,-1.63924 1.240073,-2.09411 1.644268,-2.80715 2.327304,-4.10568 1.166222,-2.21711 1.459181,-2.84303 1.70861,-3.65061 0.125953,-0.40779 0.338874,-0.84086 0.473158,-0.96238 0.141548,-0.1281 0.245959,-0.37888 0.248474,-0.59677 0.0023,-0.20669 0.08348,-0.70366 0.180241,-1.10436 0.208699,-0.86432 0.224885,-1.77445 0.05067,-2.84824 -0.100313,-0.61829 -0.08951,-0.9391 0.05116,-1.51782 0.293468,-1.20744 0.441864,-2.42942 0.446967,-3.68064 0.0028,-0.6499 0.08582,-1.59146 0.184816,-2.09234 0.09899,-0.50088 0.229025,-1.16324 0.288971,-1.47192 0.26427,-1.36093 0.761311,-3.22591 1.058423,-3.97141 0.476137,-1.19464 2.083281,-4.34681 2.420687,-4.74779 0.1607,-0.19099 0.292183,-0.38449 0.292183,-0.43001 0,-0.23451 1.311387,-1.71079 3.416274,-3.84583 1.675461,-1.69946 2.456158,-2.40871 2.715716,-2.4672 0.353827,-0.0797 1.540007,-0.74232 3.746773,-2.09292 0.9851,-0.6029 1.163551,-0.66816 2.124947,-0.77706 2.316189,-0.26237 2.898434,-0.37171 3.895559,-0.73153 1.257856,-0.4539 2.050931,-0.51053 7.110864,-0.50776 2.64684,0.001 3.84643,0.0515 4.83035,0.20151 0.71994,0.10977 1.71028,0.19958 2.20074,0.19958 0.49047,0 1.12735,0.0831 1.41532,0.18472 0.28796,0.1016 1.10078,0.28879 1.80629,0.41598 1.6638,0.29995 3.05682,0.67663 3.62148,0.97927 0.24774,0.13278 0.54001,0.24142 0.64947,0.24142 0.10947,0 0.65669,0.18196 1.21606,0.40436 0.55936,0.2224 1.36523,0.5321 1.79082,0.68822 0.4256,0.15612 0.91737,0.40242 1.09283,0.54733 0.17547,0.14491 0.67044,0.46768 1.09996,0.71727 0.88402,0.5137 3.28682,2.33995 3.28682,2.49817 0,0.0571 0.62699,0.57242 1.39331,1.14514 0.76632,0.57272 1.48617,1.19177 1.59968,1.37567 0.70006,1.1342 1.11008,1.72022 1.46585,2.09503 0.42406,0.44675 2.10976,3.75543 2.32998,4.57327 0.0707,0.26259 0.29823,0.63877 0.50561,0.83595 0.5072,0.48224 0.90604,1.19037 1.1252,1.99773 0.0997,0.36732 0.34252,1.11135 0.53959,1.6534 0.5533,1.52184 0.7739,3.11874 0.73107,5.29187 -0.0202,1.02195 -0.0165,2.56843 0.008,3.43662 0.0358,1.26432 -0.006,1.82023 -0.2102,2.79279 -0.34776,1.65668 -0.78146,3.21412 -1.43707,5.16058 -0.59901,1.77844 -0.82721,2.28777 -1.44294,3.2207 -0.22145,0.33552 -0.6035,1.08988 -0.849,1.67635 -0.2455,0.58646 -1.56308,3.30742 -2.92795,6.04657 -2.33972,4.69554 -3.42591,7.18817 -3.61785,8.30233 -0.046,0.26713 -0.26658,1.05944 -0.49013,1.76066 -0.58001,1.81939 -0.63995,2.0921 -0.78726,3.58206 -0.0726,0.73462 -0.21831,1.81208 -0.32371,2.39435 -0.17643,0.97458 -0.1755,1.15301 0.0117,2.24637 0.11181,0.65324 0.27991,1.89805 0.37356,2.76624 0.0936,0.86819 0.27727,1.88752 0.40806,2.26517 0.3366,0.97202 1.04525,4.41708 1.14384,5.56081 0.0199,0.23042 -0.0784,0.35643 -0.4352,0.55821 -0.37876,0.21418 -0.74648,0.27497 -2.06423,0.34121 -0.88186,0.0443 -2.34104,0.18915 -3.24262,0.32182 -0.90159,0.13267 -1.92343,0.24135 -2.27075,0.24152 -0.34733,1.2e-4 -0.89375,0.0501 -1.21426,0.11098 -0.32051,0.0609 -0.99256,0.17505 -1.49344,0.25375 -0.50088,0.0787 -1.75163,0.30562 -2.77944,0.50426 -1.17261,0.22663 -2.03255,0.3335 -2.30847,0.28688 -0.29064,-0.0491 -1.28323,0.0942 -2.92756,0.42265 -1.49311,0.29824 -2.64141,0.46907 -2.87194,0.42724 -0.21125,-0.0383 -1.03088,0.0469 -1.821383,0.18941 -0.790504,0.14251 -1.683166,0.28184 -1.983697,0.30963 -0.300527,0.0278 -1.09283,0.10264 -1.760671,0.16634 -2.756955,0.263 -2.592727,0.2611 -2.714165,0.0314 z M 98.037171,164.265 c 0.574444,-0.15739 1.426266,-0.26889 2.307079,-0.302 0.76802,-0.0289 1.65912,-0.10664 1.98023,-0.17284 0.3211,-0.0662 0.86751,-0.0887 1.21425,-0.05 0.43662,0.0487 0.79841,0.009 1.17684,-0.13062 0.30053,-0.11055 1.39336,-0.36829 2.42851,-0.57273 1.53592,-0.30336 2.13894,-0.36703 3.27849,-0.34614 1.04817,0.0192 1.50995,-0.0224 1.85174,-0.16689 0.51875,-0.21929 0.52627,-0.25703 0.25902,-1.30024 -0.16936,-0.66108 -0.17503,-0.87929 -0.0412,-1.58836 0.16362,-0.86718 0.16373,-0.86659 -0.36881,-1.79147 -0.22226,-0.38602 -0.24361,-0.64203 -0.24361,-2.92118 v -2.49808 l 0.42222,-0.83918 c 0.23222,-0.46155 0.48427,-1.14143 0.56012,-1.51085 0.0759,-0.36943 0.19352,-0.86293 0.26151,-1.09667 0.17671,-0.60758 1.52777,-3.388 1.87029,-3.84898 0.46067,-0.62 1.33106,-2.45612 1.57089,-3.31388 0.12118,-0.43341 0.40069,-1.13406 0.62115,-1.55699 0.22045,-0.42294 0.40082,-0.84863 0.40082,-0.94596 0,-0.0973 0.13758,-0.50385 0.30574,-0.90337 0.25262,-0.60023 0.32815,-1.05831 0.4348,-2.63735 0.11496,-1.70216 0.10108,-2.14785 -0.12709,-4.07921 -0.28084,-2.37726 -0.61179,-3.48651 -1.38184,-4.63157 -0.22457,-0.33392 -0.50494,-0.81203 -0.62306,-1.06247 -0.11811,-0.25044 -0.26177,-0.45535 -0.31922,-0.45535 -0.0575,0 -0.19599,-0.17758 -0.30784,-0.39463 -0.28089,-0.5451 -2.45581,-2.86396 -3.43125,-3.65834 -0.82207,-0.66947 -2.75265,-1.70585 -3.83929,-2.06101 -1.32984,-0.43464 -3.7562,-0.83641 -5.28201,-0.8746 -0.8348,-0.0209 -1.80433,-0.0742 -2.1545,-0.11842 -0.85112,-0.10753 -4.027904,0.24305 -5.584686,0.6163 -0.6836,0.1639 -1.339298,0.2992 -1.457106,0.30066 -0.390045,0.005 -1.211403,0.45128 -2.908228,1.58067 -3.557781,2.36802 -4.328808,3.38486 -5.700121,7.51732 -0.492878,1.48528 -0.776025,3.48914 -0.879606,6.22515 l -0.09523,2.5154 -0.400592,0.76309 c -0.220324,0.41969 -0.47459,0.97214 -0.565022,1.22765 -0.09044,0.25552 -0.531319,1.01745 -0.979736,1.69319 -0.760834,1.14654 -1.13177,2.03612 -1.13177,2.71424 0,0.29973 0.740954,1.24963 1.136461,1.45696 0.142961,0.0749 0.505824,0.1722 0.806346,0.21614 0.715148,0.10456 1.476996,0.54147 1.67927,0.96305 0.19483,0.40606 0.06058,0.88629 -0.401147,1.43503 -0.168694,0.20048 -0.306717,0.4071 -0.306717,0.45916 0,0.052 0.197877,0.3538 0.439729,0.67054 l 0.43972,0.57589 -0.259305,0.3219 c -0.570754,0.70853 -0.572535,0.78788 -0.03561,1.59194 0.592393,0.88712 0.70987,1.50117 0.505728,2.64348 -0.205582,1.15032 -0.118629,2.4848 0.188438,2.89223 0.480716,0.63782 2.183612,1.0069 5.237431,1.13514 2.077971,0.0873 2.089587,0.0893 2.978463,0.52864 0.790302,0.39059 0.992957,0.56769 1.771855,1.54846 l 0.879491,1.10742 -0.07968,1.31186 c -0.04383,0.72153 -0.04456,1.45182 -0.0014,1.62287 0.126193,0.50279 0.598759,0.55131 1.899282,0.19499 z m -76.495774,-48.95252 -0.0023,-22.79765 h 6.010561 6.010565 l -9.18e-4,0.45535 c -4.59e-4,0.25044 -0.104865,0.89248 -0.231998,1.42675 -0.127129,0.53427 -0.323212,1.54514 -0.435733,2.24638 -0.112525,0.70122 -0.281485,1.54493 -0.375465,1.8749 -0.09398,0.32996 -0.226303,1.09494 -0.294042,1.69995 -0.06774,0.60502 -0.229924,2.05625 -0.360403,3.22497 -0.356314,3.19152 -0.495815,6.33148 -0.404589,9.10692 0.09755,2.96788 0.09028,3.34221 -0.09549,4.91773 -0.268167,2.27431 -0.911332,4.1306 -2.227546,6.42911 -0.502984,0.87836 -1.04389,1.9768 -1.20201,2.44098 -0.435961,1.27981 -2.462495,5.19291 -3.29831,6.36882 -0.213609,0.30052 -0.608047,0.95622 -0.876531,1.4571 -0.268479,0.50089 -0.721963,1.34783 -1.007739,1.8821 -0.285772,0.53427 -0.673986,1.21729 -0.862694,1.51782 l -0.343106,0.54641 z"
       style="fill:#e14624;stroke-width:0.12142552"
       sodipodi:nodetypes="sscscscscccccscccccccscccccccsccccccscccccsccccccsccccccccccccccssccccccssccccccccccsccccccccccccccccccscccccccccccccccccccccccscssccccsccccccccccccccccccscccccccccssccccccccccccccccccccscssccsssccccccccccccccccccccscccccccccccccccccccccccccccccccccccccssccccccccccscccsccccccccccsccccccssccccccscscsccccssccccccccccccccccccccccccccsccccscccccccccccccccscccccccscccccscccccccscsccccsccccsccscccccccccccccccccccscsccccccccc" />
  </g>
</svg>
