<?xml version="1.0" encoding="UTF-8" standalone="no"?>
<!-- Created with Inkscape (http://www.inkscape.org/) -->

<svg
   xmlns:dc="http://purl.org/dc/elements/1.1/"
   xmlns:cc="http://creativecommons.org/ns#"
   xmlns:rdf="http://www.w3.org/1999/02/22-rdf-syntax-ns#"
   xmlns:svg="http://www.w3.org/2000/svg"
   xmlns="http://www.w3.org/2000/svg"
   xmlns:sodipodi="http://sodipodi.sourceforge.net/DTD/sodipodi-0.dtd"
   xmlns:inkscape="http://www.inkscape.org/namespaces/inkscape"
   width="188.34418mm"
   height="161.28525mm"
   viewBox="0 0 188.34418 161.28525"
   version="1.1"
   id="svg3990"
   inkscape:version="0.92.4 (5da689c313, 2019-01-14)"
   sodipodi:docname="face_2.svg">
  <defs
     id="defs3984" />
  <sodipodi:namedview
     id="base"
     pagecolor="#ffffff"
     bordercolor="#666666"
     borderopacity="1.0"
     inkscape:pageopacity="0.0"
     inkscape:pageshadow="2"
     inkscape:zoom="1.979899"
     inkscape:cx="357.53295"
     inkscape:cy="181.02766"
     inkscape:document-units="mm"
     inkscape:current-layer="layer1"
     showgrid="false"
     inkscape:window-width="3838"
     inkscape:window-height="2134"
     inkscape:window-x="0"
     inkscape:window-y="24"
     inkscape:window-maximized="0"
     fit-margin-top="0"
     fit-margin-left="0"
     fit-margin-right="0"
     fit-margin-bottom="0" />
  <metadata
     id="metadata3987">
    <rdf:RDF>
      <cc:Work
         rdf:about="">
        <dc:format>image/svg+xml</dc:format>
        <dc:type
           rdf:resource="http://purl.org/dc/dcmitype/StillImage" />
        <dc:title></dc:title>
      </cc:Work>
    </rdf:RDF>
  </metadata>
  <g
     inkscape:label="Layer 1"
     inkscape:groupmode="layer"
     id="layer1"
     transform="translate(-7.2009848,-53.353619)">
    <path
       style="fill:#e14624;stroke-width:0.45893109"
       d="m 177.02539,-18.183594 c -63.15173,0 -67.02518,0.07718 -67.40234,1.333985 -1.93975,6.469542 -3.81077,14.0402182 -5.09375,20.6035152 -0.84283,4.3115415 -2.34034,10.6541488 -3.32813,14.0957028 -4.294282,14.961396 -6.482388,27.305736 -9.619139,54.261719 -0.82902,7.124455 -1.829789,15.010803 -2.222656,17.525391 -0.392954,2.514519 -0.756486,8.00059 -0.806641,12.191401 -0.05158,4.19086 -0.440228,11.13575 -0.861328,15.43165 -0.764201,7.79365 -0.760889,7.81545 1.207032,10.15429 1.084807,1.28912 2.01779,3.26046 2.074218,4.38086 0.257851,5.1323 -0.355524,9.10714 -1.783203,11.56055 -1.639544,2.81733 -2.792149,12.35974 -2.857422,23.64844 -0.02089,3.61149 -0.572592,7.28666 -1.488281,9.90625 -0.800591,2.2905 -1.87605,6.32025 -2.390625,8.95507 -0.539981,2.76666 -2.047734,6.62859 -3.568359,9.14258 -4.046729,6.6903 -5.482951,9.72819 -7.595704,16.05274 -1.070622,3.20477 -2.889179,7.71259 -4.039062,10.01757 -1.149819,2.3051 -2.68025,6.24088 -3.402344,8.7461 -1.423604,4.9389 -3.142598,7.8064 -6.951172,11.59961 -3.521427,3.50729 -10.658957,14.03258 -14.623046,21.5625 -1.875296,3.5622 -3.848165,6.99244 -4.382813,7.62109 -0.9807,1.15287 -5.484154,9.61394 -14.802734,27.81055 -2.790003,5.44819 -6.160933,11.62135 -7.490235,13.7168 -3.945103,6.21887 -5.496094,11.83153 -5.496094,19.89062 v 7.07813 l 4.761719,4.93554 c 2.619311,2.71393 7.789926,7.17702 11.490235,9.91797 7.011719,5.19379 14.128943,8.0397 22.990234,9.19336 10.067588,1.31104 23.458376,7.30332 30.287109,13.55273 3.902208,3.57113 4.517134,4.54973 5.617188,8.95704 0.908485,3.63976 1.128296,6.96341 0.833984,12.57226 -0.456151,8.6979 -1.573125,13.28861 -5.986328,24.57617 -2.916344,7.45788 -3.101968,8.38653 -2.783203,13.89258 0.401866,6.94144 1.936904,10.35646 7.496094,16.67969 2.074533,2.3596 4.468698,5.59312 5.320312,7.18555 l 1.546875,2.89648 -2.746093,5.22656 c -1.510523,2.87456 -3.992751,6.68348 -5.517579,8.46485 -2.421883,2.82939 -2.771792,3.72861 -2.734375,7.11718 0.06482,6.30743 1.562444,10.18209 5.589844,14.4629 3.728761,3.96332 9.859553,15.63479 12.576172,23.9414 2.04251,6.24563 1.96375,27.45424 -0.130859,35.19531 -3.832808,14.1645 -5.105046,22.3841 -4.433594,28.6543 l 0.523437,4.87305 h 127.587886 127.5879 l -1.24219,-1.89453 c -0.68292,-1.04213 -2.66171,-4.7283 -4.39844,-8.19141 -3.14672,-6.27511 -3.17885,-6.30615 -9.25391,-9.49414 -13.06002,-6.85334 -30.9619,-11.42304 -50.28906,-12.83594 -3.35267,-0.24518 -8.32477,-0.92429 -11.04883,-1.50781 -3.33547,-0.71482 -12.79088,-1.19568 -28.95507,-1.47461 -28.80595,-0.49629 -33.497,-1.15623 -41.39258,-5.82617 -5.71752,-3.38158 -15.1982,-11.89165 -16.89258,-15.16211 -2.33998,-4.51669 -3.40767,-11.92545 -3.56641,-24.76367 -0.14327,-11.56672 0.0286,-13.60287 1.60157,-19.02539 0.96882,-3.33997 2.25438,-6.8262 2.85742,-7.7461 0.60273,-0.91997 1.38295,-4.52558 1.73437,-8.01367 0.72845,-7.22608 -0.61782,-13.20829 -3.96875,-17.62305 -2.24648,-2.95978 -8.13379,-12.65682 -10.37695,-17.09179 -1.1111,-2.19648 -1.62305,-4.62954 -1.62305,-7.71485 0,-5.2478 1.1636,-8.94588 4.53906,-14.43164 1.33633,-2.17202 2.21073,-4.30331 1.94336,-4.73633 -0.26757,-0.43298 -2.33864,-1.97025 -4.60156,-3.41796 -4.27497,-2.73457 -7.4454,-6.84563 -8.14453,-10.5586 -0.54864,-2.91379 0.80241,-7.0318 5.34375,-16.28711 4.29206,-8.74734 5.21602,-13.25267 4.03125,-19.66211 -1.06812,-5.77795 -3.7465,-9.20558 -9.00977,-11.5332 -4.68586,-2.07231 -19.18116,-6.24786 -24.96093,-7.18945 -10.08919,-1.64376 -14.86898,-4.48628 -19.00977,-11.30274 -3.43026,-5.64427 -4.30815,-9.67792 -3.39453,-15.59375 1.33876,-8.66936 3.59233,-14.60745 8.03516,-21.17578 2.36056,-3.48986 6.19163,-9.94535 8.51367,-14.3457 2.3221,-4.40039 5.50476,-9.91335 7.07226,-12.25 3.70045,-5.51634 15.60653,-29.44618 16.73438,-33.63477 0.47986,-1.78204 1.84511,-4.46666 3.0332,-5.96679 2.64384,-3.33808 3.39332,-5.05702 4.96289,-11.35938 0.67379,-2.70554 1.72607,-5.88679 2.33789,-7.07031 1.65379,-3.19816 4.82766,-14.55065 6.12696,-21.91797 0.69517,-3.94326 1.07906,-10.20325 0.98242,-16.00195 -0.19986,-11.97918 0.92754,-25.92216 3.04883,-37.71875 1.03231,-5.74122 1.48335,-10.56091 1.21289,-12.95313 -0.43179,-3.82027 -0.0741,-7.70715 2.20703,-24.001952 2.03714,-14.552039 5.72908,-29.051647 8.48047,-33.310547 0.59941,-0.928252 1.10276,-2.29874 1.11523,-3.046875 0.0454,-2.354744 4.16205,-11.948724 6.97852,-16.265625 1.4869,-2.279127 4.67169,-7.915395 7.07812,-12.52539 7.14036,-13.678625 12.97455,-22.832591 17.96875,-28.1933598 1.95209,-2.0954381 5.53989,-6.72489704 7.97266,-10.2871093 2.43277,-3.5622199 5.73854,-8.0421949 7.3457,-9.9550779 1.60702,-1.91283 2.92188,-3.712605 2.92188,-4 0,-0.287309 -30.15243,-0.523438 -67.00391,-0.523438 z m 152.29297,63.892578 c -51.48322,0 -54.64175,0.0633 -54.94922,1.087891 -1.58134,5.274168 -3.10642,11.44432 -4.15234,16.794922 -0.6871,3.5149 -1.90957,8.686538 -2.71485,11.492187 -3.50083,12.197012 -5.28462,22.26098 -7.84179,44.236326 -0.67585,5.8081 -1.49027,12.23713 -1.81055,14.28711 -0.32035,2.04989 -0.61731,6.52294 -0.6582,9.93946 -0.0421,3.41646 -0.35788,9.07597 -0.70118,12.57812 -0.623,6.35355 -0.61993,6.37264 0.98438,8.2793 0.88437,1.05097 1.64541,2.65886 1.69141,3.57226 0.2102,4.18402 -0.2912,7.4237 -1.45508,9.42383 -1.33661,2.29678 -2.27686,10.07641 -2.33008,19.2793 -0.017,2.94421 -0.46639,5.93859 -1.21289,8.07422 -0.65267,1.86727 -1.52972,5.1528 -1.94922,7.30078 -0.44021,2.25543 -1.66854,5.40555 -2.9082,7.45508 -3.29902,5.45408 -4.47098,7.93002 -6.19336,13.08593 -0.87281,2.61268 -2.3536,6.28691 -3.29102,8.16602 -0.93737,1.87914 -2.18672,5.08848 -2.77539,7.13086 -1.16057,4.02633 -2.56115,6.36466 -5.66601,9.45703 -2.87078,2.85925 -8.69023,11.43949 -11.92188,17.57812 -1.5288,2.904 -3.1364,5.69848 -3.57227,6.21094 -0.79949,0.93982 -4.47156,7.83937 -12.06835,22.67383 -2.2745,4.44151 -5.02178,9.47341 -6.10547,11.18164 -3.21617,5.06982 -4.48047,9.64485 -4.48047,16.21484 v 5.77149 l 3.88281,4.02344 c 2.13534,2.21249 6.35058,5.8514 9.36719,8.08593 5.71617,4.23413 11.51624,6.55361 18.74023,7.49414 8.20741,1.06878 19.12441,5.95414 24.69141,11.04883 3.1812,2.91133 3.68328,3.70781 4.58008,7.30078 0.74062,2.96731 0.91961,5.67749 0.67968,10.25 -0.37186,7.09085 -1.28308,10.83322 -4.88085,20.03516 -2.37748,6.07994 -2.52942,6.83745 -2.26954,11.32617 0.32762,5.65886 1.57931,8.44276 6.11133,13.59766 1.69122,1.92363 3.64363,4.55927 4.33789,5.85742 l 1.26172,2.36133 -2.23828,4.25976 c -1.23142,2.34342 -3.25691,5.45014 -4.5,6.90235 -1.9744,2.30664 -2.25718,3.04028 -2.22656,5.80273 0.0528,5.14201 1.27338,8.30115 4.55664,11.79102 3.0398,3.23104 8.03728,12.74384 10.25195,19.51562 1.66512,5.09163 1.60017,22.38261 -0.10742,28.69336 -3.12462,11.54733 -4.16067,18.24772 -3.61328,23.35938 l 0.42578,3.97265 h 104.01367 104.01367 l -1.01172,-1.54297 c -0.55672,-0.84952 -2.17204,-3.85446 -3.58789,-6.67773 -2.56531,-5.11567 -2.59039,-5.14327 -7.54296,-7.74219 -10.64693,-5.58705 -25.24196,-9.31104 -40.99805,-10.46289 -2.73321,-0.19986 -6.78708,-0.75278 -9.00781,-1.22851 -2.71919,-0.58273 -10.42792,-0.9756 -23.60547,-1.20313 -23.48349,-0.40463 -27.30742,-0.94292 -33.74414,-4.75 -4.66111,-2.75682 -12.38822,-9.69322 -13.76953,-12.35937 -1.90763,-3.68217 -2.7788,-9.7233 -2.90821,-20.18946 -0.11679,-9.42954 0.0224,-11.08915 1.30469,-15.50976 0.78983,-2.72289 1.83846,-5.56452 2.33008,-6.31446 0.49137,-0.74993 1.12757,-3.6896 1.41406,-6.5332 0.59384,-5.89088 -0.50455,-10.76813 -3.23633,-14.36719 -1.8314,-2.41292 -6.63029,-10.31802 -8.45898,-13.93359 -0.9058,-1.79059 -1.32227,-3.77379 -1.32227,-6.28906 0,-4.27816 0.94744,-7.29343 3.69922,-11.76563 1.08941,-1.77067 1.80195,-3.50636 1.58398,-3.85937 -0.21813,-0.35297 -1.90519,-1.60887 -3.75,-2.78907 -3.48507,-2.22927 -6.07067,-5.57855 -6.64062,-8.60546 -0.44727,-2.37544 0.65518,-5.73408 4.35742,-13.2793 3.49902,-7.13106 4.25102,-10.80414 3.28516,-16.0293 -0.87076,-4.71038 -3.05299,-7.50479 -7.34375,-9.40234 -3.82006,-1.68937 -15.63776,-5.09175 -20.34961,-5.85938 -8.22502,-1.33999 -12.12235,-3.65784 -15.49805,-9.21484 -2.79657,-4.60142 -3.51043,-7.89014 -2.76562,-12.71289 1.0914,-7.06753 2.92885,-11.90895 6.55078,-17.26367 1.9244,-2.84504 5.04646,-8.10798 6.93945,-11.69532 1.89305,-3.5873 4.48775,-8.0814 5.76563,-9.98632 3.01672,-4.49707 12.72311,-24.00531 13.64257,-27.41992 0.39121,-1.45278 1.50409,-3.64226 2.47266,-4.86524 2.15534,-2.72133 2.76731,-4.12184 4.04688,-9.25976 0.54928,-2.20562 1.40746,-4.79884 1.90625,-5.76368 1.34821,-2.60723 3.93491,-11.86305 4.99414,-17.86914 0.56672,-3.21464 0.87954,-8.3176 0.80078,-13.04492 -0.16294,-9.76577 0.75503,-21.13115 2.48437,-30.74805 0.84159,-4.68045 1.21073,-8.61038 0.99024,-10.56054 -0.35202,-3.11445 -0.0608,-6.28239 1.79882,-19.56641 1.66074,-11.86325 4.6691,-23.68424 6.91211,-27.15625 0.48866,-0.75673 0.89996,-1.87445 0.91016,-2.48437 0.037,-1.91966 3.39339,-9.74051 5.68945,-13.25977 1.21217,-1.858016 3.80773,-6.45273 5.76954,-10.210938 5.82103,-11.151239 10.57697,-18.614111 14.64843,-22.984374 1.59141,-1.708264 4.51673,-5.482697 6.5,-8.386719 1.98327,-2.90403 4.67807,-6.555794 5.98828,-8.115235 1.3101,-1.559399 2.38086,-3.027425 2.38086,-3.261718 0,-0.234233 -24.57863,-0.425782 -54.62109,-0.425782 z M 442.9707,121.06836 c -38.03565,0 -40.36855,0.0458 -40.5957,0.80273 -1.16829,3.89655 -2.29563,8.4552 -3.06836,12.40821 -0.50763,2.5968 -1.41092,6.41742 -2.00586,8.49023 -2.58641,9.01111 -3.90373,16.4463 -5.79297,32.68164 -0.49931,4.29101 -1.10129,9.04019 -1.33789,10.55469 -0.23667,1.51446 -0.45609,4.81963 -0.48633,7.34375 -0.0311,2.52412 -0.26397,6.70558 -0.51757,9.29297 -0.46028,4.69398 -0.4587,4.70856 0.72656,6.11719 0.65337,0.77646 1.21598,1.96387 1.25,2.63867 0.1553,3.09116 -0.21434,5.48521 -1.07422,6.96289 -0.98748,1.69689 -1.68335,7.44312 -1.72266,14.24219 -0.0126,2.17519 -0.34497,4.38899 -0.89648,5.96679 -0.48219,1.37953 -1.12953,3.80567 -1.43945,5.39258 -0.32523,1.66632 -1.23259,3.99362 -2.14844,5.50781 -2.43731,4.02947 -3.30368,5.85881 -4.57617,9.66797 -0.64483,1.93028 -1.73908,4.64495 -2.43164,6.03321 -0.69253,1.38829 -1.61392,3.75867 -2.04883,5.26757 -0.85743,2.97464 -1.89363,4.70172 -4.1875,6.98633 -2.12092,2.11242 -6.41912,8.45308 -8.80664,12.98828 -1.12947,2.14549 -2.31861,4.2093 -2.64063,4.58789 -0.59066,0.69434 -3.30352,5.79231 -8.91601,16.75196 -1.68039,3.28138 -3.70914,6.9977 -4.50977,8.25976 -2.3761,3.74555 -3.31055,7.12657 -3.31055,11.98047 v 4.26367 l 2.86719,2.97266 c 1.57759,1.63457 4.69322,4.3218 6.92188,5.97265 4.22309,3.12817 8.50864,4.84221 13.8457,5.53711 6.06361,0.78955 14.1293,4.40011 18.24219,8.16407 2.35026,2.15089 2.72026,2.74005 3.38281,5.39453 0.54716,2.19228 0.67921,4.19412 0.50195,7.57226 -0.27473,5.23869 -0.94744,8.00244 -3.60547,14.80079 -1.75646,4.49185 -1.86778,5.05095 -1.67578,8.36718 0.24204,4.18076 1.16543,6.23844 4.51367,10.04688 1.24948,1.42118 2.69216,3.36907 3.20508,4.32812 l 0.93164,1.74414 -1.65429,3.14649 c -0.90977,1.73129 -2.40388,4.02671 -3.32227,5.09961 -1.45871,1.70415 -1.66916,2.24624 -1.64648,4.28711 0.039,3.79895 0.94152,6.13265 3.36718,8.71093 2.2458,2.38712 5.93803,9.41501 7.57422,14.41797 1.23016,3.76169 1.18149,16.53683 -0.0801,21.19922 -2.30846,8.53111 -3.07433,13.48135 -2.66992,17.25781 l 0.31446,2.93555 h 76.8457 76.8457 l -0.74805,-1.14062 c -0.41125,-0.62763 -1.6044,-2.84775 -2.65039,-4.9336 -1.89524,-3.77941 -1.91334,-3.79867 -5.57226,-5.71875 -7.86595,-4.1277 -18.6485,-6.88142 -30.28906,-7.73242 -2.01925,-0.14763 -5.0156,-0.55475 -6.65625,-0.90625 -2.00894,-0.43049 -7.70197,-0.72086 -17.4375,-0.88867 -17.34951,-0.29896 -20.17621,-0.69708 -24.93164,-3.50977 -3.44361,-2.03675 -9.15332,-7.16108 -10.17383,-9.13086 -1.40935,-2.72035 -2.05086,-7.18363 -2.14649,-14.91601 -0.0863,-6.9665 0.0155,-8.19302 0.96289,-11.45899 0.58353,-2.01165 1.35749,-4.11002 1.72071,-4.66406 0.36302,-0.55404 0.83522,-2.72727 1.04687,-4.82812 0.43873,-4.35217 -0.37435,-7.95431 -2.39258,-10.61329 -1.35303,-1.78265 -4.89897,-7.6237 -6.25,-10.29492 -0.6692,-1.32287 -0.97656,-2.7882 -0.97656,-4.64648 0,-3.16071 0.70137,-5.38738 2.73438,-8.69141 0.80485,-1.30817 1.33093,-2.59077 1.16992,-2.85156 -0.16116,-0.26083 -1.40855,-1.18869 -2.77149,-2.06055 -2.57476,-1.64704 -4.48517,-4.12111 -4.90625,-6.35742 -0.33044,-1.75495 0.48355,-4.23616 3.21875,-9.81055 2.58509,-5.26836 3.14131,-7.98146 2.42774,-11.84179 -0.64332,-3.48 -2.25578,-5.54537 -5.42578,-6.94727 -2.82225,-1.24811 -11.55211,-3.76296 -15.03321,-4.33008 -6.07661,-0.98997 -8.95721,-2.70113 -11.45117,-6.80664 -2.06615,-3.39953 -2.59323,-5.8295 -2.04297,-9.39258 0.80633,-5.22145 2.16398,-8.79783 4.83985,-12.7539 1.42174,-2.10191 3.72841,-5.99031 5.12695,-8.64063 1.39858,-2.65031 3.31568,-5.96957 4.25977,-7.37695 2.22875,-3.32239 9.39883,-17.73509 10.07812,-20.25781 0.28902,-1.07335 1.11059,-2.69221 1.82617,-3.59571 1.59236,-2.01055 2.0449,-3.04398 2.99024,-6.83984 0.4058,-1.6295 1.0397,-3.54695 1.4082,-4.25977 0.99606,-1.92623 2.9069,-8.76385 3.68945,-13.20117 0.4187,-2.37494 0.65196,-6.14413 0.59375,-9.63672 -0.12037,-7.21489 0.55831,-15.61185 1.83594,-22.71679 0.62177,-3.45793 0.89337,-6.36191 0.73047,-7.80274 -0.26007,-2.3009 -0.0458,-4.6428 1.32812,-14.45703 1.22695,-8.76453 3.45029,-17.49542 5.10743,-20.06055 0.36102,-0.55906 0.66431,-1.38534 0.67187,-1.83593 0.0274,-1.41827 2.5068,-7.19686 4.20313,-9.79688 0.89556,-1.37268 2.81429,-4.7684 4.26367,-7.54492 4.30057,-8.23853 7.81436,-13.75173 10.82226,-16.98047 1.17578,-1.26206 3.33558,-4.04982 4.80078,-6.19531 1.46525,-2.14549 3.45586,-4.84398 4.42383,-5.99609 0.96794,-1.15208 1.76172,-2.23511 1.76172,-2.40821 0,-0.1731 -18.16019,-0.31445 -40.35547,-0.31445 z m 155.31641,30.60937 c -19.12418,-0.0105 -22.12088,0.20245 -26.875,1.91797 -3.76864,1.35995 -5.96855,1.77399 -14.72266,2.76563 -3.6336,0.41159 -4.30803,0.65882 -8.03125,2.9375 -8.34054,5.10463 -12.8248,7.60893 -14.16211,7.91015 -0.98097,0.22107 -3.93122,2.90107 -10.26367,9.32422 -7.95549,8.06945 -12.91211,13.64882 -12.91211,14.53516 0,0.17204 -0.49614,0.90315 -1.10351,1.625 -1.27525,1.51551 -7.35081,13.43014 -9.15039,17.94531 -1.12294,2.81764 -3.00119,9.8661 -4,15.00977 -0.22659,1.16666 -0.71763,3.66941 -1.0918,5.5625 -0.37425,1.89309 -0.68788,5.45189 -0.69922,7.9082 -0.0193,4.72902 -0.58031,9.34856 -1.68945,13.91211 -0.53178,2.18729 -0.57252,3.39948 -0.19336,5.73633 0.65832,4.05842 0.59738,7.49695 -0.19141,10.76367 -0.36563,1.51446 -0.67408,3.39459 -0.68164,4.17578 -0.01,0.82352 -0.40446,1.76975 -0.93945,2.25391 -0.50752,0.45929 -1.31104,2.09742 -1.78711,3.63867 -0.94273,3.05227 -2.05119,5.41725 -6.45899,13.79687 -2.58153,4.90783 -4.10804,7.60284 -8.79492,15.51758 -0.71928,1.21467 -1.7243,4.00243 -2.23242,6.19532 -0.50812,2.19288 -1.07696,4.50373 -1.26367,5.13476 -0.18747,0.63103 -0.27639,1.87968 -0.20117,2.77539 0.19744,2.34822 1.75774,3.09502 9.67578,4.62305 7.34109,1.41668 11.08134,3.74215 12.6582,7.87109 1.1684,3.05945 0.7947,6.43743 -1.11328,10.07031 -1.96694,3.74544 -2.02464,5.667 -0.23828,7.91211 3.35781,4.22015 3.73933,5.69399 1.80273,6.96289 -1.20623,0.79038 -2.5,2.84958 -2.5,3.97852 0,0.35199 0.85714,1.96143 1.9043,3.57812 3.84249,5.93231 5.53646,9.64143 5.78516,12.66407 0.22964,2.79004 -0.53752,7.40821 -2,12.04297 -0.86465,2.74034 -0.79584,5.57276 0.23242,9.53125 0.98861,3.8059 2.17396,5.9215 4.42773,7.90039 2.67568,2.34924 4.10768,2.83624 9.54102,3.25195 2.81639,0.21551 6.12857,0.62146 7.35937,0.90039 1.23084,0.27904 5.3603,0.5074 9.17774,0.50781 7.51763,7.2e-4 15.48342,0.92736 19.53515,2.27344 9.13822,3.03594 10.40063,3.81982 14.96289,9.29492 3.75292,4.50376 4.54572,6.25649 5.23829,11.57617 0.29574,2.27173 0.82541,5.16373 1.17578,6.42579 0.35032,1.26206 0.87423,4.98037 1.16601,8.26171 0.29171,3.28135 0.72308,6.32673 0.95703,6.76954 0.45899,0.86815 -0.16219,0.87682 10.25782,-0.11719 2.52412,-0.24076 5.51843,-0.52384 6.65429,-0.62891 1.13586,-0.10503 4.51033,-0.6313 7.49805,-1.16992 2.98775,-0.53862 6.08634,-0.86155 6.88477,-0.7168 0.87129,0.1581 5.21026,-0.48802 10.85351,-1.61523 6.21479,-1.24139 9.96597,-1.78323 11.06445,-1.59766 1.04285,0.1762 4.29466,-0.22743 8.72657,-1.08398 3.88463,-0.75077 8.61081,-1.6088 10.5039,-1.90625 1.89309,-0.29745 4.43316,-0.72881 5.64453,-0.95899 1.21138,-0.23009 3.2771,-0.41751 4.58985,-0.41797 1.3127,-6.4e-4 5.17445,-0.41263 8.58203,-0.91406 3.40755,-0.50143 8.92284,-1.04741 12.25586,-1.21484 4.98047,-0.25036 6.36925,-0.48152 7.80078,-1.29102 1.34854,-0.76263 1.7217,-1.23849 1.64648,-2.10937 -0.37262,-4.32276 -3.05203,-17.3438 -4.32421,-21.01758 -0.49433,-1.42734 -1.18921,-5.2792 -1.54297,-8.56055 -0.35396,-3.28134 -0.98757,-7.98614 -1.41016,-10.45508 -0.70753,-4.13238 -0.71174,-4.80678 -0.0449,-8.49023 0.39836,-2.2007 0.94826,-6.27231 1.22265,-9.04883 0.55677,-5.63134 0.7844,-6.66263 2.97657,-13.53906 0.84491,-2.65028 1.6777,-5.64467 1.85156,-6.6543 0.72544,-4.211 4.83079,-13.63198 13.67383,-31.3789 5.15856,-10.3527 10.13853,-20.63698 11.0664,-22.85352 0.92788,-2.21658 2.37201,-5.06783 3.20899,-6.33594 2.32717,-3.52603 3.18915,-5.45021 5.45312,-12.17187 2.4779,-7.3567 4.11728,-13.24439 5.43164,-19.50586 0.77178,-3.67582 0.93023,-5.77616 0.79493,-10.55469 -0.0926,-3.28135 -0.1076,-9.12579 -0.0312,-12.98828 0.16187,-8.2134 -0.67051,-14.25012 -2.76172,-20.00195 -0.74483,-2.0487 -1.66225,-4.85975 -2.03907,-6.24805 -0.82832,-3.05144 -2.33692,-5.72814 -4.2539,-7.55078 -0.7838,-0.74525 -1.64294,-2.16769 -1.91016,-3.16016 -0.83233,-3.09105 -7.20389,-15.59665 -8.80664,-17.28515 -1.34464,-1.41661 -2.89512,-3.63123 -5.54101,-7.91797 -0.42902,-0.69506 -3.1486,-3.03461 -6.04493,-5.19922 -2.89632,-2.16461 -5.26562,-4.11231 -5.26562,-4.32813 0,-0.59799 -9.08265,-7.49986 -12.42383,-9.4414 -1.62338,-0.94333 -3.49306,-2.16325 -4.15625,-2.71094 -0.66315,-0.54769 -2.52229,-1.4783 -4.13086,-2.06836 -1.60853,-0.59006 -4.65541,-1.76099 -6.76953,-2.60156 -2.11415,-0.84057 -4.18196,-1.5293 -4.5957,-1.5293 -0.41371,0 -1.51874,-0.41026 -2.45508,-0.91211 -2.13415,-1.14383 -7.39912,-2.5675 -13.6875,-3.70117 -2.6665,-0.48072 -5.73782,-1.18826 -6.82617,-1.57227 -1.08839,-0.38407 -3.49587,-0.69726 -5.34961,-0.69726 -1.85371,0 -5.59538,-0.33903 -8.31641,-0.75391 -3.71875,-0.56696 -8.25401,-0.75794 -18.25781,-0.76172 z m 0.59375,67.28321 c 0.64766,-9e-5 1.18774,0.0234 1.58984,0.0742 1.32348,0.16713 4.98743,0.37022 8.14258,0.44922 5.76684,0.14434 14.93672,1.66195 19.96289,3.30468 4.10699,1.34234 11.40468,5.25878 14.51172,7.78906 3.6867,3.00239 11.90712,11.76791 12.96875,13.82813 0.42274,0.82035 0.94674,1.49023 1.16406,1.49023 0.21714,0 0.75868,0.77416 1.20508,1.72071 0.44644,0.94654 1.5067,2.75356 2.35547,4.01562 2.91043,4.32779 4.16121,8.52094 5.22266,17.50586 0.86237,7.29963 0.91496,8.98461 0.48047,15.41797 -0.40309,5.96803 -0.68975,7.69821 -1.64454,9.9668 -0.63556,1.50999 -1.15429,3.04827 -1.15429,3.41601 0,0.36786 -0.68243,1.97571 -1.51563,3.57422 -0.83323,1.59848 -1.88965,4.24668 -2.34765,5.88477 -0.90645,3.24193 -4.19639,10.18208 -5.9375,12.52539 -1.29457,1.74228 -6.40048,12.25051 -7.06836,14.54687 -0.25697,0.88343 -0.70142,2.74826 -0.98829,4.14453 -0.28667,1.39624 -1.2395,3.9665 -2.11718,5.71094 l -1.59571,3.17188 v 9.4414 c 0,8.61411 0.0818,9.58205 0.92188,11.04102 2.01275,3.49561 2.01098,3.492 1.39258,6.76953 -0.50582,2.67995 -0.48385,3.50534 0.15625,6.00391 1.01008,3.94284 0.98211,4.08525 -0.97852,4.91406 -1.2918,0.5461 -3.03841,0.70343 -7,0.63086 -4.30696,-0.079 -6.58557,0.16203 -12.39062,1.30859 -3.91238,0.77269 -8.04188,1.74624 -9.17774,2.16406 -1.43028,0.5277 -2.799,0.67821 -4.44922,0.49414 -1.31051,-0.14626 -3.37428,-0.0607 -4.58789,0.18946 -1.21364,0.2502 -4.58162,0.54311 -7.48437,0.65234 -3.32823,0.12511 -6.54961,0.54796 -8.7207,1.14258 -4.91385,1.34613 -6.69887,1.16177 -7.17579,-0.73828 -0.16478,-0.64649 -0.16163,-3.40577 0.004,-6.13281 l 0.30078,-4.95899 -3.32422,-4.18554 c -2.94387,-3.70685 -3.70835,-4.37532 -6.69531,-5.85157 -3.35955,-1.6605 -3.40407,-1.66809 -11.25781,-1.99804 -11.542,-0.48469 -17.97803,-1.88036 -19.79492,-4.29102 -1.16055,-1.53989 -1.48989,-6.58397 -0.7129,-10.93164 0.7716,-4.31739 0.3288,-6.63734 -1.91015,-9.99023 -2.02938,-3.03897 -2.02439,-3.33967 0.13281,-6.01758 l 0.98047,-1.2168 -1.66211,-2.17578 c -0.91408,-1.19713 -1.66211,-2.33862 -1.66211,-2.53516 0,-0.19676 0.52259,-0.97665 1.16016,-1.73437 1.74519,-2.07398 2.25199,-3.88912 1.51562,-5.42383 -0.76452,-1.59337 -3.64281,-3.24544 -6.3457,-3.64063 -1.13586,-0.16607 -2.50851,-0.53332 -3.04883,-0.8164 -1.49484,-0.78361 -4.29492,-4.37302 -4.29492,-5.50586 0,-2.56297 1.40177,-5.92639 4.27734,-10.25977 1.69482,-2.55397 3.36146,-5.43269 3.70313,-6.39843 0.34178,-0.96571 1.30202,-3.0544 2.13476,-4.64063 l 1.51563,-2.88281 0.35937,-9.50781 c 0.39149,-10.34083 1.46137,-17.91369 3.32422,-23.52735 5.18291,-15.61874 8.09624,-19.46211 21.54297,-28.41211 6.41318,-4.26856 9.51802,-5.95571 10.99219,-5.97461 0.44526,-0.006 2.92413,-0.51725 5.50781,-1.13672 5.14841,-1.23437 14.98394,-2.40365 19.51758,-2.40429 z"
       transform="matrix(0.26458333,0,0,0.26458333,4.5282799,58.164695)"
       id="path3913"
       inkscape:connector-curvature="0" />
  </g>
</svg>
