solid OpenSCAD_Model
  facet normal 1 -0 0
    outer loop
      vertex 29.5 -9.5 2
      vertex 29.5 9.5 0.0999994
      vertex 29.5 9.5 2
    endloop
  endfacet
  facet normal 1 0 0
    outer loop
      vertex 29.5 9.5 0.0999994
      vertex 29.5 -9.5 2
      vertex 29.5 -9.5 0.0999994
    endloop
  endfacet
  facet normal 0 0 -1
    outer loop
      vertex -29 -9.5 0.0999994
      vertex 29.5 9.5 0.0999994
      vertex 29.5 -9.5 0.0999994
    endloop
  endfacet
  facet normal 0 0 -1
    outer loop
      vertex -29 -9.5 0.0999994
      vertex -29 9.5 0.0999994
      vertex 29.5 9.5 0.0999994
    endloop
  endfacet
  facet normal 0 0 -1
    outer loop
      vertex -32.1608 -1.76497 0.0999994
      vertex -29 -9.5 0.0999994
      vertex -29.993 -9.44795 0.0999994
    endloop
  endfacet
  facet normal 0 0 -1
    outer loop
      vertex -29 -9.5 0.0999994
      vertex -31.375 0 0.0999994
      vertex -29 9.5 0.0999994
    endloop
  endfacet
  facet normal 0 0 -1
    outer loop
      vertex -32.354 -1.9214 0.0999994
      vertex -29.993 -9.44795 0.0999994
      vertex -30.9752 -9.29239 0.0999994
    endloop
  endfacet
  facet normal 0 0 -1
    outer loop
      vertex -31.388 0.248245 0.0999994
      vertex -29 9.5 0.0999994
      vertex -31.375 0 0.0999994
    endloop
  endfacet
  facet normal 0 0 -1
    outer loop
      vertex -31.4269 0.49379 0.0999994
      vertex -29 9.5 0.0999994
      vertex -31.388 0.248245 0.0999994
    endloop
  endfacet
  facet normal 0 0 -1
    outer loop
      vertex -29 -9.5 0.0999994
      vertex -31.388 -0.248245 0.0999994
      vertex -31.375 0 0.0999994
    endloop
  endfacet
  facet normal 0 0 -1
    outer loop
      vertex -29 -9.5 0.0999994
      vertex -31.4269 -0.49379 0.0999994
      vertex -31.388 -0.248245 0.0999994
    endloop
  endfacet
  facet normal 0 0 -1
    outer loop
      vertex -29 -9.5 0.0999994
      vertex -31.4912 -0.733902 0.0999994
      vertex -31.4269 -0.49379 0.0999994
    endloop
  endfacet
  facet normal 0 0 -1
    outer loop
      vertex -29 -9.5 0.0999994
      vertex -31.5803 -0.965988 0.0999994
      vertex -31.4912 -0.733902 0.0999994
    endloop
  endfacet
  facet normal 0 0 -1
    outer loop
      vertex -29 -9.5 0.0999994
      vertex -31.6932 -1.1875 0.0999994
      vertex -31.5803 -0.965988 0.0999994
    endloop
  endfacet
  facet normal 0 0 -1
    outer loop
      vertex -29 -9.5 0.0999994
      vertex -31.8286 -1.39598 0.0999994
      vertex -31.6932 -1.1875 0.0999994
    endloop
  endfacet
  facet normal 0 0 -1
    outer loop
      vertex -32.5625 -2.05681 0.0999994
      vertex -30.9752 -9.29239 0.0999994
      vertex -31.9357 -9.03503 0.0999994
    endloop
  endfacet
  facet normal 0 0 -1
    outer loop
      vertex -29 -9.5 0.0999994
      vertex -31.985 -1.58917 0.0999994
      vertex -31.8286 -1.39598 0.0999994
    endloop
  endfacet
  facet normal 0 0 -1
    outer loop
      vertex -29 -9.5 0.0999994
      vertex -32.1608 -1.76497 0.0999994
      vertex -31.985 -1.58917 0.0999994
    endloop
  endfacet
  facet normal 0 0 -1
    outer loop
      vertex -29.993 -9.44795 0.0999994
      vertex -32.354 -1.9214 0.0999994
      vertex -32.1608 -1.76497 0.0999994
    endloop
  endfacet
  facet normal 0 0 -1
    outer loop
      vertex -30.9752 -9.29239 0.0999994
      vertex -32.5625 -2.05681 0.0999994
      vertex -32.354 -1.9214 0.0999994
    endloop
  endfacet
  facet normal 0 0 -1
    outer loop
      vertex -31.9357 -9.03503 0.0999994
      vertex -32.784 -2.16966 0.0999994
      vertex -32.5625 -2.05681 0.0999994
    endloop
  endfacet
  facet normal 0 0 -1
    outer loop
      vertex -32.864 -8.67868 0.0999994
      vertex -32.784 -2.16966 0.0999994
      vertex -31.9357 -9.03503 0.0999994
    endloop
  endfacet
  facet normal 0 0 -1
    outer loop
      vertex -32.864 -8.67868 0.0999994
      vertex -33.0161 -2.25876 0.0999994
      vertex -32.784 -2.16966 0.0999994
    endloop
  endfacet
  facet normal 0 0 -1
    outer loop
      vertex -33.75 -8.22723 0.0999994
      vertex -33.0161 -2.25876 0.0999994
      vertex -32.864 -8.67868 0.0999994
    endloop
  endfacet
  facet normal 0 0 -1
    outer loop
      vertex -33.0161 -2.25876 0.0999994
      vertex -33.75 -8.22723 0.0999994
      vertex -33.2562 -2.32309 0.0999994
    endloop
  endfacet
  facet normal 0 0 -1
    outer loop
      vertex -34.584 -7.68565 0.0999994
      vertex -33.2562 -2.32309 0.0999994
      vertex -33.75 -8.22723 0.0999994
    endloop
  endfacet
  facet normal 0 0 -1
    outer loop
      vertex -33.2562 -2.32309 0.0999994
      vertex -34.584 -7.68565 0.0999994
      vertex -33.5017 -2.36198 0.0999994
    endloop
  endfacet
  facet normal 0 0 -1
    outer loop
      vertex -35.3567 -7.05988 0.0999994
      vertex -33.5017 -2.36198 0.0999994
      vertex -34.584 -7.68565 0.0999994
    endloop
  endfacet
  facet normal 0 0 -1
    outer loop
      vertex -33.5017 -2.36198 0.0999994
      vertex -35.3567 -7.05988 0.0999994
      vertex -33.75 -2.375 0.0999994
    endloop
  endfacet
  facet normal 0 0 -1
    outer loop
      vertex -36.0599 -6.35674 0.0999994
      vertex -33.75 -2.375 0.0999994
      vertex -35.3567 -7.05988 0.0999994
    endloop
  endfacet
  facet normal -0 0 -1
    outer loop
      vertex -33.75 -2.375 0.0999994
      vertex -36.0599 -6.35674 0.0999994
      vertex -33.9982 -2.36198 0.0999994
    endloop
  endfacet
  facet normal -0 0 -1
    outer loop
      vertex -33.9982 -2.36198 0.0999994
      vertex -36.0599 -6.35674 0.0999994
      vertex -34.2438 -2.32309 0.0999994
    endloop
  endfacet
  facet normal 0 0 -1
    outer loop
      vertex -36.6857 -5.58395 0.0999994
      vertex -34.2438 -2.32309 0.0999994
      vertex -36.0599 -6.35674 0.0999994
    endloop
  endfacet
  facet normal -0 0 -1
    outer loop
      vertex -34.2438 -2.32309 0.0999994
      vertex -36.6857 -5.58395 0.0999994
      vertex -34.4839 -2.25876 0.0999994
    endloop
  endfacet
  facet normal -0 0 -1
    outer loop
      vertex -34.4839 -2.25876 0.0999994
      vertex -36.6857 -5.58395 0.0999994
      vertex -34.716 -2.16966 0.0999994
    endloop
  endfacet
  facet normal 0 0 -1
    outer loop
      vertex -37.2272 -4.75 0.0999994
      vertex -34.716 -2.16966 0.0999994
      vertex -36.6857 -5.58395 0.0999994
    endloop
  endfacet
  facet normal -0 0 -1
    outer loop
      vertex -34.716 -2.16966 0.0999994
      vertex -37.2272 -4.75 0.0999994
      vertex -34.9375 -2.05681 0.0999994
    endloop
  endfacet
  facet normal 0 0 -1
    outer loop
      vertex -37.6787 -3.86398 0.0999994
      vertex -34.9375 -2.05681 0.0999994
      vertex -37.2272 -4.75 0.0999994
    endloop
  endfacet
  facet normal -0 0 -1
    outer loop
      vertex -34.9375 -2.05681 0.0999994
      vertex -37.6787 -3.86398 0.0999994
      vertex -35.146 -1.9214 0.0999994
    endloop
  endfacet
  facet normal -0 0 -1
    outer loop
      vertex -35.146 -1.9214 0.0999994
      vertex -37.6787 -3.86398 0.0999994
      vertex -35.3392 -1.76497 0.0999994
    endloop
  endfacet
  facet normal 0 0 -1
    outer loop
      vertex -38.035 -2.93565 0.0999994
      vertex -35.3392 -1.76497 0.0999994
      vertex -37.6787 -3.86398 0.0999994
    endloop
  endfacet
  facet normal -0 0 -1
    outer loop
      vertex -35.3392 -1.76497 0.0999994
      vertex -38.035 -2.93565 0.0999994
      vertex -35.515 -1.58917 0.0999994
    endloop
  endfacet
  facet normal -0 0 -1
    outer loop
      vertex -35.515 -1.58917 0.0999994
      vertex -38.035 -2.93565 0.0999994
      vertex -35.6714 -1.39598 0.0999994
    endloop
  endfacet
  facet normal 0 0 -1
    outer loop
      vertex -38.2924 -1.97516 0.0999994
      vertex -35.6714 -1.39598 0.0999994
      vertex -38.035 -2.93565 0.0999994
    endloop
  endfacet
  facet normal -0 0 -1
    outer loop
      vertex -35.6714 -1.39598 0.0999994
      vertex -38.2924 -1.97516 0.0999994
      vertex -35.8068 -1.1875 0.0999994
    endloop
  endfacet
  facet normal -0 0 -1
    outer loop
      vertex -35.8068 -1.1875 0.0999994
      vertex -38.2924 -1.97516 0.0999994
      vertex -35.9197 -0.965988 0.0999994
    endloop
  endfacet
  facet normal 0 0 -1
    outer loop
      vertex -31.4912 0.733902 0.0999994
      vertex -29 9.5 0.0999994
      vertex -31.4269 0.49379 0.0999994
    endloop
  endfacet
  facet normal 0 0 -1
    outer loop
      vertex -31.5803 0.965988 0.0999994
      vertex -29 9.5 0.0999994
      vertex -31.4912 0.733902 0.0999994
    endloop
  endfacet
  facet normal 0 0 -1
    outer loop
      vertex -31.6932 1.1875 0.0999994
      vertex -29 9.5 0.0999994
      vertex -31.5803 0.965988 0.0999994
    endloop
  endfacet
  facet normal 0 0 -1
    outer loop
      vertex -31.8286 1.39598 0.0999994
      vertex -29 9.5 0.0999994
      vertex -31.6932 1.1875 0.0999994
    endloop
  endfacet
  facet normal 0 0 -1
    outer loop
      vertex -31.985 1.58917 0.0999994
      vertex -29 9.5 0.0999994
      vertex -31.8286 1.39598 0.0999994
    endloop
  endfacet
  facet normal 0 0 -1
    outer loop
      vertex -32.1608 1.76497 0.0999994
      vertex -29 9.5 0.0999994
      vertex -31.985 1.58917 0.0999994
    endloop
  endfacet
  facet normal 0 0 -1
    outer loop
      vertex -29 9.5 0.0999994
      vertex -32.1608 1.76497 0.0999994
      vertex -29.993 9.44795 0.0999994
    endloop
  endfacet
  facet normal 0 0 -1
    outer loop
      vertex -32.354 1.9214 0.0999994
      vertex -29.993 9.44795 0.0999994
      vertex -32.1608 1.76497 0.0999994
    endloop
  endfacet
  facet normal 0 0 -1
    outer loop
      vertex -29.993 9.44795 0.0999994
      vertex -32.354 1.9214 0.0999994
      vertex -30.9752 9.29239 0.0999994
    endloop
  endfacet
  facet normal 0 0 -1
    outer loop
      vertex -32.5625 2.05681 0.0999994
      vertex -30.9752 9.29239 0.0999994
      vertex -32.354 1.9214 0.0999994
    endloop
  endfacet
  facet normal 0 0 -1
    outer loop
      vertex -30.9752 9.29239 0.0999994
      vertex -32.5625 2.05681 0.0999994
      vertex -31.9357 9.03503 0.0999994
    endloop
  endfacet
  facet normal 0 0 -1
    outer loop
      vertex -32.784 2.16966 0.0999994
      vertex -31.9357 9.03503 0.0999994
      vertex -32.5625 2.05681 0.0999994
    endloop
  endfacet
  facet normal 0 0 -1
    outer loop
      vertex -32.784 2.16966 0.0999994
      vertex -32.864 8.67868 0.0999994
      vertex -31.9357 9.03503 0.0999994
    endloop
  endfacet
  facet normal 0 0 -1
    outer loop
      vertex -33.0161 2.25876 0.0999994
      vertex -32.864 8.67868 0.0999994
      vertex -32.784 2.16966 0.0999994
    endloop
  endfacet
  facet normal 0 0 -1
    outer loop
      vertex -33.75 8.22723 0.0999994
      vertex -33.0161 2.25876 0.0999994
      vertex -33.2562 2.32309 0.0999994
    endloop
  endfacet
  facet normal 0 0 -1
    outer loop
      vertex -34.584 7.68565 0.0999994
      vertex -33.2562 2.32309 0.0999994
      vertex -33.5017 2.36198 0.0999994
    endloop
  endfacet
  facet normal 0 0 -1
    outer loop
      vertex -35.3567 7.05988 0.0999994
      vertex -33.5017 2.36198 0.0999994
      vertex -33.75 2.375 0.0999994
    endloop
  endfacet
  facet normal 0 0 -1
    outer loop
      vertex -33.0161 2.25876 0.0999994
      vertex -33.75 8.22723 0.0999994
      vertex -32.864 8.67868 0.0999994
    endloop
  endfacet
  facet normal 0 0 -1
    outer loop
      vertex -36.0599 6.35674 0.0999994
      vertex -33.75 2.375 0.0999994
      vertex -33.9982 2.36198 0.0999994
    endloop
  endfacet
  facet normal 0 0 -1
    outer loop
      vertex -36.0599 6.35674 0.0999994
      vertex -33.9982 2.36198 0.0999994
      vertex -34.2438 2.32309 0.0999994
    endloop
  endfacet
  facet normal 0 0 -1
    outer loop
      vertex -36.6857 5.58395 0.0999994
      vertex -34.2438 2.32309 0.0999994
      vertex -34.4839 2.25876 0.0999994
    endloop
  endfacet
  facet normal 0 0 -1
    outer loop
      vertex -33.2562 2.32309 0.0999994
      vertex -34.584 7.68565 0.0999994
      vertex -33.75 8.22723 0.0999994
    endloop
  endfacet
  facet normal 0 0 -1
    outer loop
      vertex -36.6857 5.58395 0.0999994
      vertex -34.4839 2.25876 0.0999994
      vertex -34.716 2.16966 0.0999994
    endloop
  endfacet
  facet normal 0 0 -1
    outer loop
      vertex -37.2272 4.75 0.0999994
      vertex -34.716 2.16966 0.0999994
      vertex -34.9375 2.05681 0.0999994
    endloop
  endfacet
  facet normal 0 0 -1
    outer loop
      vertex -37.6787 3.86398 0.0999994
      vertex -34.9375 2.05681 0.0999994
      vertex -35.146 1.9214 0.0999994
    endloop
  endfacet
  facet normal 0 0 -1
    outer loop
      vertex -37.6787 3.86398 0.0999994
      vertex -35.146 1.9214 0.0999994
      vertex -35.3392 1.76497 0.0999994
    endloop
  endfacet
  facet normal 0 0 -1
    outer loop
      vertex -33.5017 2.36198 0.0999994
      vertex -35.3567 7.05988 0.0999994
      vertex -34.584 7.68565 0.0999994
    endloop
  endfacet
  facet normal 0 0 -1
    outer loop
      vertex -38.035 2.93565 0.0999994
      vertex -35.3392 1.76497 0.0999994
      vertex -35.515 1.58917 0.0999994
    endloop
  endfacet
  facet normal 0 0 -1
    outer loop
      vertex -38.035 2.93565 0.0999994
      vertex -35.515 1.58917 0.0999994
      vertex -35.6714 1.39598 0.0999994
    endloop
  endfacet
  facet normal 0 0 -1
    outer loop
      vertex -38.2924 1.97516 0.0999994
      vertex -35.6714 1.39598 0.0999994
      vertex -35.8068 1.1875 0.0999994
    endloop
  endfacet
  facet normal 0 0 -1
    outer loop
      vertex -38.2924 1.97516 0.0999994
      vertex -35.8068 1.1875 0.0999994
      vertex -35.9197 0.965988 0.0999994
    endloop
  endfacet
  facet normal 0 0 -1
    outer loop
      vertex -38.2924 1.97516 0.0999994
      vertex -35.9197 0.965988 0.0999994
      vertex -36.0088 0.733902 0.0999994
    endloop
  endfacet
  facet normal 0 0 -1
    outer loop
      vertex -33.75 2.375 0.0999994
      vertex -36.0599 6.35674 0.0999994
      vertex -35.3567 7.05988 0.0999994
    endloop
  endfacet
  facet normal 0 0 -1
    outer loop
      vertex -38.448 0.993011 0.0999994
      vertex -36.0088 0.733902 0.0999994
      vertex -36.0731 0.49379 0.0999994
    endloop
  endfacet
  facet normal 0 0 -1
    outer loop
      vertex -38.448 0.993011 0.0999994
      vertex -36.0731 0.49379 0.0999994
      vertex -36.112 0.248245 0.0999994
    endloop
  endfacet
  facet normal 0 0 -1
    outer loop
      vertex -38.5 0 0.0999994
      vertex -36.112 0.248245 0.0999994
      vertex -36.125 0 0.0999994
    endloop
  endfacet
  facet normal -0 0 -1
    outer loop
      vertex -35.9197 -0.965988 0.0999994
      vertex -38.2924 -1.97516 0.0999994
      vertex -36.0088 -0.733902 0.0999994
    endloop
  endfacet
  facet normal 0 0 -1
    outer loop
      vertex -34.2438 2.32309 0.0999994
      vertex -36.6857 5.58395 0.0999994
      vertex -36.0599 6.35674 0.0999994
    endloop
  endfacet
  facet normal 0 0 -1
    outer loop
      vertex -38.448 -0.993011 0.0999994
      vertex -36.0088 -0.733902 0.0999994
      vertex -38.2924 -1.97516 0.0999994
    endloop
  endfacet
  facet normal 0 0 -1
    outer loop
      vertex -34.716 2.16966 0.0999994
      vertex -37.2272 4.75 0.0999994
      vertex -36.6857 5.58395 0.0999994
    endloop
  endfacet
  facet normal -0 0 -1
    outer loop
      vertex -36.0088 -0.733902 0.0999994
      vertex -38.448 -0.993011 0.0999994
      vertex -36.0731 -0.49379 0.0999994
    endloop
  endfacet
  facet normal 0 0 -1
    outer loop
      vertex -34.9375 2.05681 0.0999994
      vertex -37.6787 3.86398 0.0999994
      vertex -37.2272 4.75 0.0999994
    endloop
  endfacet
  facet normal -0 0 -1
    outer loop
      vertex -36.0731 -0.49379 0.0999994
      vertex -38.448 -0.993011 0.0999994
      vertex -36.112 -0.248245 0.0999994
    endloop
  endfacet
  facet normal 0 0 -1
    outer loop
      vertex -35.3392 1.76497 0.0999994
      vertex -38.035 2.93565 0.0999994
      vertex -37.6787 3.86398 0.0999994
    endloop
  endfacet
  facet normal 0 0 -1
    outer loop
      vertex -38.5 0 0.0999994
      vertex -36.112 -0.248245 0.0999994
      vertex -38.448 -0.993011 0.0999994
    endloop
  endfacet
  facet normal 0 0 -1
    outer loop
      vertex -35.6714 1.39598 0.0999994
      vertex -38.2924 1.97516 0.0999994
      vertex -38.035 2.93565 0.0999994
    endloop
  endfacet
  facet normal 0 0 -1
    outer loop
      vertex -36.112 -0.248245 0.0999994
      vertex -38.5 0 0.0999994
      vertex -36.125 0 0.0999994
    endloop
  endfacet
  facet normal 0 0 -1
    outer loop
      vertex -36.0088 0.733902 0.0999994
      vertex -38.448 0.993011 0.0999994
      vertex -38.2924 1.97516 0.0999994
    endloop
  endfacet
  facet normal -0 0 -1
    outer loop
      vertex -36.112 0.248245 0.0999994
      vertex -38.5 0 0.0999994
      vertex -38.448 0.993011 0.0999994
    endloop
  endfacet
  facet normal 0 1 -0
    outer loop
      vertex 29.5 9.5 0.0999994
      vertex -29 9.5 2
      vertex 29.5 9.5 2
    endloop
  endfacet
  facet normal 0 1 0
    outer loop
      vertex -29 9.5 2
      vertex 29.5 9.5 0.0999994
      vertex -29 9.5 0.0999994
    endloop
  endfacet
  facet normal 0 -1 0
    outer loop
      vertex -29 -9.5 0.0999994
      vertex 29.5 -9.5 2
      vertex -29 -9.5 2
    endloop
  endfacet
  facet normal 0 -1 -0
    outer loop
      vertex 29.5 -9.5 2
      vertex -29 -9.5 0.0999994
      vertex 29.5 -9.5 0.0999994
    endloop
  endfacet
  facet normal 0 0 1
    outer loop
      vertex -32.1608 1.76497 4.1
      vertex -29.5 9.47379 4.1
      vertex -29.993 9.44795 4.1
    endloop
  endfacet
  facet normal 0 0 1
    outer loop
      vertex -29.5 9.47379 4.1
      vertex -31.375 0 4.1
      vertex -29.5 -9.47379 4.1
    endloop
  endfacet
  facet normal 0 0 1
    outer loop
      vertex -32.354 1.9214 4.1
      vertex -29.993 9.44795 4.1
      vertex -30.9752 9.29239 4.1
    endloop
  endfacet
  facet normal -0 0 1
    outer loop
      vertex -31.388 -0.248245 4.1
      vertex -29.5 -9.47379 4.1
      vertex -31.375 0 4.1
    endloop
  endfacet
  facet normal -0 0 1
    outer loop
      vertex -31.4269 -0.49379 4.1
      vertex -29.5 -9.47379 4.1
      vertex -31.388 -0.248245 4.1
    endloop
  endfacet
  facet normal 0 0 1
    outer loop
      vertex -29.5 9.47379 4.1
      vertex -31.388 0.248245 4.1
      vertex -31.375 0 4.1
    endloop
  endfacet
  facet normal 0 0 1
    outer loop
      vertex -29.5 9.47379 4.1
      vertex -31.4269 0.49379 4.1
      vertex -31.388 0.248245 4.1
    endloop
  endfacet
  facet normal 0 0 1
    outer loop
      vertex -29.5 9.47379 4.1
      vertex -31.4912 0.733902 4.1
      vertex -31.4269 0.49379 4.1
    endloop
  endfacet
  facet normal 0 0 1
    outer loop
      vertex -29.5 9.47379 4.1
      vertex -31.5803 0.965988 4.1
      vertex -31.4912 0.733902 4.1
    endloop
  endfacet
  facet normal 0 0 1
    outer loop
      vertex -29.5 9.47379 4.1
      vertex -31.6932 1.1875 4.1
      vertex -31.5803 0.965988 4.1
    endloop
  endfacet
  facet normal 0 0 1
    outer loop
      vertex -29.5 9.47379 4.1
      vertex -31.8286 1.39598 4.1
      vertex -31.6932 1.1875 4.1
    endloop
  endfacet
  facet normal 0 0 1
    outer loop
      vertex -32.5625 2.05681 4.1
      vertex -30.9752 9.29239 4.1
      vertex -31.9357 9.03503 4.1
    endloop
  endfacet
  facet normal 0 0 1
    outer loop
      vertex -29.5 9.47379 4.1
      vertex -31.985 1.58917 4.1
      vertex -31.8286 1.39598 4.1
    endloop
  endfacet
  facet normal 0 0 1
    outer loop
      vertex -29.5 9.47379 4.1
      vertex -32.1608 1.76497 4.1
      vertex -31.985 1.58917 4.1
    endloop
  endfacet
  facet normal 0 0 1
    outer loop
      vertex -29.993 9.44795 4.1
      vertex -32.354 1.9214 4.1
      vertex -32.1608 1.76497 4.1
    endloop
  endfacet
  facet normal 0 0 1
    outer loop
      vertex -30.9752 9.29239 4.1
      vertex -32.5625 2.05681 4.1
      vertex -32.354 1.9214 4.1
    endloop
  endfacet
  facet normal 0 0 1
    outer loop
      vertex -31.9357 9.03503 4.1
      vertex -32.784 2.16966 4.1
      vertex -32.5625 2.05681 4.1
    endloop
  endfacet
  facet normal -0 0 1
    outer loop
      vertex -32.864 8.67868 4.1
      vertex -32.784 2.16966 4.1
      vertex -31.9357 9.03503 4.1
    endloop
  endfacet
  facet normal 0 0 1
    outer loop
      vertex -32.864 8.67868 4.1
      vertex -33.0161 2.25876 4.1
      vertex -32.784 2.16966 4.1
    endloop
  endfacet
  facet normal -0 0 1
    outer loop
      vertex -33.75 8.22723 4.1
      vertex -33.0161 2.25876 4.1
      vertex -32.864 8.67868 4.1
    endloop
  endfacet
  facet normal 0 0 1
    outer loop
      vertex -33.0161 2.25876 4.1
      vertex -33.75 8.22723 4.1
      vertex -33.2562 2.32309 4.1
    endloop
  endfacet
  facet normal -0 0 1
    outer loop
      vertex -34.584 7.68565 4.1
      vertex -33.2562 2.32309 4.1
      vertex -33.75 8.22723 4.1
    endloop
  endfacet
  facet normal 0 0 1
    outer loop
      vertex -33.2562 2.32309 4.1
      vertex -34.584 7.68565 4.1
      vertex -33.5017 2.36198 4.1
    endloop
  endfacet
  facet normal -0 0 1
    outer loop
      vertex -35.3567 7.05988 4.1
      vertex -33.5017 2.36198 4.1
      vertex -34.584 7.68565 4.1
    endloop
  endfacet
  facet normal 0 0 1
    outer loop
      vertex -33.5017 2.36198 4.1
      vertex -35.3567 7.05988 4.1
      vertex -33.75 2.375 4.1
    endloop
  endfacet
  facet normal -0 0 1
    outer loop
      vertex -36.0599 6.35674 4.1
      vertex -33.75 2.375 4.1
      vertex -35.3567 7.05988 4.1
    endloop
  endfacet
  facet normal 0 0 1
    outer loop
      vertex -33.75 2.375 4.1
      vertex -36.0599 6.35674 4.1
      vertex -33.9982 2.36198 4.1
    endloop
  endfacet
  facet normal 0 0 1
    outer loop
      vertex -33.9982 2.36198 4.1
      vertex -36.0599 6.35674 4.1
      vertex -34.2438 2.32309 4.1
    endloop
  endfacet
  facet normal -0 0 1
    outer loop
      vertex -36.6857 5.58395 4.1
      vertex -34.2438 2.32309 4.1
      vertex -36.0599 6.35674 4.1
    endloop
  endfacet
  facet normal 0 0 1
    outer loop
      vertex -34.2438 2.32309 4.1
      vertex -36.6857 5.58395 4.1
      vertex -34.4839 2.25876 4.1
    endloop
  endfacet
  facet normal 0 0 1
    outer loop
      vertex -34.4839 2.25876 4.1
      vertex -36.6857 5.58395 4.1
      vertex -34.716 2.16966 4.1
    endloop
  endfacet
  facet normal -0 0 1
    outer loop
      vertex -37.2272 4.75 4.1
      vertex -34.716 2.16966 4.1
      vertex -36.6857 5.58395 4.1
    endloop
  endfacet
  facet normal 0 0 1
    outer loop
      vertex -34.716 2.16966 4.1
      vertex -37.2272 4.75 4.1
      vertex -34.9375 2.05681 4.1
    endloop
  endfacet
  facet normal -0 0 1
    outer loop
      vertex -37.6787 3.86398 4.1
      vertex -34.9375 2.05681 4.1
      vertex -37.2272 4.75 4.1
    endloop
  endfacet
  facet normal 0 0 1
    outer loop
      vertex -34.9375 2.05681 4.1
      vertex -37.6787 3.86398 4.1
      vertex -35.146 1.9214 4.1
    endloop
  endfacet
  facet normal 0 0 1
    outer loop
      vertex -35.146 1.9214 4.1
      vertex -37.6787 3.86398 4.1
      vertex -35.3392 1.76497 4.1
    endloop
  endfacet
  facet normal -0 0 1
    outer loop
      vertex -38.035 2.93565 4.1
      vertex -35.3392 1.76497 4.1
      vertex -37.6787 3.86398 4.1
    endloop
  endfacet
  facet normal 0 0 1
    outer loop
      vertex -35.3392 1.76497 4.1
      vertex -38.035 2.93565 4.1
      vertex -35.515 1.58917 4.1
    endloop
  endfacet
  facet normal 0 0 1
    outer loop
      vertex -35.515 1.58917 4.1
      vertex -38.035 2.93565 4.1
      vertex -35.6714 1.39598 4.1
    endloop
  endfacet
  facet normal -0 0 1
    outer loop
      vertex -38.2924 1.97516 4.1
      vertex -35.6714 1.39598 4.1
      vertex -38.035 2.93565 4.1
    endloop
  endfacet
  facet normal 0 0 1
    outer loop
      vertex -35.6714 1.39598 4.1
      vertex -38.2924 1.97516 4.1
      vertex -35.8068 1.1875 4.1
    endloop
  endfacet
  facet normal 0 0 1
    outer loop
      vertex -35.8068 1.1875 4.1
      vertex -38.2924 1.97516 4.1
      vertex -35.9197 0.965988 4.1
    endloop
  endfacet
  facet normal -0 0 1
    outer loop
      vertex -31.4912 -0.733902 4.1
      vertex -29.5 -9.47379 4.1
      vertex -31.4269 -0.49379 4.1
    endloop
  endfacet
  facet normal -0 0 1
    outer loop
      vertex -31.5803 -0.965988 4.1
      vertex -29.5 -9.47379 4.1
      vertex -31.4912 -0.733902 4.1
    endloop
  endfacet
  facet normal -0 0 1
    outer loop
      vertex -31.6932 -1.1875 4.1
      vertex -29.5 -9.47379 4.1
      vertex -31.5803 -0.965988 4.1
    endloop
  endfacet
  facet normal -0 0 1
    outer loop
      vertex -31.8286 -1.39598 4.1
      vertex -29.5 -9.47379 4.1
      vertex -31.6932 -1.1875 4.1
    endloop
  endfacet
  facet normal -0 0 1
    outer loop
      vertex -31.985 -1.58917 4.1
      vertex -29.5 -9.47379 4.1
      vertex -31.8286 -1.39598 4.1
    endloop
  endfacet
  facet normal -0 0 1
    outer loop
      vertex -32.1608 -1.76497 4.1
      vertex -29.5 -9.47379 4.1
      vertex -31.985 -1.58917 4.1
    endloop
  endfacet
  facet normal 0 0 1
    outer loop
      vertex -29.5 -9.47379 4.1
      vertex -32.1608 -1.76497 4.1
      vertex -29.993 -9.44795 4.1
    endloop
  endfacet
  facet normal -0 0 1
    outer loop
      vertex -32.354 -1.9214 4.1
      vertex -29.993 -9.44795 4.1
      vertex -32.1608 -1.76497 4.1
    endloop
  endfacet
  facet normal 0 0 1
    outer loop
      vertex -29.993 -9.44795 4.1
      vertex -32.354 -1.9214 4.1
      vertex -30.9752 -9.29239 4.1
    endloop
  endfacet
  facet normal -0 0 1
    outer loop
      vertex -32.5625 -2.05681 4.1
      vertex -30.9752 -9.29239 4.1
      vertex -32.354 -1.9214 4.1
    endloop
  endfacet
  facet normal 0 0 1
    outer loop
      vertex -30.9752 -9.29239 4.1
      vertex -32.5625 -2.05681 4.1
      vertex -31.9357 -9.03503 4.1
    endloop
  endfacet
  facet normal -0 0 1
    outer loop
      vertex -32.784 -2.16966 4.1
      vertex -31.9357 -9.03503 4.1
      vertex -32.5625 -2.05681 4.1
    endloop
  endfacet
  facet normal 0 0 1
    outer loop
      vertex -32.784 -2.16966 4.1
      vertex -32.864 -8.67868 4.1
      vertex -31.9357 -9.03503 4.1
    endloop
  endfacet
  facet normal -0 0 1
    outer loop
      vertex -33.0161 -2.25876 4.1
      vertex -32.864 -8.67868 4.1
      vertex -32.784 -2.16966 4.1
    endloop
  endfacet
  facet normal 0 0 1
    outer loop
      vertex -33.75 -8.22723 4.1
      vertex -33.0161 -2.25876 4.1
      vertex -33.2562 -2.32309 4.1
    endloop
  endfacet
  facet normal 0 0 1
    outer loop
      vertex -34.584 -7.68565 4.1
      vertex -33.2562 -2.32309 4.1
      vertex -33.5017 -2.36198 4.1
    endloop
  endfacet
  facet normal 0 0 1
    outer loop
      vertex -35.3567 -7.05988 4.1
      vertex -33.5017 -2.36198 4.1
      vertex -33.75 -2.375 4.1
    endloop
  endfacet
  facet normal 0 0 1
    outer loop
      vertex -33.0161 -2.25876 4.1
      vertex -33.75 -8.22723 4.1
      vertex -32.864 -8.67868 4.1
    endloop
  endfacet
  facet normal 0 0 1
    outer loop
      vertex -36.0599 -6.35674 4.1
      vertex -33.75 -2.375 4.1
      vertex -33.9982 -2.36198 4.1
    endloop
  endfacet
  facet normal 0 0 1
    outer loop
      vertex -36.0599 -6.35674 4.1
      vertex -33.9982 -2.36198 4.1
      vertex -34.2438 -2.32309 4.1
    endloop
  endfacet
  facet normal 0 0 1
    outer loop
      vertex -36.6857 -5.58395 4.1
      vertex -34.2438 -2.32309 4.1
      vertex -34.4839 -2.25876 4.1
    endloop
  endfacet
  facet normal 0 0 1
    outer loop
      vertex -33.2562 -2.32309 4.1
      vertex -34.584 -7.68565 4.1
      vertex -33.75 -8.22723 4.1
    endloop
  endfacet
  facet normal 0 0 1
    outer loop
      vertex -36.6857 -5.58395 4.1
      vertex -34.4839 -2.25876 4.1
      vertex -34.716 -2.16966 4.1
    endloop
  endfacet
  facet normal 0 0 1
    outer loop
      vertex -37.2272 -4.75 4.1
      vertex -34.716 -2.16966 4.1
      vertex -34.9375 -2.05681 4.1
    endloop
  endfacet
  facet normal 0 0 1
    outer loop
      vertex -37.6787 -3.86398 4.1
      vertex -34.9375 -2.05681 4.1
      vertex -35.146 -1.9214 4.1
    endloop
  endfacet
  facet normal 0 0 1
    outer loop
      vertex -37.6787 -3.86398 4.1
      vertex -35.146 -1.9214 4.1
      vertex -35.3392 -1.76497 4.1
    endloop
  endfacet
  facet normal 0 0 1
    outer loop
      vertex -33.5017 -2.36198 4.1
      vertex -35.3567 -7.05988 4.1
      vertex -34.584 -7.68565 4.1
    endloop
  endfacet
  facet normal 0 0 1
    outer loop
      vertex -38.035 -2.93565 4.1
      vertex -35.3392 -1.76497 4.1
      vertex -35.515 -1.58917 4.1
    endloop
  endfacet
  facet normal 0 0 1
    outer loop
      vertex -38.035 -2.93565 4.1
      vertex -35.515 -1.58917 4.1
      vertex -35.6714 -1.39598 4.1
    endloop
  endfacet
  facet normal 0 0 1
    outer loop
      vertex -38.2924 -1.97516 4.1
      vertex -35.6714 -1.39598 4.1
      vertex -35.8068 -1.1875 4.1
    endloop
  endfacet
  facet normal 0 0 1
    outer loop
      vertex -38.2924 -1.97516 4.1
      vertex -35.8068 -1.1875 4.1
      vertex -35.9197 -0.965988 4.1
    endloop
  endfacet
  facet normal 0 0 1
    outer loop
      vertex -38.2924 -1.97516 4.1
      vertex -35.9197 -0.965988 4.1
      vertex -36.0088 -0.733902 4.1
    endloop
  endfacet
  facet normal 0 0 1
    outer loop
      vertex -33.75 -2.375 4.1
      vertex -36.0599 -6.35674 4.1
      vertex -35.3567 -7.05988 4.1
    endloop
  endfacet
  facet normal 0 0 1
    outer loop
      vertex -38.448 -0.993011 4.1
      vertex -36.0088 -0.733902 4.1
      vertex -36.0731 -0.49379 4.1
    endloop
  endfacet
  facet normal 0 0 1
    outer loop
      vertex -38.448 -0.993011 4.1
      vertex -36.0731 -0.49379 4.1
      vertex -36.112 -0.248245 4.1
    endloop
  endfacet
  facet normal -0 0 1
    outer loop
      vertex -38.5 0 4.1
      vertex -36.112 -0.248245 4.1
      vertex -36.125 0 4.1
    endloop
  endfacet
  facet normal 0 0 1
    outer loop
      vertex -35.9197 0.965988 4.1
      vertex -38.2924 1.97516 4.1
      vertex -36.0088 0.733902 4.1
    endloop
  endfacet
  facet normal 0 0 1
    outer loop
      vertex -34.2438 -2.32309 4.1
      vertex -36.6857 -5.58395 4.1
      vertex -36.0599 -6.35674 4.1
    endloop
  endfacet
  facet normal -0 0 1
    outer loop
      vertex -38.448 0.993011 4.1
      vertex -36.0088 0.733902 4.1
      vertex -38.2924 1.97516 4.1
    endloop
  endfacet
  facet normal 0 0 1
    outer loop
      vertex -34.716 -2.16966 4.1
      vertex -37.2272 -4.75 4.1
      vertex -36.6857 -5.58395 4.1
    endloop
  endfacet
  facet normal 0 0 1
    outer loop
      vertex -36.0088 0.733902 4.1
      vertex -38.448 0.993011 4.1
      vertex -36.0731 0.49379 4.1
    endloop
  endfacet
  facet normal 0 0 1
    outer loop
      vertex -34.9375 -2.05681 4.1
      vertex -37.6787 -3.86398 4.1
      vertex -37.2272 -4.75 4.1
    endloop
  endfacet
  facet normal 0 0 1
    outer loop
      vertex -36.0731 0.49379 4.1
      vertex -38.448 0.993011 4.1
      vertex -36.112 0.248245 4.1
    endloop
  endfacet
  facet normal 0 0 1
    outer loop
      vertex -35.3392 -1.76497 4.1
      vertex -38.035 -2.93565 4.1
      vertex -37.6787 -3.86398 4.1
    endloop
  endfacet
  facet normal 0 0 1
    outer loop
      vertex -38.5 0 4.1
      vertex -36.112 0.248245 4.1
      vertex -38.448 0.993011 4.1
    endloop
  endfacet
  facet normal 0 0 1
    outer loop
      vertex -35.6714 -1.39598 4.1
      vertex -38.2924 -1.97516 4.1
      vertex -38.035 -2.93565 4.1
    endloop
  endfacet
  facet normal 0 0 1
    outer loop
      vertex -36.112 0.248245 4.1
      vertex -38.5 0 4.1
      vertex -36.125 0 4.1
    endloop
  endfacet
  facet normal 0 0 1
    outer loop
      vertex -36.0088 -0.733902 4.1
      vertex -38.448 -0.993011 4.1
      vertex -38.2924 -1.97516 4.1
    endloop
  endfacet
  facet normal 0 0 1
    outer loop
      vertex -36.112 -0.248245 4.1
      vertex -38.5 0 4.1
      vertex -38.448 -0.993011 4.1
    endloop
  endfacet
  facet normal -0.0523481 0.998629 0
    outer loop
      vertex -29 9.5 2
      vertex -29 9.5 0.0999994
      vertex -29.5 9.47379 2
    endloop
  endfacet
  facet normal -0.0523419 0.998629 0
    outer loop
      vertex -29.5 9.47379 2
      vertex -29.993 9.44795 4.1
      vertex -29.5 9.47379 4.1
    endloop
  endfacet
  facet normal -0.0523419 0.998629 0
    outer loop
      vertex -29.5 9.47379 2
      vertex -29.993 9.44795 0.0999994
      vertex -29.993 9.44795 4.1
    endloop
  endfacet
  facet normal -0.0523451 0.998629 8.09828e-07
    outer loop
      vertex -29.993 9.44795 0.0999994
      vertex -29.5 9.47379 2
      vertex -29 9.5 0.0999994
    endloop
  endfacet
  facet normal -0.156429 0.987689 0
    outer loop
      vertex -29.993 9.44795 0.0999994
      vertex -30.9752 9.29239 4.1
      vertex -29.993 9.44795 4.1
    endloop
  endfacet
  facet normal -0.156429 0.987689 0
    outer loop
      vertex -30.9752 9.29239 4.1
      vertex -29.993 9.44795 0.0999994
      vertex -30.9752 9.29239 0.0999994
    endloop
  endfacet
  facet normal -0.258814 0.965927 0
    outer loop
      vertex -30.9752 9.29239 0.0999994
      vertex -31.9357 9.03503 4.1
      vertex -30.9752 9.29239 4.1
    endloop
  endfacet
  facet normal -0.258814 0.965927 0
    outer loop
      vertex -31.9357 9.03503 4.1
      vertex -30.9752 9.29239 0.0999994
      vertex -31.9357 9.03503 0.0999994
    endloop
  endfacet
  facet normal -0.358376 0.933577 0
    outer loop
      vertex -31.9357 9.03503 0.0999994
      vertex -32.864 8.67868 4.1
      vertex -31.9357 9.03503 4.1
    endloop
  endfacet
  facet normal -0.358376 0.933577 0
    outer loop
      vertex -32.864 8.67868 4.1
      vertex -31.9357 9.03503 0.0999994
      vertex -32.864 8.67868 0.0999994
    endloop
  endfacet
  facet normal -0.453999 0.891002 0
    outer loop
      vertex -32.864 8.67868 0.0999994
      vertex -33.75 8.22723 4.1
      vertex -32.864 8.67868 4.1
    endloop
  endfacet
  facet normal -0.453999 0.891002 0
    outer loop
      vertex -33.75 8.22723 4.1
      vertex -32.864 8.67868 0.0999994
      vertex -33.75 8.22723 0.0999994
    endloop
  endfacet
  facet normal -0.544621 0.838682 0
    outer loop
      vertex -33.75 8.22723 0.0999994
      vertex -34.584 7.68565 4.1
      vertex -33.75 8.22723 4.1
    endloop
  endfacet
  facet normal -0.544621 0.838682 0
    outer loop
      vertex -34.584 7.68565 4.1
      vertex -33.75 8.22723 0.0999994
      vertex -34.584 7.68565 0.0999994
    endloop
  endfacet
  facet normal -0.629351 0.777121 0
    outer loop
      vertex -34.584 7.68565 0.0999994
      vertex -35.3567 7.05988 4.1
      vertex -34.584 7.68565 4.1
    endloop
  endfacet
  facet normal -0.629351 0.777121 0
    outer loop
      vertex -35.3567 7.05988 4.1
      vertex -34.584 7.68565 0.0999994
      vertex -35.3567 7.05988 0.0999994
    endloop
  endfacet
  facet normal -0.707077 0.707137 0
    outer loop
      vertex -36.0599 6.35674 0.0999994
      vertex -35.3567 7.05988 4.1
      vertex -35.3567 7.05988 0.0999994
    endloop
  endfacet
  facet normal -0.707077 0.707137 0
    outer loop
      vertex -35.3567 7.05988 4.1
      vertex -36.0599 6.35674 0.0999994
      vertex -36.0599 6.35674 4.1
    endloop
  endfacet
  facet normal -0.777143 0.629325 0
    outer loop
      vertex -36.6857 5.58395 0.0999994
      vertex -36.0599 6.35674 4.1
      vertex -36.0599 6.35674 0.0999994
    endloop
  endfacet
  facet normal -0.777143 0.629325 0
    outer loop
      vertex -36.0599 6.35674 4.1
      vertex -36.6857 5.58395 0.0999994
      vertex -36.6857 5.58395 4.1
    endloop
  endfacet
  facet normal -0.838704 0.544587 0
    outer loop
      vertex -37.2272 4.75 0.0999994
      vertex -36.6857 5.58395 4.1
      vertex -36.6857 5.58395 0.0999994
    endloop
  endfacet
  facet normal -0.838704 0.544587 0
    outer loop
      vertex -36.6857 5.58395 4.1
      vertex -37.2272 4.75 0.0999994
      vertex -37.2272 4.75 4.1
    endloop
  endfacet
  facet normal -0.890986 0.454031 0
    outer loop
      vertex -37.6787 3.86398 0.0999994
      vertex -37.2272 4.75 4.1
      vertex -37.2272 4.75 0.0999994
    endloop
  endfacet
  facet normal -0.890986 0.454031 0
    outer loop
      vertex -37.2272 4.75 4.1
      vertex -37.6787 3.86398 0.0999994
      vertex -37.6787 3.86398 4.1
    endloop
  endfacet
  facet normal -0.933598 0.358322 0
    outer loop
      vertex -38.035 2.93565 0.0999994
      vertex -37.6787 3.86398 4.1
      vertex -37.6787 3.86398 0.0999994
    endloop
  endfacet
  facet normal -0.933598 0.358322 0
    outer loop
      vertex -37.6787 3.86398 4.1
      vertex -38.035 2.93565 0.0999994
      vertex -38.035 2.93565 4.1
    endloop
  endfacet
  facet normal -0.965916 0.258854 0
    outer loop
      vertex -38.2924 1.97516 0.0999994
      vertex -38.035 2.93565 4.1
      vertex -38.035 2.93565 0.0999994
    endloop
  endfacet
  facet normal -0.965916 0.258854 0
    outer loop
      vertex -38.035 2.93565 4.1
      vertex -38.2924 1.97516 0.0999994
      vertex -38.2924 1.97516 4.1
    endloop
  endfacet
  facet normal -0.987682 0.156477 0
    outer loop
      vertex -38.448 0.993011 0.0999994
      vertex -38.2924 1.97516 4.1
      vertex -38.2924 1.97516 0.0999994
    endloop
  endfacet
  facet normal -0.987682 0.156477 0
    outer loop
      vertex -38.2924 1.97516 4.1
      vertex -38.448 0.993011 0.0999994
      vertex -38.448 0.993011 4.1
    endloop
  endfacet
  facet normal -0.998632 0.0522943 0
    outer loop
      vertex -38.5 0 0.0999994
      vertex -38.448 0.993011 4.1
      vertex -38.448 0.993011 0.0999994
    endloop
  endfacet
  facet normal -0.998632 0.0522943 0
    outer loop
      vertex -38.448 0.993011 4.1
      vertex -38.5 0 0.0999994
      vertex -38.5 0 4.1
    endloop
  endfacet
  facet normal -0.998632 -0.0522943 0
    outer loop
      vertex -38.448 -0.993011 0.0999994
      vertex -38.5 0 4.1
      vertex -38.5 0 0.0999994
    endloop
  endfacet
  facet normal -0.998632 -0.0522943 0
    outer loop
      vertex -38.5 0 4.1
      vertex -38.448 -0.993011 0.0999994
      vertex -38.448 -0.993011 4.1
    endloop
  endfacet
  facet normal -0.987682 -0.156477 0
    outer loop
      vertex -38.2924 -1.97516 0.0999994
      vertex -38.448 -0.993011 4.1
      vertex -38.448 -0.993011 0.0999994
    endloop
  endfacet
  facet normal -0.987682 -0.156477 0
    outer loop
      vertex -38.448 -0.993011 4.1
      vertex -38.2924 -1.97516 0.0999994
      vertex -38.2924 -1.97516 4.1
    endloop
  endfacet
  facet normal -0.965916 -0.258854 0
    outer loop
      vertex -38.035 -2.93565 0.0999994
      vertex -38.2924 -1.97516 4.1
      vertex -38.2924 -1.97516 0.0999994
    endloop
  endfacet
  facet normal -0.965916 -0.258854 0
    outer loop
      vertex -38.2924 -1.97516 4.1
      vertex -38.035 -2.93565 0.0999994
      vertex -38.035 -2.93565 4.1
    endloop
  endfacet
  facet normal -0.933598 -0.358322 0
    outer loop
      vertex -37.6787 -3.86398 0.0999994
      vertex -38.035 -2.93565 4.1
      vertex -38.035 -2.93565 0.0999994
    endloop
  endfacet
  facet normal -0.933598 -0.358322 0
    outer loop
      vertex -38.035 -2.93565 4.1
      vertex -37.6787 -3.86398 0.0999994
      vertex -37.6787 -3.86398 4.1
    endloop
  endfacet
  facet normal -0.890986 -0.454031 0
    outer loop
      vertex -37.2272 -4.75 0.0999994
      vertex -37.6787 -3.86398 4.1
      vertex -37.6787 -3.86398 0.0999994
    endloop
  endfacet
  facet normal -0.890986 -0.454031 0
    outer loop
      vertex -37.6787 -3.86398 4.1
      vertex -37.2272 -4.75 0.0999994
      vertex -37.2272 -4.75 4.1
    endloop
  endfacet
  facet normal -0.838704 -0.544587 0
    outer loop
      vertex -36.6857 -5.58395 0.0999994
      vertex -37.2272 -4.75 4.1
      vertex -37.2272 -4.75 0.0999994
    endloop
  endfacet
  facet normal -0.838704 -0.544587 0
    outer loop
      vertex -37.2272 -4.75 4.1
      vertex -36.6857 -5.58395 0.0999994
      vertex -36.6857 -5.58395 4.1
    endloop
  endfacet
  facet normal -0.777143 -0.629325 0
    outer loop
      vertex -36.0599 -6.35674 0.0999994
      vertex -36.6857 -5.58395 4.1
      vertex -36.6857 -5.58395 0.0999994
    endloop
  endfacet
  facet normal -0.777143 -0.629325 0
    outer loop
      vertex -36.6857 -5.58395 4.1
      vertex -36.0599 -6.35674 0.0999994
      vertex -36.0599 -6.35674 4.1
    endloop
  endfacet
  facet normal -0.707077 -0.707137 0
    outer loop
      vertex -35.3567 -7.05988 0.0999994
      vertex -36.0599 -6.35674 4.1
      vertex -36.0599 -6.35674 0.0999994
    endloop
  endfacet
  facet normal -0.707077 -0.707137 0
    outer loop
      vertex -36.0599 -6.35674 4.1
      vertex -35.3567 -7.05988 0.0999994
      vertex -35.3567 -7.05988 4.1
    endloop
  endfacet
  facet normal -0.629351 -0.777121 0
    outer loop
      vertex -35.3567 -7.05988 0.0999994
      vertex -34.584 -7.68565 4.1
      vertex -35.3567 -7.05988 4.1
    endloop
  endfacet
  facet normal -0.629351 -0.777121 -0
    outer loop
      vertex -34.584 -7.68565 4.1
      vertex -35.3567 -7.05988 0.0999994
      vertex -34.584 -7.68565 0.0999994
    endloop
  endfacet
  facet normal -0.544621 -0.838682 0
    outer loop
      vertex -34.584 -7.68565 0.0999994
      vertex -33.75 -8.22723 4.1
      vertex -34.584 -7.68565 4.1
    endloop
  endfacet
  facet normal -0.544621 -0.838682 -0
    outer loop
      vertex -33.75 -8.22723 4.1
      vertex -34.584 -7.68565 0.0999994
      vertex -33.75 -8.22723 0.0999994
    endloop
  endfacet
  facet normal -0.453999 -0.891002 0
    outer loop
      vertex -33.75 -8.22723 0.0999994
      vertex -32.864 -8.67868 4.1
      vertex -33.75 -8.22723 4.1
    endloop
  endfacet
  facet normal -0.453999 -0.891002 -0
    outer loop
      vertex -32.864 -8.67868 4.1
      vertex -33.75 -8.22723 0.0999994
      vertex -32.864 -8.67868 0.0999994
    endloop
  endfacet
  facet normal -0.358376 -0.933577 0
    outer loop
      vertex -32.864 -8.67868 0.0999994
      vertex -31.9357 -9.03503 4.1
      vertex -32.864 -8.67868 4.1
    endloop
  endfacet
  facet normal -0.358376 -0.933577 -0
    outer loop
      vertex -31.9357 -9.03503 4.1
      vertex -32.864 -8.67868 0.0999994
      vertex -31.9357 -9.03503 0.0999994
    endloop
  endfacet
  facet normal -0.258814 -0.965927 0
    outer loop
      vertex -31.9357 -9.03503 0.0999994
      vertex -30.9752 -9.29239 4.1
      vertex -31.9357 -9.03503 4.1
    endloop
  endfacet
  facet normal -0.258814 -0.965927 -0
    outer loop
      vertex -30.9752 -9.29239 4.1
      vertex -31.9357 -9.03503 0.0999994
      vertex -30.9752 -9.29239 0.0999994
    endloop
  endfacet
  facet normal -0.156429 -0.987689 0
    outer loop
      vertex -30.9752 -9.29239 0.0999994
      vertex -29.993 -9.44795 4.1
      vertex -30.9752 -9.29239 4.1
    endloop
  endfacet
  facet normal -0.156429 -0.987689 -0
    outer loop
      vertex -29.993 -9.44795 4.1
      vertex -30.9752 -9.29239 0.0999994
      vertex -29.993 -9.44795 0.0999994
    endloop
  endfacet
  facet normal -0.0523419 -0.998629 0
    outer loop
      vertex -29.993 -9.44795 4.1
      vertex -29.5 -9.47379 2
      vertex -29.5 -9.47379 4.1
    endloop
  endfacet
  facet normal -0.0523419 -0.998629 0
    outer loop
      vertex -29.993 -9.44795 0.0999994
      vertex -29.5 -9.47379 2
      vertex -29.993 -9.44795 4.1
    endloop
  endfacet
  facet normal -0.0523451 -0.998629 8.09828e-07
    outer loop
      vertex -29 -9.5 0.0999994
      vertex -29.5 -9.47379 2
      vertex -29.993 -9.44795 0.0999994
    endloop
  endfacet
  facet normal -0.0523481 -0.998629 0
    outer loop
      vertex -29.5 -9.47379 2
      vertex -29 -9.5 0.0999994
      vertex -29 -9.5 2
    endloop
  endfacet
  facet normal 0.156398 0.987694 -0
    outer loop
      vertex -33.9982 -2.36198 0.0999994
      vertex -34.2438 -2.32309 4.1
      vertex -33.9982 -2.36198 4.1
    endloop
  endfacet
  facet normal 0.156398 0.987694 0
    outer loop
      vertex -34.2438 -2.32309 4.1
      vertex -33.9982 -2.36198 0.0999994
      vertex -34.2438 -2.32309 0.0999994
    endloop
  endfacet
  facet normal 0.258802 0.96593 -0
    outer loop
      vertex -34.2438 -2.32309 0.0999994
      vertex -34.4839 -2.25876 4.1
      vertex -34.2438 -2.32309 4.1
    endloop
  endfacet
  facet normal 0.258802 0.96593 0
    outer loop
      vertex -34.4839 -2.25876 4.1
      vertex -34.2438 -2.32309 0.0999994
      vertex -34.4839 -2.25876 0.0999994
    endloop
  endfacet
  facet normal 0.358386 0.933573 -0
    outer loop
      vertex -34.4839 -2.25876 0.0999994
      vertex -34.716 -2.16966 4.1
      vertex -34.4839 -2.25876 4.1
    endloop
  endfacet
  facet normal 0.358386 0.933573 0
    outer loop
      vertex -34.716 -2.16966 4.1
      vertex -34.4839 -2.25876 0.0999994
      vertex -34.716 -2.16966 0.0999994
    endloop
  endfacet
  facet normal 0.453959 0.891023 -0
    outer loop
      vertex -34.716 -2.16966 0.0999994
      vertex -34.9375 -2.05681 4.1
      vertex -34.716 -2.16966 4.1
    endloop
  endfacet
  facet normal 0.453959 0.891023 0
    outer loop
      vertex -34.9375 -2.05681 4.1
      vertex -34.716 -2.16966 0.0999994
      vertex -34.9375 -2.05681 0.0999994
    endloop
  endfacet
  facet normal 0.544663 0.838655 -0
    outer loop
      vertex -34.9375 -2.05681 0.0999994
      vertex -35.146 -1.9214 4.1
      vertex -34.9375 -2.05681 4.1
    endloop
  endfacet
  facet normal 0.544663 0.838655 0
    outer loop
      vertex -35.146 -1.9214 4.1
      vertex -34.9375 -2.05681 0.0999994
      vertex -35.146 -1.9214 0.0999994
    endloop
  endfacet
  facet normal 0.629271 0.777186 -0
    outer loop
      vertex -35.146 -1.9214 0.0999994
      vertex -35.3392 -1.76497 4.1
      vertex -35.146 -1.9214 4.1
    endloop
  endfacet
  facet normal 0.629271 0.777186 0
    outer loop
      vertex -35.3392 -1.76497 4.1
      vertex -35.146 -1.9214 0.0999994
      vertex -35.3392 -1.76497 0.0999994
    endloop
  endfacet
  facet normal 0.707107 0.707107 0
    outer loop
      vertex -35.3392 -1.76497 4.1
      vertex -35.515 -1.58917 0.0999994
      vertex -35.515 -1.58917 4.1
    endloop
  endfacet
  facet normal 0.707107 0.707107 0
    outer loop
      vertex -35.515 -1.58917 0.0999994
      vertex -35.3392 -1.76497 4.1
      vertex -35.3392 -1.76497 0.0999994
    endloop
  endfacet
  facet normal 0.777229 0.629218 0
    outer loop
      vertex -35.515 -1.58917 4.1
      vertex -35.6714 -1.39598 0.0999994
      vertex -35.6714 -1.39598 4.1
    endloop
  endfacet
  facet normal 0.777229 0.629218 0
    outer loop
      vertex -35.6714 -1.39598 0.0999994
      vertex -35.515 -1.58917 4.1
      vertex -35.515 -1.58917 0.0999994
    endloop
  endfacet
  facet normal 0.838649 0.544672 0
    outer loop
      vertex -35.6714 -1.39598 4.1
      vertex -35.8068 -1.1875 0.0999994
      vertex -35.8068 -1.1875 4.1
    endloop
  endfacet
  facet normal 0.838649 0.544672 0
    outer loop
      vertex -35.8068 -1.1875 0.0999994
      vertex -35.6714 -1.39598 4.1
      vertex -35.6714 -1.39598 0.0999994
    endloop
  endfacet
  facet normal 0.890951 0.454099 0
    outer loop
      vertex -35.8068 -1.1875 4.1
      vertex -35.9197 -0.965988 0.0999994
      vertex -35.9197 -0.965988 4.1
    endloop
  endfacet
  facet normal 0.890951 0.454099 0
    outer loop
      vertex -35.9197 -0.965988 0.0999994
      vertex -35.8068 -1.1875 4.1
      vertex -35.8068 -1.1875 0.0999994
    endloop
  endfacet
  facet normal 0.933566 0.358405 0
    outer loop
      vertex -35.9197 -0.965988 4.1
      vertex -36.0088 -0.733902 0.0999994
      vertex -36.0088 -0.733902 4.1
    endloop
  endfacet
  facet normal 0.933566 0.358405 0
    outer loop
      vertex -36.0088 -0.733902 0.0999994
      vertex -35.9197 -0.965988 4.1
      vertex -35.9197 -0.965988 0.0999994
    endloop
  endfacet
  facet normal 0.965964 0.258677 0
    outer loop
      vertex -36.0088 -0.733902 4.1
      vertex -36.0731 -0.49379 0.0999994
      vertex -36.0731 -0.49379 4.1
    endloop
  endfacet
  facet normal 0.965964 0.258677 0
    outer loop
      vertex -36.0731 -0.49379 0.0999994
      vertex -36.0088 -0.733902 4.1
      vertex -36.0088 -0.733902 0.0999994
    endloop
  endfacet
  facet normal 0.987682 0.156472 0
    outer loop
      vertex -36.0731 -0.49379 4.1
      vertex -36.112 -0.248245 0.0999994
      vertex -36.112 -0.248245 4.1
    endloop
  endfacet
  facet normal 0.987682 0.156472 0
    outer loop
      vertex -36.112 -0.248245 0.0999994
      vertex -36.0731 -0.49379 4.1
      vertex -36.0731 -0.49379 0.0999994
    endloop
  endfacet
  facet normal 0.998632 0.052296 0
    outer loop
      vertex -36.112 -0.248245 4.1
      vertex -36.125 0 0.0999994
      vertex -36.125 0 4.1
    endloop
  endfacet
  facet normal 0.998632 0.052296 0
    outer loop
      vertex -36.125 0 0.0999994
      vertex -36.112 -0.248245 4.1
      vertex -36.112 -0.248245 0.0999994
    endloop
  endfacet
  facet normal 0.998632 -0.052296 0
    outer loop
      vertex -36.125 0 4.1
      vertex -36.112 0.248245 0.0999994
      vertex -36.112 0.248245 4.1
    endloop
  endfacet
  facet normal 0.998632 -0.052296 0
    outer loop
      vertex -36.112 0.248245 0.0999994
      vertex -36.125 0 4.1
      vertex -36.125 0 0.0999994
    endloop
  endfacet
  facet normal 0.987682 -0.156472 0
    outer loop
      vertex -36.112 0.248245 4.1
      vertex -36.0731 0.49379 0.0999994
      vertex -36.0731 0.49379 4.1
    endloop
  endfacet
  facet normal 0.987682 -0.156472 0
    outer loop
      vertex -36.0731 0.49379 0.0999994
      vertex -36.112 0.248245 4.1
      vertex -36.112 0.248245 0.0999994
    endloop
  endfacet
  facet normal 0.965964 -0.258677 0
    outer loop
      vertex -36.0731 0.49379 4.1
      vertex -36.0088 0.733902 0.0999994
      vertex -36.0088 0.733902 4.1
    endloop
  endfacet
  facet normal 0.965964 -0.258677 0
    outer loop
      vertex -36.0088 0.733902 0.0999994
      vertex -36.0731 0.49379 4.1
      vertex -36.0731 0.49379 0.0999994
    endloop
  endfacet
  facet normal 0.933566 -0.358405 0
    outer loop
      vertex -36.0088 0.733902 4.1
      vertex -35.9197 0.965988 0.0999994
      vertex -35.9197 0.965988 4.1
    endloop
  endfacet
  facet normal 0.933566 -0.358405 0
    outer loop
      vertex -35.9197 0.965988 0.0999994
      vertex -36.0088 0.733902 4.1
      vertex -36.0088 0.733902 0.0999994
    endloop
  endfacet
  facet normal 0.890951 -0.454099 0
    outer loop
      vertex -35.9197 0.965988 4.1
      vertex -35.8068 1.1875 0.0999994
      vertex -35.8068 1.1875 4.1
    endloop
  endfacet
  facet normal 0.890951 -0.454099 0
    outer loop
      vertex -35.8068 1.1875 0.0999994
      vertex -35.9197 0.965988 4.1
      vertex -35.9197 0.965988 0.0999994
    endloop
  endfacet
  facet normal 0.838649 -0.544672 0
    outer loop
      vertex -35.8068 1.1875 4.1
      vertex -35.6714 1.39598 0.0999994
      vertex -35.6714 1.39598 4.1
    endloop
  endfacet
  facet normal 0.838649 -0.544672 0
    outer loop
      vertex -35.6714 1.39598 0.0999994
      vertex -35.8068 1.1875 4.1
      vertex -35.8068 1.1875 0.0999994
    endloop
  endfacet
  facet normal 0.777229 -0.629218 0
    outer loop
      vertex -35.6714 1.39598 4.1
      vertex -35.515 1.58917 0.0999994
      vertex -35.515 1.58917 4.1
    endloop
  endfacet
  facet normal 0.777229 -0.629218 0
    outer loop
      vertex -35.515 1.58917 0.0999994
      vertex -35.6714 1.39598 4.1
      vertex -35.6714 1.39598 0.0999994
    endloop
  endfacet
  facet normal 0.707107 -0.707107 0
    outer loop
      vertex -35.515 1.58917 4.1
      vertex -35.3392 1.76497 0.0999994
      vertex -35.3392 1.76497 4.1
    endloop
  endfacet
  facet normal 0.707107 -0.707107 0
    outer loop
      vertex -35.3392 1.76497 0.0999994
      vertex -35.515 1.58917 4.1
      vertex -35.515 1.58917 0.0999994
    endloop
  endfacet
  facet normal 0.629271 -0.777186 0
    outer loop
      vertex -35.3392 1.76497 0.0999994
      vertex -35.146 1.9214 4.1
      vertex -35.3392 1.76497 4.1
    endloop
  endfacet
  facet normal 0.629271 -0.777186 0
    outer loop
      vertex -35.146 1.9214 4.1
      vertex -35.3392 1.76497 0.0999994
      vertex -35.146 1.9214 0.0999994
    endloop
  endfacet
  facet normal 0.544663 -0.838655 0
    outer loop
      vertex -35.146 1.9214 0.0999994
      vertex -34.9375 2.05681 4.1
      vertex -35.146 1.9214 4.1
    endloop
  endfacet
  facet normal 0.544663 -0.838655 0
    outer loop
      vertex -34.9375 2.05681 4.1
      vertex -35.146 1.9214 0.0999994
      vertex -34.9375 2.05681 0.0999994
    endloop
  endfacet
  facet normal 0.453959 -0.891023 0
    outer loop
      vertex -34.9375 2.05681 0.0999994
      vertex -34.716 2.16966 4.1
      vertex -34.9375 2.05681 4.1
    endloop
  endfacet
  facet normal 0.453959 -0.891023 0
    outer loop
      vertex -34.716 2.16966 4.1
      vertex -34.9375 2.05681 0.0999994
      vertex -34.716 2.16966 0.0999994
    endloop
  endfacet
  facet normal 0.358386 -0.933573 0
    outer loop
      vertex -34.716 2.16966 0.0999994
      vertex -34.4839 2.25876 4.1
      vertex -34.716 2.16966 4.1
    endloop
  endfacet
  facet normal 0.358386 -0.933573 0
    outer loop
      vertex -34.4839 2.25876 4.1
      vertex -34.716 2.16966 0.0999994
      vertex -34.4839 2.25876 0.0999994
    endloop
  endfacet
  facet normal 0.258802 -0.96593 0
    outer loop
      vertex -34.4839 2.25876 0.0999994
      vertex -34.2438 2.32309 4.1
      vertex -34.4839 2.25876 4.1
    endloop
  endfacet
  facet normal 0.258802 -0.96593 0
    outer loop
      vertex -34.2438 2.32309 4.1
      vertex -34.4839 2.25876 0.0999994
      vertex -34.2438 2.32309 0.0999994
    endloop
  endfacet
  facet normal 0.156398 -0.987694 0
    outer loop
      vertex -34.2438 2.32309 0.0999994
      vertex -33.9982 2.36198 4.1
      vertex -34.2438 2.32309 4.1
    endloop
  endfacet
  facet normal 0.156398 -0.987694 0
    outer loop
      vertex -33.9982 2.36198 4.1
      vertex -34.2438 2.32309 0.0999994
      vertex -33.9982 2.36198 0.0999994
    endloop
  endfacet
  facet normal 0.0523857 -0.998627 0
    outer loop
      vertex -33.9982 2.36198 0.0999994
      vertex -33.75 2.375 4.1
      vertex -33.9982 2.36198 4.1
    endloop
  endfacet
  facet normal 0.0523857 -0.998627 0
    outer loop
      vertex -33.75 2.375 4.1
      vertex -33.9982 2.36198 0.0999994
      vertex -33.75 2.375 0.0999994
    endloop
  endfacet
  facet normal -0.0523646 -0.998628 0
    outer loop
      vertex -33.75 2.375 0.0999994
      vertex -33.5017 2.36198 4.1
      vertex -33.75 2.375 4.1
    endloop
  endfacet
  facet normal -0.0523646 -0.998628 -0
    outer loop
      vertex -33.5017 2.36198 4.1
      vertex -33.75 2.375 0.0999994
      vertex -33.5017 2.36198 0.0999994
    endloop
  endfacet
  facet normal -0.15646 -0.987684 0
    outer loop
      vertex -33.5017 2.36198 0.0999994
      vertex -33.2562 2.32309 4.1
      vertex -33.5017 2.36198 4.1
    endloop
  endfacet
  facet normal -0.15646 -0.987684 -0
    outer loop
      vertex -33.2562 2.32309 4.1
      vertex -33.5017 2.36198 0.0999994
      vertex -33.2562 2.32309 0.0999994
    endloop
  endfacet
  facet normal -0.258802 -0.96593 0
    outer loop
      vertex -33.2562 2.32309 0.0999994
      vertex -33.0161 2.25876 4.1
      vertex -33.2562 2.32309 4.1
    endloop
  endfacet
  facet normal -0.258802 -0.96593 -0
    outer loop
      vertex -33.0161 2.25876 4.1
      vertex -33.2562 2.32309 0.0999994
      vertex -33.0161 2.25876 0.0999994
    endloop
  endfacet
  facet normal -0.358386 -0.933573 0
    outer loop
      vertex -33.0161 2.25876 0.0999994
      vertex -32.784 2.16966 4.1
      vertex -33.0161 2.25876 4.1
    endloop
  endfacet
  facet normal -0.358386 -0.933573 -0
    outer loop
      vertex -32.784 2.16966 4.1
      vertex -33.0161 2.25876 0.0999994
      vertex -32.784 2.16966 0.0999994
    endloop
  endfacet
  facet normal -0.453959 -0.891023 0
    outer loop
      vertex -32.784 2.16966 0.0999994
      vertex -32.5625 2.05681 4.1
      vertex -32.784 2.16966 4.1
    endloop
  endfacet
  facet normal -0.453959 -0.891023 -0
    outer loop
      vertex -32.5625 2.05681 4.1
      vertex -32.784 2.16966 0.0999994
      vertex -32.5625 2.05681 0.0999994
    endloop
  endfacet
  facet normal -0.544663 -0.838655 0
    outer loop
      vertex -32.5625 2.05681 0.0999994
      vertex -32.354 1.9214 4.1
      vertex -32.5625 2.05681 4.1
    endloop
  endfacet
  facet normal -0.544663 -0.838655 -0
    outer loop
      vertex -32.354 1.9214 4.1
      vertex -32.5625 2.05681 0.0999994
      vertex -32.354 1.9214 0.0999994
    endloop
  endfacet
  facet normal -0.629271 -0.777186 0
    outer loop
      vertex -32.354 1.9214 0.0999994
      vertex -32.1608 1.76497 4.1
      vertex -32.354 1.9214 4.1
    endloop
  endfacet
  facet normal -0.629271 -0.777186 -0
    outer loop
      vertex -32.1608 1.76497 4.1
      vertex -32.354 1.9214 0.0999994
      vertex -32.1608 1.76497 0.0999994
    endloop
  endfacet
  facet normal -0.707107 -0.707107 0
    outer loop
      vertex -31.985 1.58917 0.0999994
      vertex -32.1608 1.76497 4.1
      vertex -32.1608 1.76497 0.0999994
    endloop
  endfacet
  facet normal -0.707107 -0.707107 0
    outer loop
      vertex -32.1608 1.76497 4.1
      vertex -31.985 1.58917 0.0999994
      vertex -31.985 1.58917 4.1
    endloop
  endfacet
  facet normal -0.777229 -0.629218 0
    outer loop
      vertex -31.8286 1.39598 0.0999994
      vertex -31.985 1.58917 4.1
      vertex -31.985 1.58917 0.0999994
    endloop
  endfacet
  facet normal -0.777229 -0.629218 0
    outer loop
      vertex -31.985 1.58917 4.1
      vertex -31.8286 1.39598 0.0999994
      vertex -31.8286 1.39598 4.1
    endloop
  endfacet
  facet normal -0.838649 -0.544672 0
    outer loop
      vertex -31.6932 1.1875 0.0999994
      vertex -31.8286 1.39598 4.1
      vertex -31.8286 1.39598 0.0999994
    endloop
  endfacet
  facet normal -0.838649 -0.544672 0
    outer loop
      vertex -31.8286 1.39598 4.1
      vertex -31.6932 1.1875 0.0999994
      vertex -31.6932 1.1875 4.1
    endloop
  endfacet
  facet normal -0.890951 -0.454099 0
    outer loop
      vertex -31.5803 0.965988 0.0999994
      vertex -31.6932 1.1875 4.1
      vertex -31.6932 1.1875 0.0999994
    endloop
  endfacet
  facet normal -0.890951 -0.454099 0
    outer loop
      vertex -31.6932 1.1875 4.1
      vertex -31.5803 0.965988 0.0999994
      vertex -31.5803 0.965988 4.1
    endloop
  endfacet
  facet normal -0.933566 -0.358405 0
    outer loop
      vertex -31.4912 0.733902 0.0999994
      vertex -31.5803 0.965988 4.1
      vertex -31.5803 0.965988 0.0999994
    endloop
  endfacet
  facet normal -0.933566 -0.358405 0
    outer loop
      vertex -31.5803 0.965988 4.1
      vertex -31.4912 0.733902 0.0999994
      vertex -31.4912 0.733902 4.1
    endloop
  endfacet
  facet normal -0.965964 -0.258677 0
    outer loop
      vertex -31.4269 0.49379 0.0999994
      vertex -31.4912 0.733902 4.1
      vertex -31.4912 0.733902 0.0999994
    endloop
  endfacet
  facet normal -0.965964 -0.258677 0
    outer loop
      vertex -31.4912 0.733902 4.1
      vertex -31.4269 0.49379 0.0999994
      vertex -31.4269 0.49379 4.1
    endloop
  endfacet
  facet normal -0.987682 -0.156472 0
    outer loop
      vertex -31.388 0.248245 0.0999994
      vertex -31.4269 0.49379 4.1
      vertex -31.4269 0.49379 0.0999994
    endloop
  endfacet
  facet normal -0.987682 -0.156472 0
    outer loop
      vertex -31.4269 0.49379 4.1
      vertex -31.388 0.248245 0.0999994
      vertex -31.388 0.248245 4.1
    endloop
  endfacet
  facet normal -0.998632 -0.052296 0
    outer loop
      vertex -31.375 0 0.0999994
      vertex -31.388 0.248245 4.1
      vertex -31.388 0.248245 0.0999994
    endloop
  endfacet
  facet normal -0.998632 -0.052296 0
    outer loop
      vertex -31.388 0.248245 4.1
      vertex -31.375 0 0.0999994
      vertex -31.375 0 4.1
    endloop
  endfacet
  facet normal -0.998632 0.052296 0
    outer loop
      vertex -31.388 -0.248245 0.0999994
      vertex -31.375 0 4.1
      vertex -31.375 0 0.0999994
    endloop
  endfacet
  facet normal -0.998632 0.052296 0
    outer loop
      vertex -31.375 0 4.1
      vertex -31.388 -0.248245 0.0999994
      vertex -31.388 -0.248245 4.1
    endloop
  endfacet
  facet normal -0.987682 0.156472 0
    outer loop
      vertex -31.4269 -0.49379 0.0999994
      vertex -31.388 -0.248245 4.1
      vertex -31.388 -0.248245 0.0999994
    endloop
  endfacet
  facet normal -0.987682 0.156472 0
    outer loop
      vertex -31.388 -0.248245 4.1
      vertex -31.4269 -0.49379 0.0999994
      vertex -31.4269 -0.49379 4.1
    endloop
  endfacet
  facet normal -0.965964 0.258677 0
    outer loop
      vertex -31.4912 -0.733902 0.0999994
      vertex -31.4269 -0.49379 4.1
      vertex -31.4269 -0.49379 0.0999994
    endloop
  endfacet
  facet normal -0.965964 0.258677 0
    outer loop
      vertex -31.4269 -0.49379 4.1
      vertex -31.4912 -0.733902 0.0999994
      vertex -31.4912 -0.733902 4.1
    endloop
  endfacet
  facet normal -0.933566 0.358405 0
    outer loop
      vertex -31.5803 -0.965988 0.0999994
      vertex -31.4912 -0.733902 4.1
      vertex -31.4912 -0.733902 0.0999994
    endloop
  endfacet
  facet normal -0.933566 0.358405 0
    outer loop
      vertex -31.4912 -0.733902 4.1
      vertex -31.5803 -0.965988 0.0999994
      vertex -31.5803 -0.965988 4.1
    endloop
  endfacet
  facet normal -0.890951 0.454099 0
    outer loop
      vertex -31.6932 -1.1875 0.0999994
      vertex -31.5803 -0.965988 4.1
      vertex -31.5803 -0.965988 0.0999994
    endloop
  endfacet
  facet normal -0.890951 0.454099 0
    outer loop
      vertex -31.5803 -0.965988 4.1
      vertex -31.6932 -1.1875 0.0999994
      vertex -31.6932 -1.1875 4.1
    endloop
  endfacet
  facet normal -0.838649 0.544672 0
    outer loop
      vertex -31.8286 -1.39598 0.0999994
      vertex -31.6932 -1.1875 4.1
      vertex -31.6932 -1.1875 0.0999994
    endloop
  endfacet
  facet normal -0.838649 0.544672 0
    outer loop
      vertex -31.6932 -1.1875 4.1
      vertex -31.8286 -1.39598 0.0999994
      vertex -31.8286 -1.39598 4.1
    endloop
  endfacet
  facet normal -0.777229 0.629218 0
    outer loop
      vertex -31.985 -1.58917 0.0999994
      vertex -31.8286 -1.39598 4.1
      vertex -31.8286 -1.39598 0.0999994
    endloop
  endfacet
  facet normal -0.777229 0.629218 0
    outer loop
      vertex -31.8286 -1.39598 4.1
      vertex -31.985 -1.58917 0.0999994
      vertex -31.985 -1.58917 4.1
    endloop
  endfacet
  facet normal -0.707107 0.707107 0
    outer loop
      vertex -32.1608 -1.76497 0.0999994
      vertex -31.985 -1.58917 4.1
      vertex -31.985 -1.58917 0.0999994
    endloop
  endfacet
  facet normal -0.707107 0.707107 0
    outer loop
      vertex -31.985 -1.58917 4.1
      vertex -32.1608 -1.76497 0.0999994
      vertex -32.1608 -1.76497 4.1
    endloop
  endfacet
  facet normal -0.629271 0.777186 0
    outer loop
      vertex -32.1608 -1.76497 0.0999994
      vertex -32.354 -1.9214 4.1
      vertex -32.1608 -1.76497 4.1
    endloop
  endfacet
  facet normal -0.629271 0.777186 0
    outer loop
      vertex -32.354 -1.9214 4.1
      vertex -32.1608 -1.76497 0.0999994
      vertex -32.354 -1.9214 0.0999994
    endloop
  endfacet
  facet normal -0.544663 0.838655 0
    outer loop
      vertex -32.354 -1.9214 0.0999994
      vertex -32.5625 -2.05681 4.1
      vertex -32.354 -1.9214 4.1
    endloop
  endfacet
  facet normal -0.544663 0.838655 0
    outer loop
      vertex -32.5625 -2.05681 4.1
      vertex -32.354 -1.9214 0.0999994
      vertex -32.5625 -2.05681 0.0999994
    endloop
  endfacet
  facet normal -0.453959 0.891023 0
    outer loop
      vertex -32.5625 -2.05681 0.0999994
      vertex -32.784 -2.16966 4.1
      vertex -32.5625 -2.05681 4.1
    endloop
  endfacet
  facet normal -0.453959 0.891023 0
    outer loop
      vertex -32.784 -2.16966 4.1
      vertex -32.5625 -2.05681 0.0999994
      vertex -32.784 -2.16966 0.0999994
    endloop
  endfacet
  facet normal -0.358386 0.933573 0
    outer loop
      vertex -32.784 -2.16966 0.0999994
      vertex -33.0161 -2.25876 4.1
      vertex -32.784 -2.16966 4.1
    endloop
  endfacet
  facet normal -0.358386 0.933573 0
    outer loop
      vertex -33.0161 -2.25876 4.1
      vertex -32.784 -2.16966 0.0999994
      vertex -33.0161 -2.25876 0.0999994
    endloop
  endfacet
  facet normal -0.258802 0.96593 0
    outer loop
      vertex -33.0161 -2.25876 0.0999994
      vertex -33.2562 -2.32309 4.1
      vertex -33.0161 -2.25876 4.1
    endloop
  endfacet
  facet normal -0.258802 0.96593 0
    outer loop
      vertex -33.2562 -2.32309 4.1
      vertex -33.0161 -2.25876 0.0999994
      vertex -33.2562 -2.32309 0.0999994
    endloop
  endfacet
  facet normal -0.15646 0.987684 0
    outer loop
      vertex -33.2562 -2.32309 0.0999994
      vertex -33.5017 -2.36198 4.1
      vertex -33.2562 -2.32309 4.1
    endloop
  endfacet
  facet normal -0.15646 0.987684 0
    outer loop
      vertex -33.5017 -2.36198 4.1
      vertex -33.2562 -2.32309 0.0999994
      vertex -33.5017 -2.36198 0.0999994
    endloop
  endfacet
  facet normal -0.0523646 0.998628 0
    outer loop
      vertex -33.5017 -2.36198 0.0999994
      vertex -33.75 -2.375 4.1
      vertex -33.5017 -2.36198 4.1
    endloop
  endfacet
  facet normal -0.0523646 0.998628 0
    outer loop
      vertex -33.75 -2.375 4.1
      vertex -33.5017 -2.36198 0.0999994
      vertex -33.75 -2.375 0.0999994
    endloop
  endfacet
  facet normal 0.0523857 0.998627 -0
    outer loop
      vertex -33.75 -2.375 0.0999994
      vertex -33.9982 -2.36198 4.1
      vertex -33.75 -2.375 4.1
    endloop
  endfacet
  facet normal 0.0523857 0.998627 0
    outer loop
      vertex -33.9982 -2.36198 4.1
      vertex -33.75 -2.375 0.0999994
      vertex -33.9982 -2.36198 0.0999994
    endloop
  endfacet
  facet normal -0 0 1
    outer loop
      vertex -29 9.5 2
      vertex 29.5 -9.5 2
      vertex 29.5 9.5 2
    endloop
  endfacet
  facet normal 0 0 1
    outer loop
      vertex -29 9.5 2
      vertex -29 -9.5 2
      vertex 29.5 -9.5 2
    endloop
  endfacet
  facet normal -0 0 1
    outer loop
      vertex -29.5 9.47379 2
      vertex -29 -9.5 2
      vertex -29 9.5 2
    endloop
  endfacet
  facet normal 0 0 1
    outer loop
      vertex -29 -9.5 2
      vertex -29.5 9.47379 2
      vertex -29.5 -9.47379 2
    endloop
  endfacet
  facet normal 1 -0 0
    outer loop
      vertex -29.5 -9.47379 4.1
      vertex -29.5 9.47379 2
      vertex -29.5 9.47379 4.1
    endloop
  endfacet
  facet normal 1 0 0
    outer loop
      vertex -29.5 9.47379 2
      vertex -29.5 -9.47379 4.1
      vertex -29.5 -9.47379 2
    endloop
  endfacet
endsolid OpenSCAD_Model
