solid OpenSCAD_Model
  facet normal 1 -0 0
    outer loop
      vertex 31 -11.5 2
      vertex 31 11.5 0
      vertex 31 11.5 2
    endloop
  endfacet
  facet normal 1 0 0
    outer loop
      vertex 31 11.5 0
      vertex 31 -11.5 2
      vertex 31 -11.5 0
    endloop
  endfacet
  facet normal -0 0 1
    outer loop
      vertex -33.9378 -0.597733 2
      vertex -29 -9.5 2
      vertex -33.8907 -0.300507 2
    endloop
  endfacet
  facet normal -0 0 1
    outer loop
      vertex -34.0157 -0.888412 2
      vertex -29 -9.5 2
      vertex -33.9378 -0.597733 2
    endloop
  endfacet
  facet normal -0 0 1
    outer loop
      vertex -34.1236 -1.16936 2
      vertex -29 -9.5 2
      vertex -34.0157 -0.888412 2
    endloop
  endfacet
  facet normal -0 0 1
    outer loop
      vertex -34.2602 -1.4375 2
      vertex -29 -9.5 2
      vertex -34.1236 -1.16936 2
    endloop
  endfacet
  facet normal -0 0 1
    outer loop
      vertex -34.4241 -1.68988 2
      vertex -29 -9.5 2
      vertex -34.2602 -1.4375 2
    endloop
  endfacet
  facet normal -0 0 1
    outer loop
      vertex -34.6134 -1.92374 2
      vertex -29 -9.5 2
      vertex -34.4241 -1.68988 2
    endloop
  endfacet
  facet normal -0 0 1
    outer loop
      vertex -34.8262 -2.13654 2
      vertex -29 -9.5 2
      vertex -34.6134 -1.92374 2
    endloop
  endfacet
  facet normal -0 0 1
    outer loop
      vertex -35.0601 -2.32591 2
      vertex -29 -9.5 2
      vertex -34.8262 -2.13654 2
    endloop
  endfacet
  facet normal -0 0 1
    outer loop
      vertex -35.3125 -2.48982 2
      vertex -29 -9.5 2
      vertex -35.0601 -2.32591 2
    endloop
  endfacet
  facet normal 0 0 1
    outer loop
      vertex -29 -9.5 2
      vertex -35.3125 -2.48982 2
      vertex -33.391 -11.2487 2
    endloop
  endfacet
  facet normal 0 0 1
    outer loop
      vertex -33.391 -11.2487 2
      vertex -35.3125 -2.48982 2
      vertex -34.5537 -10.9371 2
    endloop
  endfacet
  facet normal -0 0 1
    outer loop
      vertex -35.5806 -2.62643 2
      vertex -34.5537 -10.9371 2
      vertex -35.3125 -2.48982 2
    endloop
  endfacet
  facet normal 0 0 1
    outer loop
      vertex -35.5806 -2.62643 2
      vertex -35.6775 -10.5058 2
      vertex -34.5537 -10.9371 2
    endloop
  endfacet
  facet normal -0 0 1
    outer loop
      vertex -35.8616 -2.73428 2
      vertex -35.6775 -10.5058 2
      vertex -35.5806 -2.62643 2
    endloop
  endfacet
  facet normal 0 0 1
    outer loop
      vertex -36.75 -9.95929 2
      vertex -35.8616 -2.73428 2
      vertex -36.1523 -2.81216 2
    endloop
  endfacet
  facet normal 0 0 1
    outer loop
      vertex -37.7595 -9.30368 2
      vertex -36.1523 -2.81216 2
      vertex -36.4495 -2.85924 2
    endloop
  endfacet
  facet normal 0 0 1
    outer loop
      vertex -38.695 -8.54616 2
      vertex -36.4495 -2.85924 2
      vertex -36.75 -2.875 2
    endloop
  endfacet
  facet normal 0 0 1
    outer loop
      vertex -35.8616 -2.73428 2
      vertex -36.75 -9.95929 2
      vertex -35.6775 -10.5058 2
    endloop
  endfacet
  facet normal 0 0 1
    outer loop
      vertex -39.5462 -7.69499 2
      vertex -36.75 -2.875 2
      vertex -37.0505 -2.85924 2
    endloop
  endfacet
  facet normal 0 0 1
    outer loop
      vertex -39.5462 -7.69499 2
      vertex -37.0505 -2.85924 2
      vertex -37.3477 -2.81216 2
    endloop
  endfacet
  facet normal 0 0 1
    outer loop
      vertex -40.3037 -6.75952 2
      vertex -37.3477 -2.81216 2
      vertex -37.6384 -2.73428 2
    endloop
  endfacet
  facet normal 0 0 1
    outer loop
      vertex -36.1523 -2.81216 2
      vertex -37.7595 -9.30368 2
      vertex -36.75 -9.95929 2
    endloop
  endfacet
  facet normal 0 0 1
    outer loop
      vertex -40.3037 -6.75952 2
      vertex -37.6384 -2.73428 2
      vertex -37.9194 -2.62643 2
    endloop
  endfacet
  facet normal 0 0 1
    outer loop
      vertex -40.9593 -5.75 2
      vertex -37.9194 -2.62643 2
      vertex -38.1875 -2.48982 2
    endloop
  endfacet
  facet normal 0 0 1
    outer loop
      vertex -41.5058 -4.67746 2
      vertex -38.1875 -2.48982 2
      vertex -38.4399 -2.32591 2
    endloop
  endfacet
  facet normal 0 0 1
    outer loop
      vertex -41.5058 -4.67746 2
      vertex -38.4399 -2.32591 2
      vertex -38.6737 -2.13654 2
    endloop
  endfacet
  facet normal 0 0 1
    outer loop
      vertex -36.4495 -2.85924 2
      vertex -38.695 -8.54616 2
      vertex -37.7595 -9.30368 2
    endloop
  endfacet
  facet normal 0 0 1
    outer loop
      vertex -41.9371 -3.55368 2
      vertex -38.6737 -2.13654 2
      vertex -38.8865 -1.92374 2
    endloop
  endfacet
  facet normal 0 0 1
    outer loop
      vertex -41.9371 -3.55368 2
      vertex -38.8865 -1.92374 2
      vertex -39.0759 -1.68988 2
    endloop
  endfacet
  facet normal 0 0 1
    outer loop
      vertex -42.2487 -2.39098 2
      vertex -39.0759 -1.68988 2
      vertex -39.2398 -1.4375 2
    endloop
  endfacet
  facet normal 0 0 1
    outer loop
      vertex -42.2487 -2.39098 2
      vertex -39.2398 -1.4375 2
      vertex -39.3764 -1.16936 2
    endloop
  endfacet
  facet normal 0 0 1
    outer loop
      vertex -42.2487 -2.39098 2
      vertex -39.3764 -1.16936 2
      vertex -39.4843 -0.888412 2
    endloop
  endfacet
  facet normal 0 0 1
    outer loop
      vertex -36.75 -2.875 2
      vertex -39.5462 -7.69499 2
      vertex -38.695 -8.54616 2
    endloop
  endfacet
  facet normal 0 0 1
    outer loop
      vertex -42.437 -1.20207 2
      vertex -39.4843 -0.888412 2
      vertex -39.5622 -0.597733 2
    endloop
  endfacet
  facet normal 0 0 1
    outer loop
      vertex -42.437 -1.20207 2
      vertex -39.5622 -0.597733 2
      vertex -39.6092 -0.300507 2
    endloop
  endfacet
  facet normal -0 0 1
    outer loop
      vertex -42.5 0 2
      vertex -39.6092 -0.300507 2
      vertex -39.625 0 2
    endloop
  endfacet
  facet normal 0 0 1
    outer loop
      vertex -39.3764 1.16936 2
      vertex -42.2487 2.39098 2
      vertex -39.4843 0.888412 2
    endloop
  endfacet
  facet normal 0 0 1
    outer loop
      vertex -37.3477 -2.81216 2
      vertex -40.3037 -6.75952 2
      vertex -39.5462 -7.69499 2
    endloop
  endfacet
  facet normal -0 0 1
    outer loop
      vertex -42.437 1.20207 2
      vertex -39.4843 0.888412 2
      vertex -42.2487 2.39098 2
    endloop
  endfacet
  facet normal 0 0 1
    outer loop
      vertex -37.9194 -2.62643 2
      vertex -40.9593 -5.75 2
      vertex -40.3037 -6.75952 2
    endloop
  endfacet
  facet normal 0 0 1
    outer loop
      vertex -39.4843 0.888412 2
      vertex -42.437 1.20207 2
      vertex -39.5622 0.597733 2
    endloop
  endfacet
  facet normal 0 0 1
    outer loop
      vertex -38.1875 -2.48982 2
      vertex -41.5058 -4.67746 2
      vertex -40.9593 -5.75 2
    endloop
  endfacet
  facet normal 0 0 1
    outer loop
      vertex -39.5622 0.597733 2
      vertex -42.437 1.20207 2
      vertex -39.6092 0.300507 2
    endloop
  endfacet
  facet normal 0 0 1
    outer loop
      vertex -38.6737 -2.13654 2
      vertex -41.9371 -3.55368 2
      vertex -41.5058 -4.67746 2
    endloop
  endfacet
  facet normal 0 0 1
    outer loop
      vertex -42.5 0 2
      vertex -39.6092 0.300507 2
      vertex -42.437 1.20207 2
    endloop
  endfacet
  facet normal 0 0 1
    outer loop
      vertex -39.0759 -1.68988 2
      vertex -42.2487 -2.39098 2
      vertex -41.9371 -3.55368 2
    endloop
  endfacet
  facet normal 0 0 1
    outer loop
      vertex -39.6092 0.300507 2
      vertex -42.5 0 2
      vertex -39.625 0 2
    endloop
  endfacet
  facet normal 0 0 1
    outer loop
      vertex -39.4843 -0.888412 2
      vertex -42.437 -1.20207 2
      vertex -42.2487 -2.39098 2
    endloop
  endfacet
  facet normal 0 0 1
    outer loop
      vertex -39.6092 -0.300507 2
      vertex -42.5 0 2
      vertex -42.437 -1.20207 2
    endloop
  endfacet
  facet normal 0 0 1
    outer loop
      vertex 31 11.5 2
      vertex 29 9.5 2
      vertex 31 -11.5 2
    endloop
  endfacet
  facet normal 0 0 1
    outer loop
      vertex 31 11.5 2
      vertex -29 9.5 2
      vertex 29 9.5 2
    endloop
  endfacet
  facet normal -0 0 1
    outer loop
      vertex -32.2021 11.437 2
      vertex -29 9.5 2
      vertex -31 11.5 2
    endloop
  endfacet
  facet normal -0 0 1
    outer loop
      vertex -31 11.5 2
      vertex -29 9.5 2
      vertex 31 11.5 2
    endloop
  endfacet
  facet normal -0 0 1
    outer loop
      vertex 29 -9.5 2
      vertex 31 -11.5 2
      vertex 29 9.5 2
    endloop
  endfacet
  facet normal -0 0 1
    outer loop
      vertex -29 -9.5 2
      vertex 31 -11.5 2
      vertex 29 -9.5 2
    endloop
  endfacet
  facet normal 0 0 1
    outer loop
      vertex -29 -9.5 2
      vertex -31 -11.5 2
      vertex 31 -11.5 2
    endloop
  endfacet
  facet normal 0 -0 1
    outer loop
      vertex -33.875 0 2
      vertex -29 9.5 2
      vertex -33.8907 0.300507 2
    endloop
  endfacet
  facet normal -0 0 1
    outer loop
      vertex -33.391 11.2487 2
      vertex -29 9.5 2
      vertex -32.2021 11.437 2
    endloop
  endfacet
  facet normal -0 0 1
    outer loop
      vertex -33.8907 -0.300507 2
      vertex -29 -9.5 2
      vertex -33.875 0 2
    endloop
  endfacet
  facet normal 0 0 1
    outer loop
      vertex -35.3125 2.48982 2
      vertex -29 9.5 2
      vertex -33.391 11.2487 2
    endloop
  endfacet
  facet normal 0 0 1
    outer loop
      vertex -29 -9.5 2
      vertex -32.2021 -11.437 2
      vertex -31 -11.5 2
    endloop
  endfacet
  facet normal 0 0 1
    outer loop
      vertex -29 -9.5 2
      vertex -33.391 -11.2487 2
      vertex -32.2021 -11.437 2
    endloop
  endfacet
  facet normal 0 0 1
    outer loop
      vertex -29 9.5 2
      vertex -33.875 0 2
      vertex -29 -9.5 2
    endloop
  endfacet
  facet normal 0 0 1
    outer loop
      vertex -29 9.5 2
      vertex -33.9378 0.597733 2
      vertex -33.8907 0.300507 2
    endloop
  endfacet
  facet normal 0 0 1
    outer loop
      vertex -29 9.5 2
      vertex -34.0157 0.888412 2
      vertex -33.9378 0.597733 2
    endloop
  endfacet
  facet normal 0 0 1
    outer loop
      vertex -29 9.5 2
      vertex -34.1236 1.16936 2
      vertex -34.0157 0.888412 2
    endloop
  endfacet
  facet normal 0 0 1
    outer loop
      vertex -29 9.5 2
      vertex -34.2602 1.4375 2
      vertex -34.1236 1.16936 2
    endloop
  endfacet
  facet normal 0 0 1
    outer loop
      vertex -29 9.5 2
      vertex -34.4241 1.68988 2
      vertex -34.2602 1.4375 2
    endloop
  endfacet
  facet normal 0 0 1
    outer loop
      vertex -35.3125 2.48982 2
      vertex -33.391 11.2487 2
      vertex -34.5537 10.9371 2
    endloop
  endfacet
  facet normal 0 0 1
    outer loop
      vertex -29 9.5 2
      vertex -34.6134 1.92374 2
      vertex -34.4241 1.68988 2
    endloop
  endfacet
  facet normal 0 0 1
    outer loop
      vertex -29 9.5 2
      vertex -34.8262 2.13654 2
      vertex -34.6134 1.92374 2
    endloop
  endfacet
  facet normal 0 0 1
    outer loop
      vertex -29 9.5 2
      vertex -35.0601 2.32591 2
      vertex -34.8262 2.13654 2
    endloop
  endfacet
  facet normal 0 0 1
    outer loop
      vertex -29 9.5 2
      vertex -35.3125 2.48982 2
      vertex -35.0601 2.32591 2
    endloop
  endfacet
  facet normal 0 0 1
    outer loop
      vertex -34.5537 10.9371 2
      vertex -35.5806 2.62643 2
      vertex -35.3125 2.48982 2
    endloop
  endfacet
  facet normal -0 0 1
    outer loop
      vertex -35.6775 10.5058 2
      vertex -35.5806 2.62643 2
      vertex -34.5537 10.9371 2
    endloop
  endfacet
  facet normal 0 0 1
    outer loop
      vertex -35.6775 10.5058 2
      vertex -35.8616 2.73428 2
      vertex -35.5806 2.62643 2
    endloop
  endfacet
  facet normal -0 0 1
    outer loop
      vertex -36.75 9.95929 2
      vertex -35.8616 2.73428 2
      vertex -35.6775 10.5058 2
    endloop
  endfacet
  facet normal 0 0 1
    outer loop
      vertex -35.8616 2.73428 2
      vertex -36.75 9.95929 2
      vertex -36.1523 2.81216 2
    endloop
  endfacet
  facet normal -0 0 1
    outer loop
      vertex -37.7595 9.30368 2
      vertex -36.1523 2.81216 2
      vertex -36.75 9.95929 2
    endloop
  endfacet
  facet normal 0 0 1
    outer loop
      vertex -36.1523 2.81216 2
      vertex -37.7595 9.30368 2
      vertex -36.4495 2.85924 2
    endloop
  endfacet
  facet normal -0 0 1
    outer loop
      vertex -38.695 8.54616 2
      vertex -36.4495 2.85924 2
      vertex -37.7595 9.30368 2
    endloop
  endfacet
  facet normal 0 0 1
    outer loop
      vertex -36.4495 2.85924 2
      vertex -38.695 8.54616 2
      vertex -36.75 2.875 2
    endloop
  endfacet
  facet normal -0 0 1
    outer loop
      vertex -39.5462 7.69499 2
      vertex -36.75 2.875 2
      vertex -38.695 8.54616 2
    endloop
  endfacet
  facet normal 0 0 1
    outer loop
      vertex -36.75 2.875 2
      vertex -39.5462 7.69499 2
      vertex -37.0505 2.85924 2
    endloop
  endfacet
  facet normal 0 0 1
    outer loop
      vertex -37.0505 2.85924 2
      vertex -39.5462 7.69499 2
      vertex -37.3477 2.81216 2
    endloop
  endfacet
  facet normal -0 0 1
    outer loop
      vertex -40.3037 6.75952 2
      vertex -37.3477 2.81216 2
      vertex -39.5462 7.69499 2
    endloop
  endfacet
  facet normal 0 0 1
    outer loop
      vertex -37.3477 2.81216 2
      vertex -40.3037 6.75952 2
      vertex -37.6384 2.73428 2
    endloop
  endfacet
  facet normal 0 0 1
    outer loop
      vertex -37.6384 2.73428 2
      vertex -40.3037 6.75952 2
      vertex -37.9194 2.62643 2
    endloop
  endfacet
  facet normal -0 0 1
    outer loop
      vertex -40.9593 5.75 2
      vertex -37.9194 2.62643 2
      vertex -40.3037 6.75952 2
    endloop
  endfacet
  facet normal 0 0 1
    outer loop
      vertex -37.9194 2.62643 2
      vertex -40.9593 5.75 2
      vertex -38.1875 2.48982 2
    endloop
  endfacet
  facet normal -0 0 1
    outer loop
      vertex -41.5058 4.67746 2
      vertex -38.1875 2.48982 2
      vertex -40.9593 5.75 2
    endloop
  endfacet
  facet normal 0 0 1
    outer loop
      vertex -38.1875 2.48982 2
      vertex -41.5058 4.67746 2
      vertex -38.4399 2.32591 2
    endloop
  endfacet
  facet normal 0 0 1
    outer loop
      vertex -38.4399 2.32591 2
      vertex -41.5058 4.67746 2
      vertex -38.6737 2.13654 2
    endloop
  endfacet
  facet normal -0 0 1
    outer loop
      vertex -41.9371 3.55368 2
      vertex -38.6737 2.13654 2
      vertex -41.5058 4.67746 2
    endloop
  endfacet
  facet normal 0 0 1
    outer loop
      vertex -38.6737 2.13654 2
      vertex -41.9371 3.55368 2
      vertex -38.8865 1.92374 2
    endloop
  endfacet
  facet normal 0 0 1
    outer loop
      vertex -38.8865 1.92374 2
      vertex -41.9371 3.55368 2
      vertex -39.0759 1.68988 2
    endloop
  endfacet
  facet normal -0 0 1
    outer loop
      vertex -42.2487 2.39098 2
      vertex -39.0759 1.68988 2
      vertex -41.9371 3.55368 2
    endloop
  endfacet
  facet normal 0 0 1
    outer loop
      vertex -39.0759 1.68988 2
      vertex -42.2487 2.39098 2
      vertex -39.2398 1.4375 2
    endloop
  endfacet
  facet normal 0 0 1
    outer loop
      vertex -39.2398 1.4375 2
      vertex -42.2487 2.39098 2
      vertex -39.3764 1.16936 2
    endloop
  endfacet
  facet normal 0 0 -1
    outer loop
      vertex -31 -11.5 0
      vertex 31 11.5 0
      vertex 31 -11.5 0
    endloop
  endfacet
  facet normal 0 0 -1
    outer loop
      vertex -31 -11.5 0
      vertex -31 11.5 0
      vertex 31 11.5 0
    endloop
  endfacet
  facet normal 0 0 -1
    outer loop
      vertex -34.8262 -2.13654 0
      vertex -31 -11.5 0
      vertex -32.2021 -11.437 0
    endloop
  endfacet
  facet normal 0 0 -1
    outer loop
      vertex -31 -11.5 0
      vertex -33.875 0 0
      vertex -31 11.5 0
    endloop
  endfacet
  facet normal 0 0 -1
    outer loop
      vertex -35.0601 -2.32591 0
      vertex -32.2021 -11.437 0
      vertex -33.391 -11.2487 0
    endloop
  endfacet
  facet normal 0 0 -1
    outer loop
      vertex -33.8907 0.300507 0
      vertex -31 11.5 0
      vertex -33.875 0 0
    endloop
  endfacet
  facet normal 0 0 -1
    outer loop
      vertex -33.9378 0.597733 0
      vertex -31 11.5 0
      vertex -33.8907 0.300507 0
    endloop
  endfacet
  facet normal 0 0 -1
    outer loop
      vertex -31 -11.5 0
      vertex -33.8907 -0.300507 0
      vertex -33.875 0 0
    endloop
  endfacet
  facet normal 0 0 -1
    outer loop
      vertex -31 -11.5 0
      vertex -33.9378 -0.597733 0
      vertex -33.8907 -0.300507 0
    endloop
  endfacet
  facet normal 0 0 -1
    outer loop
      vertex -31 -11.5 0
      vertex -34.0157 -0.888412 0
      vertex -33.9378 -0.597733 0
    endloop
  endfacet
  facet normal 0 0 -1
    outer loop
      vertex -31 -11.5 0
      vertex -34.1236 -1.16936 0
      vertex -34.0157 -0.888412 0
    endloop
  endfacet
  facet normal 0 0 -1
    outer loop
      vertex -31 -11.5 0
      vertex -34.2602 -1.4375 0
      vertex -34.1236 -1.16936 0
    endloop
  endfacet
  facet normal 0 0 -1
    outer loop
      vertex -31 -11.5 0
      vertex -34.4241 -1.68988 0
      vertex -34.2602 -1.4375 0
    endloop
  endfacet
  facet normal 0 0 -1
    outer loop
      vertex -35.3125 -2.48982 0
      vertex -33.391 -11.2487 0
      vertex -34.5537 -10.9371 0
    endloop
  endfacet
  facet normal 0 0 -1
    outer loop
      vertex -31 -11.5 0
      vertex -34.6134 -1.92374 0
      vertex -34.4241 -1.68988 0
    endloop
  endfacet
  facet normal 0 0 -1
    outer loop
      vertex -31 -11.5 0
      vertex -34.8262 -2.13654 0
      vertex -34.6134 -1.92374 0
    endloop
  endfacet
  facet normal 0 0 -1
    outer loop
      vertex -32.2021 -11.437 0
      vertex -35.0601 -2.32591 0
      vertex -34.8262 -2.13654 0
    endloop
  endfacet
  facet normal 0 0 -1
    outer loop
      vertex -33.391 -11.2487 0
      vertex -35.3125 -2.48982 0
      vertex -35.0601 -2.32591 0
    endloop
  endfacet
  facet normal 0 0 -1
    outer loop
      vertex -34.5537 -10.9371 0
      vertex -35.5806 -2.62643 0
      vertex -35.3125 -2.48982 0
    endloop
  endfacet
  facet normal 0 0 -1
    outer loop
      vertex -35.6775 -10.5058 0
      vertex -35.5806 -2.62643 0
      vertex -34.5537 -10.9371 0
    endloop
  endfacet
  facet normal 0 0 -1
    outer loop
      vertex -35.6775 -10.5058 0
      vertex -35.8616 -2.73428 0
      vertex -35.5806 -2.62643 0
    endloop
  endfacet
  facet normal 0 0 -1
    outer loop
      vertex -36.75 -9.95929 0
      vertex -35.8616 -2.73428 0
      vertex -35.6775 -10.5058 0
    endloop
  endfacet
  facet normal 0 0 -1
    outer loop
      vertex -35.8616 -2.73428 0
      vertex -36.75 -9.95929 0
      vertex -36.1523 -2.81216 0
    endloop
  endfacet
  facet normal 0 0 -1
    outer loop
      vertex -37.7595 -9.30368 0
      vertex -36.1523 -2.81216 0
      vertex -36.75 -9.95929 0
    endloop
  endfacet
  facet normal 0 0 -1
    outer loop
      vertex -36.1523 -2.81216 0
      vertex -37.7595 -9.30368 0
      vertex -36.4495 -2.85924 0
    endloop
  endfacet
  facet normal 0 0 -1
    outer loop
      vertex -38.695 -8.54616 0
      vertex -36.4495 -2.85924 0
      vertex -37.7595 -9.30368 0
    endloop
  endfacet
  facet normal 0 0 -1
    outer loop
      vertex -36.4495 -2.85924 0
      vertex -38.695 -8.54616 0
      vertex -36.75 -2.875 0
    endloop
  endfacet
  facet normal 0 0 -1
    outer loop
      vertex -39.5462 -7.69499 0
      vertex -36.75 -2.875 0
      vertex -38.695 -8.54616 0
    endloop
  endfacet
  facet normal -0 0 -1
    outer loop
      vertex -36.75 -2.875 0
      vertex -39.5462 -7.69499 0
      vertex -37.0505 -2.85924 0
    endloop
  endfacet
  facet normal -0 0 -1
    outer loop
      vertex -37.0505 -2.85924 0
      vertex -39.5462 -7.69499 0
      vertex -37.3477 -2.81216 0
    endloop
  endfacet
  facet normal 0 0 -1
    outer loop
      vertex -40.3037 -6.75952 0
      vertex -37.3477 -2.81216 0
      vertex -39.5462 -7.69499 0
    endloop
  endfacet
  facet normal -0 0 -1
    outer loop
      vertex -37.3477 -2.81216 0
      vertex -40.3037 -6.75952 0
      vertex -37.6384 -2.73428 0
    endloop
  endfacet
  facet normal -0 0 -1
    outer loop
      vertex -37.6384 -2.73428 0
      vertex -40.3037 -6.75952 0
      vertex -37.9194 -2.62643 0
    endloop
  endfacet
  facet normal 0 0 -1
    outer loop
      vertex -40.9593 -5.75 0
      vertex -37.9194 -2.62643 0
      vertex -40.3037 -6.75952 0
    endloop
  endfacet
  facet normal -0 0 -1
    outer loop
      vertex -37.9194 -2.62643 0
      vertex -40.9593 -5.75 0
      vertex -38.1875 -2.48982 0
    endloop
  endfacet
  facet normal 0 0 -1
    outer loop
      vertex -41.5058 -4.67746 0
      vertex -38.1875 -2.48982 0
      vertex -40.9593 -5.75 0
    endloop
  endfacet
  facet normal -0 0 -1
    outer loop
      vertex -38.1875 -2.48982 0
      vertex -41.5058 -4.67746 0
      vertex -38.4399 -2.32591 0
    endloop
  endfacet
  facet normal -0 0 -1
    outer loop
      vertex -38.4399 -2.32591 0
      vertex -41.5058 -4.67746 0
      vertex -38.6737 -2.13654 0
    endloop
  endfacet
  facet normal 0 0 -1
    outer loop
      vertex -41.9371 -3.55368 0
      vertex -38.6737 -2.13654 0
      vertex -41.5058 -4.67746 0
    endloop
  endfacet
  facet normal -0 0 -1
    outer loop
      vertex -38.6737 -2.13654 0
      vertex -41.9371 -3.55368 0
      vertex -38.8865 -1.92374 0
    endloop
  endfacet
  facet normal -0 0 -1
    outer loop
      vertex -38.8865 -1.92374 0
      vertex -41.9371 -3.55368 0
      vertex -39.0759 -1.68988 0
    endloop
  endfacet
  facet normal 0 0 -1
    outer loop
      vertex -42.2487 -2.39098 0
      vertex -39.0759 -1.68988 0
      vertex -41.9371 -3.55368 0
    endloop
  endfacet
  facet normal -0 0 -1
    outer loop
      vertex -39.0759 -1.68988 0
      vertex -42.2487 -2.39098 0
      vertex -39.2398 -1.4375 0
    endloop
  endfacet
  facet normal -0 0 -1
    outer loop
      vertex -39.2398 -1.4375 0
      vertex -42.2487 -2.39098 0
      vertex -39.3764 -1.16936 0
    endloop
  endfacet
  facet normal 0 0 -1
    outer loop
      vertex -34.0157 0.888412 0
      vertex -31 11.5 0
      vertex -33.9378 0.597733 0
    endloop
  endfacet
  facet normal 0 0 -1
    outer loop
      vertex -34.1236 1.16936 0
      vertex -31 11.5 0
      vertex -34.0157 0.888412 0
    endloop
  endfacet
  facet normal 0 0 -1
    outer loop
      vertex -34.2602 1.4375 0
      vertex -31 11.5 0
      vertex -34.1236 1.16936 0
    endloop
  endfacet
  facet normal 0 0 -1
    outer loop
      vertex -34.4241 1.68988 0
      vertex -31 11.5 0
      vertex -34.2602 1.4375 0
    endloop
  endfacet
  facet normal 0 0 -1
    outer loop
      vertex -34.6134 1.92374 0
      vertex -31 11.5 0
      vertex -34.4241 1.68988 0
    endloop
  endfacet
  facet normal 0 0 -1
    outer loop
      vertex -34.8262 2.13654 0
      vertex -31 11.5 0
      vertex -34.6134 1.92374 0
    endloop
  endfacet
  facet normal 0 0 -1
    outer loop
      vertex -31 11.5 0
      vertex -34.8262 2.13654 0
      vertex -32.2021 11.437 0
    endloop
  endfacet
  facet normal 0 0 -1
    outer loop
      vertex -35.0601 2.32591 0
      vertex -32.2021 11.437 0
      vertex -34.8262 2.13654 0
    endloop
  endfacet
  facet normal 0 0 -1
    outer loop
      vertex -32.2021 11.437 0
      vertex -35.0601 2.32591 0
      vertex -33.391 11.2487 0
    endloop
  endfacet
  facet normal 0 0 -1
    outer loop
      vertex -35.3125 2.48982 0
      vertex -33.391 11.2487 0
      vertex -35.0601 2.32591 0
    endloop
  endfacet
  facet normal 0 0 -1
    outer loop
      vertex -33.391 11.2487 0
      vertex -35.3125 2.48982 0
      vertex -34.5537 10.9371 0
    endloop
  endfacet
  facet normal 0 0 -1
    outer loop
      vertex -35.5806 2.62643 0
      vertex -34.5537 10.9371 0
      vertex -35.3125 2.48982 0
    endloop
  endfacet
  facet normal 0 0 -1
    outer loop
      vertex -35.5806 2.62643 0
      vertex -35.6775 10.5058 0
      vertex -34.5537 10.9371 0
    endloop
  endfacet
  facet normal 0 0 -1
    outer loop
      vertex -35.8616 2.73428 0
      vertex -35.6775 10.5058 0
      vertex -35.5806 2.62643 0
    endloop
  endfacet
  facet normal 0 0 -1
    outer loop
      vertex -36.75 9.95929 0
      vertex -35.8616 2.73428 0
      vertex -36.1523 2.81216 0
    endloop
  endfacet
  facet normal 0 0 -1
    outer loop
      vertex -37.7595 9.30368 0
      vertex -36.1523 2.81216 0
      vertex -36.4495 2.85924 0
    endloop
  endfacet
  facet normal 0 0 -1
    outer loop
      vertex -38.695 8.54616 0
      vertex -36.4495 2.85924 0
      vertex -36.75 2.875 0
    endloop
  endfacet
  facet normal 0 0 -1
    outer loop
      vertex -35.8616 2.73428 0
      vertex -36.75 9.95929 0
      vertex -35.6775 10.5058 0
    endloop
  endfacet
  facet normal 0 0 -1
    outer loop
      vertex -39.5462 7.69499 0
      vertex -36.75 2.875 0
      vertex -37.0505 2.85924 0
    endloop
  endfacet
  facet normal 0 0 -1
    outer loop
      vertex -39.5462 7.69499 0
      vertex -37.0505 2.85924 0
      vertex -37.3477 2.81216 0
    endloop
  endfacet
  facet normal 0 0 -1
    outer loop
      vertex -40.3037 6.75952 0
      vertex -37.3477 2.81216 0
      vertex -37.6384 2.73428 0
    endloop
  endfacet
  facet normal 0 0 -1
    outer loop
      vertex -36.1523 2.81216 0
      vertex -37.7595 9.30368 0
      vertex -36.75 9.95929 0
    endloop
  endfacet
  facet normal 0 0 -1
    outer loop
      vertex -40.3037 6.75952 0
      vertex -37.6384 2.73428 0
      vertex -37.9194 2.62643 0
    endloop
  endfacet
  facet normal 0 0 -1
    outer loop
      vertex -40.9593 5.75 0
      vertex -37.9194 2.62643 0
      vertex -38.1875 2.48982 0
    endloop
  endfacet
  facet normal 0 0 -1
    outer loop
      vertex -41.5058 4.67746 0
      vertex -38.1875 2.48982 0
      vertex -38.4399 2.32591 0
    endloop
  endfacet
  facet normal 0 0 -1
    outer loop
      vertex -41.5058 4.67746 0
      vertex -38.4399 2.32591 0
      vertex -38.6737 2.13654 0
    endloop
  endfacet
  facet normal 0 0 -1
    outer loop
      vertex -36.4495 2.85924 0
      vertex -38.695 8.54616 0
      vertex -37.7595 9.30368 0
    endloop
  endfacet
  facet normal 0 0 -1
    outer loop
      vertex -41.9371 3.55368 0
      vertex -38.6737 2.13654 0
      vertex -38.8865 1.92374 0
    endloop
  endfacet
  facet normal 0 0 -1
    outer loop
      vertex -41.9371 3.55368 0
      vertex -38.8865 1.92374 0
      vertex -39.0759 1.68988 0
    endloop
  endfacet
  facet normal 0 0 -1
    outer loop
      vertex -42.2487 2.39098 0
      vertex -39.0759 1.68988 0
      vertex -39.2398 1.4375 0
    endloop
  endfacet
  facet normal 0 0 -1
    outer loop
      vertex -42.2487 2.39098 0
      vertex -39.2398 1.4375 0
      vertex -39.3764 1.16936 0
    endloop
  endfacet
  facet normal 0 0 -1
    outer loop
      vertex -42.2487 2.39098 0
      vertex -39.3764 1.16936 0
      vertex -39.4843 0.888412 0
    endloop
  endfacet
  facet normal 0 0 -1
    outer loop
      vertex -36.75 2.875 0
      vertex -39.5462 7.69499 0
      vertex -38.695 8.54616 0
    endloop
  endfacet
  facet normal 0 0 -1
    outer loop
      vertex -42.437 1.20207 0
      vertex -39.4843 0.888412 0
      vertex -39.5622 0.597733 0
    endloop
  endfacet
  facet normal 0 0 -1
    outer loop
      vertex -42.437 1.20207 0
      vertex -39.5622 0.597733 0
      vertex -39.6092 0.300507 0
    endloop
  endfacet
  facet normal 0 0 -1
    outer loop
      vertex -42.5 0 0
      vertex -39.6092 0.300507 0
      vertex -39.625 0 0
    endloop
  endfacet
  facet normal -0 0 -1
    outer loop
      vertex -39.3764 -1.16936 0
      vertex -42.2487 -2.39098 0
      vertex -39.4843 -0.888412 0
    endloop
  endfacet
  facet normal 0 0 -1
    outer loop
      vertex -37.3477 2.81216 0
      vertex -40.3037 6.75952 0
      vertex -39.5462 7.69499 0
    endloop
  endfacet
  facet normal 0 0 -1
    outer loop
      vertex -42.437 -1.20207 0
      vertex -39.4843 -0.888412 0
      vertex -42.2487 -2.39098 0
    endloop
  endfacet
  facet normal 0 0 -1
    outer loop
      vertex -37.9194 2.62643 0
      vertex -40.9593 5.75 0
      vertex -40.3037 6.75952 0
    endloop
  endfacet
  facet normal -0 0 -1
    outer loop
      vertex -39.4843 -0.888412 0
      vertex -42.437 -1.20207 0
      vertex -39.5622 -0.597733 0
    endloop
  endfacet
  facet normal 0 0 -1
    outer loop
      vertex -38.1875 2.48982 0
      vertex -41.5058 4.67746 0
      vertex -40.9593 5.75 0
    endloop
  endfacet
  facet normal -0 0 -1
    outer loop
      vertex -39.5622 -0.597733 0
      vertex -42.437 -1.20207 0
      vertex -39.6092 -0.300507 0
    endloop
  endfacet
  facet normal 0 0 -1
    outer loop
      vertex -38.6737 2.13654 0
      vertex -41.9371 3.55368 0
      vertex -41.5058 4.67746 0
    endloop
  endfacet
  facet normal 0 0 -1
    outer loop
      vertex -42.5 0 0
      vertex -39.6092 -0.300507 0
      vertex -42.437 -1.20207 0
    endloop
  endfacet
  facet normal 0 0 -1
    outer loop
      vertex -39.0759 1.68988 0
      vertex -42.2487 2.39098 0
      vertex -41.9371 3.55368 0
    endloop
  endfacet
  facet normal 0 0 -1
    outer loop
      vertex -39.6092 -0.300507 0
      vertex -42.5 0 0
      vertex -39.625 0 0
    endloop
  endfacet
  facet normal 0 0 -1
    outer loop
      vertex -39.4843 0.888412 0
      vertex -42.437 1.20207 0
      vertex -42.2487 2.39098 0
    endloop
  endfacet
  facet normal -0 0 -1
    outer loop
      vertex -39.6092 0.300507 0
      vertex -42.5 0 0
      vertex -42.437 1.20207 0
    endloop
  endfacet
  facet normal 0 1 -0
    outer loop
      vertex 31 11.5 0
      vertex -31 11.5 2
      vertex 31 11.5 2
    endloop
  endfacet
  facet normal 0 1 0
    outer loop
      vertex -31 11.5 2
      vertex 31 11.5 0
      vertex -31 11.5 0
    endloop
  endfacet
  facet normal 0 -1 0
    outer loop
      vertex -31 -11.5 0
      vertex 31 -11.5 2
      vertex -31 -11.5 2
    endloop
  endfacet
  facet normal 0 -1 -0
    outer loop
      vertex 31 -11.5 2
      vertex -31 -11.5 0
      vertex 31 -11.5 0
    endloop
  endfacet
  facet normal -0.0523365 0.99863 0
    outer loop
      vertex -31 11.5 0
      vertex -32.2021 11.437 2
      vertex -31 11.5 2
    endloop
  endfacet
  facet normal -0.0523365 0.99863 0
    outer loop
      vertex -32.2021 11.437 2
      vertex -31 11.5 0
      vertex -32.2021 11.437 0
    endloop
  endfacet
  facet normal -0.156432 0.987689 0
    outer loop
      vertex -32.2021 11.437 0
      vertex -33.391 11.2487 2
      vertex -32.2021 11.437 2
    endloop
  endfacet
  facet normal -0.156432 0.987689 0
    outer loop
      vertex -33.391 11.2487 2
      vertex -32.2021 11.437 0
      vertex -33.391 11.2487 0
    endloop
  endfacet
  facet normal -0.258862 0.965914 0
    outer loop
      vertex -33.391 11.2487 0
      vertex -34.5537 10.9371 2
      vertex -33.391 11.2487 2
    endloop
  endfacet
  facet normal -0.258862 0.965914 0
    outer loop
      vertex -34.5537 10.9371 2
      vertex -33.391 11.2487 0
      vertex -34.5537 10.9371 0
    endloop
  endfacet
  facet normal -0.358305 0.933604 0
    outer loop
      vertex -34.5537 10.9371 0
      vertex -35.6775 10.5058 2
      vertex -34.5537 10.9371 2
    endloop
  endfacet
  facet normal -0.358305 0.933604 0
    outer loop
      vertex -35.6775 10.5058 2
      vertex -34.5537 10.9371 0
      vertex -35.6775 10.5058 0
    endloop
  endfacet
  facet normal -0.454019 0.890992 0
    outer loop
      vertex -35.6775 10.5058 0
      vertex -36.75 9.95929 2
      vertex -35.6775 10.5058 2
    endloop
  endfacet
  facet normal -0.454019 0.890992 0
    outer loop
      vertex -36.75 9.95929 2
      vertex -35.6775 10.5058 0
      vertex -36.75 9.95929 0
    endloop
  endfacet
  facet normal -0.544658 0.838658 0
    outer loop
      vertex -36.75 9.95929 0
      vertex -37.7595 9.30368 2
      vertex -36.75 9.95929 2
    endloop
  endfacet
  facet normal -0.544658 0.838658 0
    outer loop
      vertex -37.7595 9.30368 2
      vertex -36.75 9.95929 0
      vertex -37.7595 9.30368 0
    endloop
  endfacet
  facet normal -0.629304 0.777159 0
    outer loop
      vertex -37.7595 9.30368 0
      vertex -38.695 8.54616 2
      vertex -37.7595 9.30368 2
    endloop
  endfacet
  facet normal -0.629304 0.777159 0
    outer loop
      vertex -38.695 8.54616 2
      vertex -37.7595 9.30368 0
      vertex -38.695 8.54616 0
    endloop
  endfacet
  facet normal -0.707094 0.707119 0
    outer loop
      vertex -39.5462 7.69499 0
      vertex -38.695 8.54616 2
      vertex -38.695 8.54616 0
    endloop
  endfacet
  facet normal -0.707094 0.707119 0
    outer loop
      vertex -38.695 8.54616 2
      vertex -39.5462 7.69499 0
      vertex -39.5462 7.69499 2
    endloop
  endfacet
  facet normal -0.777158 0.629306 0
    outer loop
      vertex -40.3037 6.75952 0
      vertex -39.5462 7.69499 2
      vertex -39.5462 7.69499 0
    endloop
  endfacet
  facet normal -0.777158 0.629306 0
    outer loop
      vertex -39.5462 7.69499 2
      vertex -40.3037 6.75952 0
      vertex -40.3037 6.75952 2
    endloop
  endfacet
  facet normal -0.838667 0.544645 0
    outer loop
      vertex -40.9593 5.75 0
      vertex -40.3037 6.75952 2
      vertex -40.3037 6.75952 0
    endloop
  endfacet
  facet normal -0.838667 0.544645 0
    outer loop
      vertex -40.3037 6.75952 2
      vertex -40.9593 5.75 0
      vertex -40.9593 5.75 2
    endloop
  endfacet
  facet normal -0.891002 0.453999 0
    outer loop
      vertex -41.5058 4.67746 0
      vertex -40.9593 5.75 2
      vertex -40.9593 5.75 0
    endloop
  endfacet
  facet normal -0.891002 0.453999 0
    outer loop
      vertex -40.9593 5.75 2
      vertex -41.5058 4.67746 0
      vertex -41.5058 4.67746 2
    endloop
  endfacet
  facet normal -0.933602 0.358311 0
    outer loop
      vertex -41.9371 3.55368 0
      vertex -41.5058 4.67746 2
      vertex -41.5058 4.67746 0
    endloop
  endfacet
  facet normal -0.933602 0.358311 0
    outer loop
      vertex -41.5058 4.67746 2
      vertex -41.9371 3.55368 0
      vertex -41.9371 3.55368 2
    endloop
  endfacet
  facet normal -0.965914 0.258862 0
    outer loop
      vertex -42.2487 2.39098 0
      vertex -41.9371 3.55368 2
      vertex -41.9371 3.55368 0
    endloop
  endfacet
  facet normal -0.965914 0.258862 0
    outer loop
      vertex -41.9371 3.55368 2
      vertex -42.2487 2.39098 0
      vertex -42.2487 2.39098 2
    endloop
  endfacet
  facet normal -0.987689 0.156431 0
    outer loop
      vertex -42.437 1.20207 0
      vertex -42.2487 2.39098 2
      vertex -42.2487 2.39098 0
    endloop
  endfacet
  facet normal -0.987689 0.156431 0
    outer loop
      vertex -42.2487 2.39098 2
      vertex -42.437 1.20207 0
      vertex -42.437 1.20207 2
    endloop
  endfacet
  facet normal -0.998629 0.0523378 0
    outer loop
      vertex -42.5 0 0
      vertex -42.437 1.20207 2
      vertex -42.437 1.20207 0
    endloop
  endfacet
  facet normal -0.998629 0.0523378 0
    outer loop
      vertex -42.437 1.20207 2
      vertex -42.5 0 0
      vertex -42.5 0 2
    endloop
  endfacet
  facet normal -0.998629 -0.0523378 0
    outer loop
      vertex -42.437 -1.20207 0
      vertex -42.5 0 2
      vertex -42.5 0 0
    endloop
  endfacet
  facet normal -0.998629 -0.0523378 0
    outer loop
      vertex -42.5 0 2
      vertex -42.437 -1.20207 0
      vertex -42.437 -1.20207 2
    endloop
  endfacet
  facet normal -0.987689 -0.156431 0
    outer loop
      vertex -42.2487 -2.39098 0
      vertex -42.437 -1.20207 2
      vertex -42.437 -1.20207 0
    endloop
  endfacet
  facet normal -0.987689 -0.156431 0
    outer loop
      vertex -42.437 -1.20207 2
      vertex -42.2487 -2.39098 0
      vertex -42.2487 -2.39098 2
    endloop
  endfacet
  facet normal -0.965914 -0.258862 0
    outer loop
      vertex -41.9371 -3.55368 0
      vertex -42.2487 -2.39098 2
      vertex -42.2487 -2.39098 0
    endloop
  endfacet
  facet normal -0.965914 -0.258862 0
    outer loop
      vertex -42.2487 -2.39098 2
      vertex -41.9371 -3.55368 0
      vertex -41.9371 -3.55368 2
    endloop
  endfacet
  facet normal -0.933602 -0.358311 0
    outer loop
      vertex -41.5058 -4.67746 0
      vertex -41.9371 -3.55368 2
      vertex -41.9371 -3.55368 0
    endloop
  endfacet
  facet normal -0.933602 -0.358311 0
    outer loop
      vertex -41.9371 -3.55368 2
      vertex -41.5058 -4.67746 0
      vertex -41.5058 -4.67746 2
    endloop
  endfacet
  facet normal -0.891002 -0.453999 0
    outer loop
      vertex -40.9593 -5.75 0
      vertex -41.5058 -4.67746 2
      vertex -41.5058 -4.67746 0
    endloop
  endfacet
  facet normal -0.891002 -0.453999 0
    outer loop
      vertex -41.5058 -4.67746 2
      vertex -40.9593 -5.75 0
      vertex -40.9593 -5.75 2
    endloop
  endfacet
  facet normal -0.838667 -0.544645 0
    outer loop
      vertex -40.3037 -6.75952 0
      vertex -40.9593 -5.75 2
      vertex -40.9593 -5.75 0
    endloop
  endfacet
  facet normal -0.838667 -0.544645 0
    outer loop
      vertex -40.9593 -5.75 2
      vertex -40.3037 -6.75952 0
      vertex -40.3037 -6.75952 2
    endloop
  endfacet
  facet normal -0.777158 -0.629306 0
    outer loop
      vertex -39.5462 -7.69499 0
      vertex -40.3037 -6.75952 2
      vertex -40.3037 -6.75952 0
    endloop
  endfacet
  facet normal -0.777158 -0.629306 0
    outer loop
      vertex -40.3037 -6.75952 2
      vertex -39.5462 -7.69499 0
      vertex -39.5462 -7.69499 2
    endloop
  endfacet
  facet normal -0.707094 -0.707119 0
    outer loop
      vertex -38.695 -8.54616 0
      vertex -39.5462 -7.69499 2
      vertex -39.5462 -7.69499 0
    endloop
  endfacet
  facet normal -0.707094 -0.707119 0
    outer loop
      vertex -39.5462 -7.69499 2
      vertex -38.695 -8.54616 0
      vertex -38.695 -8.54616 2
    endloop
  endfacet
  facet normal -0.629304 -0.777159 0
    outer loop
      vertex -38.695 -8.54616 0
      vertex -37.7595 -9.30368 2
      vertex -38.695 -8.54616 2
    endloop
  endfacet
  facet normal -0.629304 -0.777159 -0
    outer loop
      vertex -37.7595 -9.30368 2
      vertex -38.695 -8.54616 0
      vertex -37.7595 -9.30368 0
    endloop
  endfacet
  facet normal -0.544658 -0.838658 0
    outer loop
      vertex -37.7595 -9.30368 0
      vertex -36.75 -9.95929 2
      vertex -37.7595 -9.30368 2
    endloop
  endfacet
  facet normal -0.544658 -0.838658 -0
    outer loop
      vertex -36.75 -9.95929 2
      vertex -37.7595 -9.30368 0
      vertex -36.75 -9.95929 0
    endloop
  endfacet
  facet normal -0.454019 -0.890992 0
    outer loop
      vertex -36.75 -9.95929 0
      vertex -35.6775 -10.5058 2
      vertex -36.75 -9.95929 2
    endloop
  endfacet
  facet normal -0.454019 -0.890992 -0
    outer loop
      vertex -35.6775 -10.5058 2
      vertex -36.75 -9.95929 0
      vertex -35.6775 -10.5058 0
    endloop
  endfacet
  facet normal -0.358305 -0.933604 0
    outer loop
      vertex -35.6775 -10.5058 0
      vertex -34.5537 -10.9371 2
      vertex -35.6775 -10.5058 2
    endloop
  endfacet
  facet normal -0.358305 -0.933604 -0
    outer loop
      vertex -34.5537 -10.9371 2
      vertex -35.6775 -10.5058 0
      vertex -34.5537 -10.9371 0
    endloop
  endfacet
  facet normal -0.258862 -0.965914 0
    outer loop
      vertex -34.5537 -10.9371 0
      vertex -33.391 -11.2487 2
      vertex -34.5537 -10.9371 2
    endloop
  endfacet
  facet normal -0.258862 -0.965914 -0
    outer loop
      vertex -33.391 -11.2487 2
      vertex -34.5537 -10.9371 0
      vertex -33.391 -11.2487 0
    endloop
  endfacet
  facet normal -0.156432 -0.987689 0
    outer loop
      vertex -33.391 -11.2487 0
      vertex -32.2021 -11.437 2
      vertex -33.391 -11.2487 2
    endloop
  endfacet
  facet normal -0.156432 -0.987689 -0
    outer loop
      vertex -32.2021 -11.437 2
      vertex -33.391 -11.2487 0
      vertex -32.2021 -11.437 0
    endloop
  endfacet
  facet normal -0.0523365 -0.99863 0
    outer loop
      vertex -32.2021 -11.437 0
      vertex -31 -11.5 2
      vertex -32.2021 -11.437 2
    endloop
  endfacet
  facet normal -0.0523365 -0.99863 -0
    outer loop
      vertex -31 -11.5 2
      vertex -32.2021 -11.437 0
      vertex -31 -11.5 0
    endloop
  endfacet
  facet normal 0.156461 0.987684 -0
    outer loop
      vertex -37.0505 -2.85924 0
      vertex -37.3477 -2.81216 2
      vertex -37.0505 -2.85924 2
    endloop
  endfacet
  facet normal 0.156461 0.987684 0
    outer loop
      vertex -37.3477 -2.81216 2
      vertex -37.0505 -2.85924 0
      vertex -37.3477 -2.81216 0
    endloop
  endfacet
  facet normal 0.258779 0.965936 -0
    outer loop
      vertex -37.3477 -2.81216 0
      vertex -37.6384 -2.73428 2
      vertex -37.3477 -2.81216 2
    endloop
  endfacet
  facet normal 0.258779 0.965936 0
    outer loop
      vertex -37.6384 -2.73428 2
      vertex -37.3477 -2.81216 0
      vertex -37.6384 -2.73428 0
    endloop
  endfacet
  facet normal 0.358322 0.933598 -0
    outer loop
      vertex -37.6384 -2.73428 0
      vertex -37.9194 -2.62643 2
      vertex -37.6384 -2.73428 2
    endloop
  endfacet
  facet normal 0.358322 0.933598 0
    outer loop
      vertex -37.9194 -2.62643 2
      vertex -37.6384 -2.73428 0
      vertex -37.9194 -2.62643 0
    endloop
  endfacet
  facet normal 0.454007 0.890998 -0
    outer loop
      vertex -37.9194 -2.62643 0
      vertex -38.1875 -2.48982 2
      vertex -37.9194 -2.62643 2
    endloop
  endfacet
  facet normal 0.454007 0.890998 0
    outer loop
      vertex -38.1875 -2.48982 2
      vertex -37.9194 -2.62643 0
      vertex -38.1875 -2.48982 0
    endloop
  endfacet
  facet normal 0.544638 0.838671 -0
    outer loop
      vertex -38.1875 -2.48982 0
      vertex -38.4399 -2.32591 2
      vertex -38.1875 -2.48982 2
    endloop
  endfacet
  facet normal 0.544638 0.838671 0
    outer loop
      vertex -38.4399 -2.32591 2
      vertex -38.1875 -2.48982 0
      vertex -38.4399 -2.32591 0
    endloop
  endfacet
  facet normal 0.629406 0.777077 -0
    outer loop
      vertex -38.4399 -2.32591 0
      vertex -38.6737 -2.13654 2
      vertex -38.4399 -2.32591 2
    endloop
  endfacet
  facet normal 0.629406 0.777077 0
    outer loop
      vertex -38.6737 -2.13654 2
      vertex -38.4399 -2.32591 0
      vertex -38.6737 -2.13654 0
    endloop
  endfacet
  facet normal 0.707107 0.707107 0
    outer loop
      vertex -38.6737 -2.13654 2
      vertex -38.8865 -1.92374 0
      vertex -38.8865 -1.92374 2
    endloop
  endfacet
  facet normal 0.707107 0.707107 0
    outer loop
      vertex -38.8865 -1.92374 0
      vertex -38.6737 -2.13654 2
      vertex -38.6737 -2.13654 0
    endloop
  endfacet
  facet normal 0.777107 0.629368 0
    outer loop
      vertex -38.8865 -1.92374 2
      vertex -39.0759 -1.68988 0
      vertex -39.0759 -1.68988 2
    endloop
  endfacet
  facet normal 0.777107 0.629368 0
    outer loop
      vertex -39.0759 -1.68988 0
      vertex -38.8865 -1.92374 2
      vertex -38.8865 -1.92374 0
    endloop
  endfacet
  facet normal 0.838667 0.544645 0
    outer loop
      vertex -39.0759 -1.68988 2
      vertex -39.2398 -1.4375 0
      vertex -39.2398 -1.4375 2
    endloop
  endfacet
  facet normal 0.838667 0.544645 0
    outer loop
      vertex -39.2398 -1.4375 0
      vertex -39.0759 -1.68988 2
      vertex -39.0759 -1.68988 0
    endloop
  endfacet
  facet normal 0.891039 0.453927 0
    outer loop
      vertex -39.2398 -1.4375 2
      vertex -39.3764 -1.16936 0
      vertex -39.3764 -1.16936 2
    endloop
  endfacet
  facet normal 0.891039 0.453927 0
    outer loop
      vertex -39.3764 -1.16936 0
      vertex -39.2398 -1.4375 2
      vertex -39.2398 -1.4375 0
    endloop
  endfacet
  facet normal 0.93352 0.358525 0
    outer loop
      vertex -39.3764 -1.16936 2
      vertex -39.4843 -0.888412 0
      vertex -39.4843 -0.888412 2
    endloop
  endfacet
  facet normal 0.93352 0.358525 0
    outer loop
      vertex -39.4843 -0.888412 0
      vertex -39.3764 -1.16936 2
      vertex -39.3764 -1.16936 0
    endloop
  endfacet
  facet normal 0.965915 0.258859 0
    outer loop
      vertex -39.4843 -0.888412 2
      vertex -39.5622 -0.597733 0
      vertex -39.5622 -0.597733 2
    endloop
  endfacet
  facet normal 0.965915 0.258859 0
    outer loop
      vertex -39.5622 -0.597733 0
      vertex -39.4843 -0.888412 2
      vertex -39.4843 -0.888412 0
    endloop
  endfacet
  facet normal 0.987727 0.156188 0
    outer loop
      vertex -39.5622 -0.597733 2
      vertex -39.6092 -0.300507 0
      vertex -39.6092 -0.300507 2
    endloop
  endfacet
  facet normal 0.987727 0.156188 0
    outer loop
      vertex -39.6092 -0.300507 0
      vertex -39.5622 -0.597733 2
      vertex -39.5622 -0.597733 0
    endloop
  endfacet
  facet normal 0.998621 0.0525053 0
    outer loop
      vertex -39.6092 -0.300507 2
      vertex -39.625 0 0
      vertex -39.625 0 2
    endloop
  endfacet
  facet normal 0.998621 0.0525053 0
    outer loop
      vertex -39.625 0 0
      vertex -39.6092 -0.300507 2
      vertex -39.6092 -0.300507 0
    endloop
  endfacet
  facet normal 0.998621 -0.0525053 0
    outer loop
      vertex -39.625 0 2
      vertex -39.6092 0.300507 0
      vertex -39.6092 0.300507 2
    endloop
  endfacet
  facet normal 0.998621 -0.0525053 0
    outer loop
      vertex -39.6092 0.300507 0
      vertex -39.625 0 2
      vertex -39.625 0 0
    endloop
  endfacet
  facet normal 0.987727 -0.156188 0
    outer loop
      vertex -39.6092 0.300507 2
      vertex -39.5622 0.597733 0
      vertex -39.5622 0.597733 2
    endloop
  endfacet
  facet normal 0.987727 -0.156188 0
    outer loop
      vertex -39.5622 0.597733 0
      vertex -39.6092 0.300507 2
      vertex -39.6092 0.300507 0
    endloop
  endfacet
  facet normal 0.965915 -0.258859 0
    outer loop
      vertex -39.5622 0.597733 2
      vertex -39.4843 0.888412 0
      vertex -39.4843 0.888412 2
    endloop
  endfacet
  facet normal 0.965915 -0.258859 0
    outer loop
      vertex -39.4843 0.888412 0
      vertex -39.5622 0.597733 2
      vertex -39.5622 0.597733 0
    endloop
  endfacet
  facet normal 0.93352 -0.358525 0
    outer loop
      vertex -39.4843 0.888412 2
      vertex -39.3764 1.16936 0
      vertex -39.3764 1.16936 2
    endloop
  endfacet
  facet normal 0.93352 -0.358525 0
    outer loop
      vertex -39.3764 1.16936 0
      vertex -39.4843 0.888412 2
      vertex -39.4843 0.888412 0
    endloop
  endfacet
  facet normal 0.891039 -0.453927 0
    outer loop
      vertex -39.3764 1.16936 2
      vertex -39.2398 1.4375 0
      vertex -39.2398 1.4375 2
    endloop
  endfacet
  facet normal 0.891039 -0.453927 0
    outer loop
      vertex -39.2398 1.4375 0
      vertex -39.3764 1.16936 2
      vertex -39.3764 1.16936 0
    endloop
  endfacet
  facet normal 0.838667 -0.544645 0
    outer loop
      vertex -39.2398 1.4375 2
      vertex -39.0759 1.68988 0
      vertex -39.0759 1.68988 2
    endloop
  endfacet
  facet normal 0.838667 -0.544645 0
    outer loop
      vertex -39.0759 1.68988 0
      vertex -39.2398 1.4375 2
      vertex -39.2398 1.4375 0
    endloop
  endfacet
  facet normal 0.777107 -0.629368 0
    outer loop
      vertex -39.0759 1.68988 2
      vertex -38.8865 1.92374 0
      vertex -38.8865 1.92374 2
    endloop
  endfacet
  facet normal 0.777107 -0.629368 0
    outer loop
      vertex -38.8865 1.92374 0
      vertex -39.0759 1.68988 2
      vertex -39.0759 1.68988 0
    endloop
  endfacet
  facet normal 0.707107 -0.707107 0
    outer loop
      vertex -38.8865 1.92374 2
      vertex -38.6737 2.13654 0
      vertex -38.6737 2.13654 2
    endloop
  endfacet
  facet normal 0.707107 -0.707107 0
    outer loop
      vertex -38.6737 2.13654 0
      vertex -38.8865 1.92374 2
      vertex -38.8865 1.92374 0
    endloop
  endfacet
  facet normal 0.629406 -0.777077 0
    outer loop
      vertex -38.6737 2.13654 0
      vertex -38.4399 2.32591 2
      vertex -38.6737 2.13654 2
    endloop
  endfacet
  facet normal 0.629406 -0.777077 0
    outer loop
      vertex -38.4399 2.32591 2
      vertex -38.6737 2.13654 0
      vertex -38.4399 2.32591 0
    endloop
  endfacet
  facet normal 0.544638 -0.838671 0
    outer loop
      vertex -38.4399 2.32591 0
      vertex -38.1875 2.48982 2
      vertex -38.4399 2.32591 2
    endloop
  endfacet
  facet normal 0.544638 -0.838671 0
    outer loop
      vertex -38.1875 2.48982 2
      vertex -38.4399 2.32591 0
      vertex -38.1875 2.48982 0
    endloop
  endfacet
  facet normal 0.454007 -0.890998 0
    outer loop
      vertex -38.1875 2.48982 0
      vertex -37.9194 2.62643 2
      vertex -38.1875 2.48982 2
    endloop
  endfacet
  facet normal 0.454007 -0.890998 0
    outer loop
      vertex -37.9194 2.62643 2
      vertex -38.1875 2.48982 0
      vertex -37.9194 2.62643 0
    endloop
  endfacet
  facet normal 0.358322 -0.933598 0
    outer loop
      vertex -37.9194 2.62643 0
      vertex -37.6384 2.73428 2
      vertex -37.9194 2.62643 2
    endloop
  endfacet
  facet normal 0.358322 -0.933598 0
    outer loop
      vertex -37.6384 2.73428 2
      vertex -37.9194 2.62643 0
      vertex -37.6384 2.73428 0
    endloop
  endfacet
  facet normal 0.258779 -0.965936 0
    outer loop
      vertex -37.6384 2.73428 0
      vertex -37.3477 2.81216 2
      vertex -37.6384 2.73428 2
    endloop
  endfacet
  facet normal 0.258779 -0.965936 0
    outer loop
      vertex -37.3477 2.81216 2
      vertex -37.6384 2.73428 0
      vertex -37.3477 2.81216 0
    endloop
  endfacet
  facet normal 0.156461 -0.987684 0
    outer loop
      vertex -37.3477 2.81216 0
      vertex -37.0505 2.85924 2
      vertex -37.3477 2.81216 2
    endloop
  endfacet
  facet normal 0.156461 -0.987684 0
    outer loop
      vertex -37.0505 2.85924 2
      vertex -37.3477 2.81216 0
      vertex -37.0505 2.85924 0
    endloop
  endfacet
  facet normal 0.0523739 -0.998628 0
    outer loop
      vertex -37.0505 2.85924 0
      vertex -36.75 2.875 2
      vertex -37.0505 2.85924 2
    endloop
  endfacet
  facet normal 0.0523739 -0.998628 0
    outer loop
      vertex -36.75 2.875 2
      vertex -37.0505 2.85924 0
      vertex -36.75 2.875 0
    endloop
  endfacet
  facet normal -0.0523739 -0.998628 0
    outer loop
      vertex -36.75 2.875 0
      vertex -36.4495 2.85924 2
      vertex -36.75 2.875 2
    endloop
  endfacet
  facet normal -0.0523739 -0.998628 -0
    outer loop
      vertex -36.4495 2.85924 2
      vertex -36.75 2.875 0
      vertex -36.4495 2.85924 0
    endloop
  endfacet
  facet normal -0.156461 -0.987684 0
    outer loop
      vertex -36.4495 2.85924 0
      vertex -36.1523 2.81216 2
      vertex -36.4495 2.85924 2
    endloop
  endfacet
  facet normal -0.156461 -0.987684 -0
    outer loop
      vertex -36.1523 2.81216 2
      vertex -36.4495 2.85924 0
      vertex -36.1523 2.81216 0
    endloop
  endfacet
  facet normal -0.258779 -0.965936 0
    outer loop
      vertex -36.1523 2.81216 0
      vertex -35.8616 2.73428 2
      vertex -36.1523 2.81216 2
    endloop
  endfacet
  facet normal -0.258779 -0.965936 -0
    outer loop
      vertex -35.8616 2.73428 2
      vertex -36.1523 2.81216 0
      vertex -35.8616 2.73428 0
    endloop
  endfacet
  facet normal -0.358322 -0.933598 0
    outer loop
      vertex -35.8616 2.73428 0
      vertex -35.5806 2.62643 2
      vertex -35.8616 2.73428 2
    endloop
  endfacet
  facet normal -0.358322 -0.933598 -0
    outer loop
      vertex -35.5806 2.62643 2
      vertex -35.8616 2.73428 0
      vertex -35.5806 2.62643 0
    endloop
  endfacet
  facet normal -0.454007 -0.890998 0
    outer loop
      vertex -35.5806 2.62643 0
      vertex -35.3125 2.48982 2
      vertex -35.5806 2.62643 2
    endloop
  endfacet
  facet normal -0.454007 -0.890998 -0
    outer loop
      vertex -35.3125 2.48982 2
      vertex -35.5806 2.62643 0
      vertex -35.3125 2.48982 0
    endloop
  endfacet
  facet normal -0.544638 -0.838671 0
    outer loop
      vertex -35.3125 2.48982 0
      vertex -35.0601 2.32591 2
      vertex -35.3125 2.48982 2
    endloop
  endfacet
  facet normal -0.544638 -0.838671 -0
    outer loop
      vertex -35.0601 2.32591 2
      vertex -35.3125 2.48982 0
      vertex -35.0601 2.32591 0
    endloop
  endfacet
  facet normal -0.629243 -0.777209 0
    outer loop
      vertex -35.0601 2.32591 0
      vertex -34.8262 2.13654 2
      vertex -35.0601 2.32591 2
    endloop
  endfacet
  facet normal -0.629243 -0.777209 -0
    outer loop
      vertex -34.8262 2.13654 2
      vertex -35.0601 2.32591 0
      vertex -34.8262 2.13654 0
    endloop
  endfacet
  facet normal -0.707107 -0.707107 0
    outer loop
      vertex -34.6134 1.92374 0
      vertex -34.8262 2.13654 2
      vertex -34.8262 2.13654 0
    endloop
  endfacet
  facet normal -0.707107 -0.707107 0
    outer loop
      vertex -34.8262 2.13654 2
      vertex -34.6134 1.92374 0
      vertex -34.6134 1.92374 2
    endloop
  endfacet
  facet normal -0.77727 -0.629168 0
    outer loop
      vertex -34.4241 1.68988 0
      vertex -34.6134 1.92374 2
      vertex -34.6134 1.92374 0
    endloop
  endfacet
  facet normal -0.77727 -0.629168 0
    outer loop
      vertex -34.6134 1.92374 2
      vertex -34.4241 1.68988 0
      vertex -34.4241 1.68988 2
    endloop
  endfacet
  facet normal -0.838667 -0.544645 0
    outer loop
      vertex -34.2602 1.4375 0
      vertex -34.4241 1.68988 2
      vertex -34.4241 1.68988 0
    endloop
  endfacet
  facet normal -0.838667 -0.544645 0
    outer loop
      vertex -34.4241 1.68988 2
      vertex -34.2602 1.4375 0
      vertex -34.2602 1.4375 2
    endloop
  endfacet
  facet normal -0.891039 -0.453927 0
    outer loop
      vertex -34.1236 1.16936 0
      vertex -34.2602 1.4375 2
      vertex -34.2602 1.4375 0
    endloop
  endfacet
  facet normal -0.891039 -0.453927 0
    outer loop
      vertex -34.2602 1.4375 2
      vertex -34.1236 1.16936 0
      vertex -34.1236 1.16936 2
    endloop
  endfacet
  facet normal -0.93352 -0.358525 0
    outer loop
      vertex -34.0157 0.888412 0
      vertex -34.1236 1.16936 2
      vertex -34.1236 1.16936 0
    endloop
  endfacet
  facet normal -0.93352 -0.358525 0
    outer loop
      vertex -34.1236 1.16936 2
      vertex -34.0157 0.888412 0
      vertex -34.0157 0.888412 2
    endloop
  endfacet
  facet normal -0.965915 -0.258859 0
    outer loop
      vertex -33.9378 0.597733 0
      vertex -34.0157 0.888412 2
      vertex -34.0157 0.888412 0
    endloop
  endfacet
  facet normal -0.965915 -0.258859 0
    outer loop
      vertex -34.0157 0.888412 2
      vertex -33.9378 0.597733 0
      vertex -33.9378 0.597733 2
    endloop
  endfacet
  facet normal -0.987676 -0.156512 0
    outer loop
      vertex -33.8907 0.300507 0
      vertex -33.9378 0.597733 2
      vertex -33.9378 0.597733 0
    endloop
  endfacet
  facet normal -0.987676 -0.156512 0
    outer loop
      vertex -33.9378 0.597733 2
      vertex -33.8907 0.300507 0
      vertex -33.8907 0.300507 2
    endloop
  endfacet
  facet normal -0.998638 -0.0521739 0
    outer loop
      vertex -33.875 0 0
      vertex -33.8907 0.300507 2
      vertex -33.8907 0.300507 0
    endloop
  endfacet
  facet normal -0.998638 -0.0521739 0
    outer loop
      vertex -33.8907 0.300507 2
      vertex -33.875 0 0
      vertex -33.875 0 2
    endloop
  endfacet
  facet normal -0.998638 0.0521739 0
    outer loop
      vertex -33.8907 -0.300507 0
      vertex -33.875 0 2
      vertex -33.875 0 0
    endloop
  endfacet
  facet normal -0.998638 0.0521739 0
    outer loop
      vertex -33.875 0 2
      vertex -33.8907 -0.300507 0
      vertex -33.8907 -0.300507 2
    endloop
  endfacet
  facet normal -0.987676 0.156512 0
    outer loop
      vertex -33.9378 -0.597733 0
      vertex -33.8907 -0.300507 2
      vertex -33.8907 -0.300507 0
    endloop
  endfacet
  facet normal -0.987676 0.156512 0
    outer loop
      vertex -33.8907 -0.300507 2
      vertex -33.9378 -0.597733 0
      vertex -33.9378 -0.597733 2
    endloop
  endfacet
  facet normal -0.965915 0.258859 0
    outer loop
      vertex -34.0157 -0.888412 0
      vertex -33.9378 -0.597733 2
      vertex -33.9378 -0.597733 0
    endloop
  endfacet
  facet normal -0.965915 0.258859 0
    outer loop
      vertex -33.9378 -0.597733 2
      vertex -34.0157 -0.888412 0
      vertex -34.0157 -0.888412 2
    endloop
  endfacet
  facet normal -0.93352 0.358525 0
    outer loop
      vertex -34.1236 -1.16936 0
      vertex -34.0157 -0.888412 2
      vertex -34.0157 -0.888412 0
    endloop
  endfacet
  facet normal -0.93352 0.358525 0
    outer loop
      vertex -34.0157 -0.888412 2
      vertex -34.1236 -1.16936 0
      vertex -34.1236 -1.16936 2
    endloop
  endfacet
  facet normal -0.891039 0.453927 0
    outer loop
      vertex -34.2602 -1.4375 0
      vertex -34.1236 -1.16936 2
      vertex -34.1236 -1.16936 0
    endloop
  endfacet
  facet normal -0.891039 0.453927 0
    outer loop
      vertex -34.1236 -1.16936 2
      vertex -34.2602 -1.4375 0
      vertex -34.2602 -1.4375 2
    endloop
  endfacet
  facet normal -0.838667 0.544645 0
    outer loop
      vertex -34.4241 -1.68988 0
      vertex -34.2602 -1.4375 2
      vertex -34.2602 -1.4375 0
    endloop
  endfacet
  facet normal -0.838667 0.544645 0
    outer loop
      vertex -34.2602 -1.4375 2
      vertex -34.4241 -1.68988 0
      vertex -34.4241 -1.68988 2
    endloop
  endfacet
  facet normal -0.77727 0.629168 0
    outer loop
      vertex -34.6134 -1.92374 0
      vertex -34.4241 -1.68988 2
      vertex -34.4241 -1.68988 0
    endloop
  endfacet
  facet normal -0.77727 0.629168 0
    outer loop
      vertex -34.4241 -1.68988 2
      vertex -34.6134 -1.92374 0
      vertex -34.6134 -1.92374 2
    endloop
  endfacet
  facet normal -0.707107 0.707107 0
    outer loop
      vertex -34.8262 -2.13654 0
      vertex -34.6134 -1.92374 2
      vertex -34.6134 -1.92374 0
    endloop
  endfacet
  facet normal -0.707107 0.707107 0
    outer loop
      vertex -34.6134 -1.92374 2
      vertex -34.8262 -2.13654 0
      vertex -34.8262 -2.13654 2
    endloop
  endfacet
  facet normal -0.629243 0.777209 0
    outer loop
      vertex -34.8262 -2.13654 0
      vertex -35.0601 -2.32591 2
      vertex -34.8262 -2.13654 2
    endloop
  endfacet
  facet normal -0.629243 0.777209 0
    outer loop
      vertex -35.0601 -2.32591 2
      vertex -34.8262 -2.13654 0
      vertex -35.0601 -2.32591 0
    endloop
  endfacet
  facet normal -0.544638 0.838671 0
    outer loop
      vertex -35.0601 -2.32591 0
      vertex -35.3125 -2.48982 2
      vertex -35.0601 -2.32591 2
    endloop
  endfacet
  facet normal -0.544638 0.838671 0
    outer loop
      vertex -35.3125 -2.48982 2
      vertex -35.0601 -2.32591 0
      vertex -35.3125 -2.48982 0
    endloop
  endfacet
  facet normal -0.454007 0.890998 0
    outer loop
      vertex -35.3125 -2.48982 0
      vertex -35.5806 -2.62643 2
      vertex -35.3125 -2.48982 2
    endloop
  endfacet
  facet normal -0.454007 0.890998 0
    outer loop
      vertex -35.5806 -2.62643 2
      vertex -35.3125 -2.48982 0
      vertex -35.5806 -2.62643 0
    endloop
  endfacet
  facet normal -0.358322 0.933598 0
    outer loop
      vertex -35.5806 -2.62643 0
      vertex -35.8616 -2.73428 2
      vertex -35.5806 -2.62643 2
    endloop
  endfacet
  facet normal -0.358322 0.933598 0
    outer loop
      vertex -35.8616 -2.73428 2
      vertex -35.5806 -2.62643 0
      vertex -35.8616 -2.73428 0
    endloop
  endfacet
  facet normal -0.258779 0.965936 0
    outer loop
      vertex -35.8616 -2.73428 0
      vertex -36.1523 -2.81216 2
      vertex -35.8616 -2.73428 2
    endloop
  endfacet
  facet normal -0.258779 0.965936 0
    outer loop
      vertex -36.1523 -2.81216 2
      vertex -35.8616 -2.73428 0
      vertex -36.1523 -2.81216 0
    endloop
  endfacet
  facet normal -0.156461 0.987684 0
    outer loop
      vertex -36.1523 -2.81216 0
      vertex -36.4495 -2.85924 2
      vertex -36.1523 -2.81216 2
    endloop
  endfacet
  facet normal -0.156461 0.987684 0
    outer loop
      vertex -36.4495 -2.85924 2
      vertex -36.1523 -2.81216 0
      vertex -36.4495 -2.85924 0
    endloop
  endfacet
  facet normal -0.0523739 0.998628 0
    outer loop
      vertex -36.4495 -2.85924 0
      vertex -36.75 -2.875 2
      vertex -36.4495 -2.85924 2
    endloop
  endfacet
  facet normal -0.0523739 0.998628 0
    outer loop
      vertex -36.75 -2.875 2
      vertex -36.4495 -2.85924 0
      vertex -36.75 -2.875 0
    endloop
  endfacet
  facet normal 0.0523739 0.998628 -0
    outer loop
      vertex -36.75 -2.875 0
      vertex -37.0505 -2.85924 2
      vertex -36.75 -2.875 2
    endloop
  endfacet
  facet normal 0.0523739 0.998628 0
    outer loop
      vertex -37.0505 -2.85924 2
      vertex -36.75 -2.875 0
      vertex -37.0505 -2.85924 0
    endloop
  endfacet
  facet normal -1 0 0
    outer loop
      vertex 29 -9.5 1
      vertex 29 9.5 2
      vertex 29 9.5 1
    endloop
  endfacet
  facet normal -1 -0 0
    outer loop
      vertex 29 9.5 2
      vertex 29 -9.5 1
      vertex 29 -9.5 2
    endloop
  endfacet
  facet normal -0 0 1
    outer loop
      vertex -29 9.5 1
      vertex 29 -9.5 1
      vertex 29 9.5 1
    endloop
  endfacet
  facet normal 0 0 1
    outer loop
      vertex 29 -9.5 1
      vertex -29 9.5 1
      vertex -29 -9.5 1
    endloop
  endfacet
  facet normal 1 -0 0
    outer loop
      vertex -29 -9.5 2
      vertex -29 9.5 1
      vertex -29 9.5 2
    endloop
  endfacet
  facet normal 1 0 0
    outer loop
      vertex -29 9.5 1
      vertex -29 -9.5 2
      vertex -29 -9.5 1
    endloop
  endfacet
  facet normal 0 -1 0
    outer loop
      vertex -29 9.5 1
      vertex 29 9.5 2
      vertex -29 9.5 2
    endloop
  endfacet
  facet normal 0 -1 -0
    outer loop
      vertex 29 9.5 2
      vertex -29 9.5 1
      vertex 29 9.5 1
    endloop
  endfacet
  facet normal 0 1 -0
    outer loop
      vertex 29 -9.5 1
      vertex -29 -9.5 2
      vertex 29 -9.5 2
    endloop
  endfacet
  facet normal 0 1 0
    outer loop
      vertex -29 -9.5 2
      vertex 29 -9.5 1
      vertex -29 -9.5 1
    endloop
  endfacet
endsolid OpenSCAD_Model
